<?xml version="1.0" standalone="no"?>
<!DOCTYPE svg PUBLIC "-//W3C//DTD SVG 1.1//EN" "http://www.w3.org/Graphics/SVG/1.1/DTD/svg11.dtd" >
<svg xmlns="http://www.w3.org/2000/svg" xmlns:xlink="http://www.w3.org/1999/xlink" version="1.1">
<metadata>
Created by FontForge 20201107 at Mon May 20 21:33:49 2024
 By 
(c)Storytype Studio 2021. All Rights Reserved
</metadata>
<defs>
<font id="Mogilte" horiz-adv-x="1040" >
  <font-face 
    font-family="Mogilte"
    font-weight="400"
    font-stretch="normal"
    units-per-em="2048"
    panose-1="0 0 0 0 0 0 0 0 0 0"
    ascent="1638"
    descent="-410"
    x-height="1075"
    cap-height="1505"
    bbox="-3598.91 -557 3225.28 2003"
    underline-thickness="102"
    underline-position="-307"
    unicode-range="U+000A-FB02"
  />
<missing-glyph horiz-adv-x="1079" 
d="M205 1434h874v-1434h-874v1434zM262 1393l379 -633l381 633h-760zM616 717l-368 614v-1231zM643 674l-379 -631h758zM668 717l370 -621v1239z" />
    <glyph glyph-name="fi.liga" unicode="fi" horiz-adv-x="1218" 
d="M57 1032v43h107q21 451 450 451q157 0 258 -68.5t123 -165.5q20 -88 -37 -139q-50 -45 -118 -29q-80 20 -119 113q-22 52 -27 121q-10 125 -80 125q-34 0 -56 -29.5t-32.5 -90t-14 -125.5t-3.5 -163h608v-827q0 -54 20 -112t54 -97l33 -39h-559l32 39q34 40 55 97.5
t21 111.5v579q0 52 -20 108.5t-52 96.5h-192v-784q0 -54 21 -111.5t55 -97.5l32 -39h-559l33 39q34 39 54 97t20 112v784h-107z" />
    <glyph glyph-name="fl.liga" unicode="fl" horiz-adv-x="1208" 
d="M508 1075h254v182q0 38 -4 54q-1 3 -2 8t-2 8q-9 44 -53.5 100t-86.5 56q-34 0 -56 -29.5t-32.5 -90t-14 -125.5t-3.5 -163zM57 1032v43h107q21 451 450 451q74 0 156 -21h336v-1257q0 -54 21 -111.5t55 -97.5l32 -39h-559l33 39q34 39 54 97t20 112v784h-254v-784
q0 -54 21 -111.5t55 -97.5l32 -39h-559l33 39q34 39 54 97t20 112v784h-107z" />
    <glyph glyph-name=".notdef" horiz-adv-x="1079" 
d="M205 1434h874v-1434h-874v1434zM262 1393l379 -633l381 633h-760zM616 717l-368 614v-1231zM643 674l-379 -631h758zM668 717l370 -621v1239z" />
    <glyph glyph-name=".null" horiz-adv-x="0" 
 />
    <glyph glyph-name=".null" horiz-adv-x="0" 
 />
    <glyph glyph-name="nonmarkingreturn" horiz-adv-x="0" 
 />
    <glyph glyph-name="nonmarkingreturn.1" unicode="&#xa;" horiz-adv-x="0" 
 />
    <glyph glyph-name="space" unicode=" " horiz-adv-x="739" 
 />
    <glyph glyph-name="exclam" unicode="!" horiz-adv-x="540" 
d="M356 -20q-86 0 -133 44t-47 119t47 119.5t133 44.5q85 0 133 -44.5t48 -119.5t-48 -119t-133 -44zM530 1505v-270q0 -185 -39.5 -402.5t-105.5 -390.5l-4 -12h-43l-4 12q-66 174 -107 391.5t-41 401.5v270h344z" />
    <glyph glyph-name="quotedbl" unicode="&#x22;" horiz-adv-x="657" 
d="M653 1503q-28 -72 -41 -164q-25 -234 -51 -335l-20 -70h-23l-20 70q-23 75 -54 335q-13 91 -38 164l-5 2h252v-2zM375 1503q-31 -73 -41 -164q-30 -254 -51 -335l-23 -70h-20l-23 70q-26 101 -51 335q-11 76 -41 164l-2 2h252v-2z" />
    <glyph glyph-name="numbersign" unicode="#" horiz-adv-x="1536" 
d="M594 557h387l70 387h-387zM467 82l76 432h-432l8 43h432l70 387h-433l7 43h432l78 434h43l-78 -434h387l78 434h43l-78 -434h434l-6 -43h-434l-70 -387h434l-8 -43h-434l-76 -432h-43l76 432h-387l-76 -432h-43z" />
    <glyph glyph-name="dollar" unicode="$" horiz-adv-x="1327" 
d="M662 563v-520h20q98 0 162.5 56.5t64.5 152.5q0 94 -64 166.5t-183 144.5zM618 989v494h-14q-88 0 -143 -52t-55 -143q0 -89 55.5 -160.5t156.5 -138.5zM618 590q-28 16 -89.5 50.5t-94 53.5t-86.5 54t-84 60.5t-68 64.5t-58 75t-34 83t-14 97q0 178 147.5 287t380.5 111
v221h44v-221q195 -7 334 -94.5t192 -231.5q48 -136 -10 -219q-43 -62 -120 -59q-89 4 -156 95q-53 73 -75 185q0 2 -4 25.5t-5.5 30t-7 30.5t-9.5 34.5t-12 32t-15.5 33t-19.5 28t-25 26.5t-30.5 20t-36.5 15v-516q36 -22 93 -54.5t97.5 -55t93 -56t89.5 -62t75 -67
t61.5 -77t38.5 -86.5t15 -100q0 -178 -155 -287.5t-408 -115.5v-223h-44v223q-205 3 -340 80t-188 229q-51 144 6 231q42 64 118 62q87 -2 154 -91q54 -72 76 -185q1 -4 6.5 -32t8 -40t10.5 -39.5t15.5 -43t21 -38.5t28.5 -37t36.5 -27t47.5 -20v541z" />
    <glyph glyph-name="percent" unicode="%" horiz-adv-x="1550" 
d="M1067 432q0 -180 36.5 -293.5t102.5 -113.5t106 115t40 296q0 187 -41.5 305.5t-102.5 118.5q-62 0 -101.5 -118t-39.5 -310zM870 444q0 196 94.5 319.5t243.5 123.5q148 0 244 -124.5t96 -324.5q0 -197 -92 -317.5t-242 -120.5q-151 0 -247.5 123.5t-96.5 320.5z
M336 1075q0 -181 36.5 -295t102.5 -114t106 115t40 298q0 187 -41.5 305.5t-102.5 118.5q-62 0 -101.5 -118t-39.5 -310zM479 0l645 1505h74l-645 -1505h-74zM139 1087q0 196 94.5 319.5t243.5 123.5q148 0 244 -124.5t96 -324.5q0 -197 -92 -317.5t-242 -120.5
q-151 0 -247.5 123.5t-96.5 320.5z" />
    <glyph glyph-name="ampersand" unicode="&#x26;" horiz-adv-x="1710" 
d="M1024 162q-141 129 -279.5 287.5t-234.5 312.5q-35 -61 -35 -197q0 -116 33.5 -211t85.5 -151.5t110.5 -86.5t114.5 -30q96 0 205 76zM768 999q127 88 127 256q0 102 -38 176t-89 74q-44 0 -65 -54t-21 -130q0 -145 86 -322zM1161 819h301l-94 -157q-16 -25 -33.5 -61
t-29.5 -64t-31.5 -74t-28.5 -68q53 -53 120 -114.5t102.5 -93t120.5 -105t95 -82.5h-473q-50 41 -147 127q-181 -147 -457 -147q-224 0 -349.5 95t-125.5 257q0 52 14.5 102t34 88.5t54 79t60.5 66t68.5 57.5t62 45t56.5 37q-123 209 -123 360q0 157 122 258t306 101
q147 0 235.5 -65t88.5 -173q0 -37 -10 -70t-32 -61t-43.5 -50t-56.5 -45t-59 -37.5t-63.5 -36t-57.5 -32.5q122 -224 396 -501q36 142 14 229z" />
    <glyph glyph-name="quotesingle" unicode="'" horiz-adv-x="376" 
d="M375 1503q-31 -73 -41 -164q-30 -254 -51 -335l-23 -70h-20l-23 70q-26 101 -51 335q-11 76 -41 164l-2 2h252v-2z" />
    <glyph glyph-name="parenleft" unicode="(" horiz-adv-x="655" 
d="M795 -86v-20q-77 20 -157.5 61.5t-167 116t-153.5 168t-110 229t-43 289.5q0 318 171.5 547.5t459.5 306.5v-21q-287 -80 -287 -868q0 -358 66 -561.5t221 -247.5z" />
    <glyph glyph-name="parenright" unicode=")" horiz-adv-x="655" 
d="M-115 -106v20q155 44 221 247.5t66 561.5q0 788 -287 868v21q288 -77 459.5 -306.5t171.5 -547.5q0 -111 -22.5 -213t-61 -182t-90.5 -150.5t-109 -121.5t-119.5 -92t-119 -66t-109.5 -39z" />
    <glyph glyph-name="asterisk" unicode="*" horiz-adv-x="550" 
d="M285 1075l53 215l-162 -151l-53 96l215 55l-213 62l53 96l160 -158l-53 215h106l-53 -215l162 154l51 -96l-213 -58l213 -65l-55 -90l-158 155l53 -215h-106z" />
    <glyph glyph-name="plus" unicode="+" horiz-adv-x="1187" 
d="M600 100v547h-547v43h547v545h43v-545h543v-43h-543v-547h-43z" />
    <glyph glyph-name="comma" unicode="," horiz-adv-x="483" 
d="M119 141q0 76 47 121t133 45q85 0 132.5 -44.5t47.5 -119.5q0 -111 -75.5 -202.5t-186.5 -126.5l-16 30q15 10 44 27.5t42.5 27t33 25t32.5 32t24 36.5q-35 -12 -78 -12q-86 0 -133 43.5t-47 117.5z" />
    <glyph glyph-name="hyphenminus" unicode="-" horiz-adv-x="1196" 
d="M1194 647h-1133v43h1133v-43z" />
    <glyph glyph-name="period" unicode="." horiz-adv-x="481" 
d="M299 -20q-86 0 -133 44t-47 119t47 119.5t133 44.5q85 0 132.5 -44.5t47.5 -119.5t-47.5 -119t-132.5 -44z" />
    <glyph glyph-name="slash" unicode="/" horiz-adv-x="561" 
d="M86 -53l432 1612h43l-432 -1612h-43z" />
    <glyph glyph-name="zero" unicode="0" horiz-adv-x="1353" 
d="M512 733q0 -206 27 -365t82.5 -253.5t132.5 -94.5q76 0 134.5 92.5t90 256.5t31.5 374q0 327 -73 533.5t-179 206.5q-107 0 -176.5 -206.5t-69.5 -543.5zM168 760q0 341 165.5 553.5t424.5 212.5q128 0 238 -56t189 -156.5t124 -247.5t45 -321q0 -343 -162 -554
t-422 -211q-130 0 -241.5 57t-191 158.5t-124.5 247.5t-45 317z" />
    <glyph glyph-name="one" unicode="1" horiz-adv-x="712" 
d="M682 39l33 -39h-559l32 39q34 39 54 97t20 112v903q0 53 -20 110.5t-54 98.5l-32 37q196 0 289 22.5t161 85.5v-1257q0 -54 21 -111.5t55 -97.5z" />
    <glyph glyph-name="two" unicode="2" horiz-adv-x="1292" 
d="M1122 406l31 26v-432h-1092q79 135 198 290t221 275.5t196.5 243.5t149.5 239.5t55 217.5q0 105 -54.5 161t-144.5 56q-30 0 -56 -6t-45.5 -20t-35 -27t-27.5 -36t-20 -38t-15 -42.5t-10 -40t-8 -39.5t-6 -32q-35 -179 -141 -249q-78 -51 -151 -20q-69 29 -85 112
q-13 69 18 155q54 152 202.5 239t359.5 87q237 0 385.5 -112t148.5 -304q0 -90 -36 -168.5t-96.5 -137t-135 -109.5t-157 -96t-156.5 -86t-139 -89.5t-99 -97.5h520q56 0 117 22t108 58z" />
    <glyph glyph-name="three" unicode="3" horiz-adv-x="1409" 
d="M1317 426q0 -129 -86.5 -231.5t-233.5 -158.5t-325 -56q-224 0 -374.5 86.5t-205.5 238.5q-48 137 10 220q44 62 120 59q89 -4 155 -93q52 -72 74 -182q1 -6 5.5 -30t7 -35.5t9 -37t12.5 -39.5t16.5 -36.5t22.5 -35.5t29 -29.5t37 -25t46 -14.5t56 -6q126 0 203.5 91
t77.5 233q0 99 -39.5 178.5t-105 128.5t-146 75t-166.5 26v43q186 0 279.5 92t93.5 284q0 141 -51.5 226.5t-163.5 85.5q-27 0 -51 -6t-42 -14.5t-34 -24.5t-26.5 -29t-21 -35t-16 -36.5t-11.5 -39.5t-8.5 -36.5t-7 -35.5t-5.5 -30q-34 -176 -138 -244q-76 -51 -149 -20
q-69 29 -85 113q-14 70 17 159q39 110 130.5 184.5t204.5 106t247 31.5q251 0 403 -109t152 -291q0 -114 -62.5 -205t-171.5 -135q144 -29 231 -129t87 -231z" />
    <glyph glyph-name="four" unicode="4" horiz-adv-x="1351" 
d="M244 430h667v709zM180 387v43l1010 1075h65v-1075h107v-43h-107v-139q0 -54 21 -111.5t55 -97.5l31 -39h-559l33 39q34 40 54.5 97.5t20.5 111.5v139h-731z" />
    <glyph glyph-name="five" unicode="5" horiz-adv-x="1282" 
d="M1077 1073l-30 27q-46 36 -108 58t-118 22h-620v-334q218 61 401 61q145 0 259 -39t183.5 -106.5t105.5 -153.5t36 -186q0 -210 -148 -326t-389 -116q-210 0 -358.5 86.5t-202.5 238.5q-48 136 10 219q43 62 120 59q89 -4 156 -95q53 -73 75 -185q19 -103 34 -143
q53 -140 189 -140q198 0 198 283q0 40 -3.5 77.5t-17.5 90t-36.5 96.5t-64 89.5t-97 77t-140 51.5t-187.5 20q-80 0 -166 -12v712h919v-432z" />
    <glyph glyph-name="six" unicode="6" horiz-adv-x="1280" 
d="M754 846q-103 0 -166.5 -110t-63.5 -294q0 -180 62.5 -301t167.5 -121q182 0 182 422q0 87 -8 155t-27.5 126.5t-56.5 90.5t-90 32zM745 -20q-123 0 -228 49.5t-183 143t-122 239t-44 327.5q0 358 158.5 572.5t414.5 214.5q155 0 282.5 -79t180.5 -230q52 -146 -8 -234
q-44 -65 -121 -64q-86 1 -150 86q-49 64 -69 164q-6 27 -12.5 78t-12.5 86.5t-17 72.5t-29.5 57t-45.5 20q-43 0 -84 -53t-72.5 -146t-51 -232t-19.5 -300v-64q75 219 322 219q121 0 221 -49t162.5 -147t62.5 -228q0 -140 -71.5 -256t-194 -181.5t-269.5 -65.5z" />
    <glyph glyph-name="seven" unicode="7" horiz-adv-x="1204" 
d="M160 1100l-33 -27v432h1049q-219 -375 -357.5 -802t-138.5 -703h-318q0 485 607 1180h-586q-56 0 -117 -22t-106 -58z" />
    <glyph glyph-name="eight" unicode="8" horiz-adv-x="1392" 
d="M508 412q0 -178 76 -285t200 -107q121 0 193 101.5t72 273.5q0 181 -75.5 290.5t-197.5 109.5q-119 0 -193.5 -105.5t-74.5 -277.5zM571 1167q0 -144 53.5 -236.5t141.5 -92.5q92 0 154.5 98.5t62.5 241.5q0 138 -59 221.5t-152 83.5q-92 0 -146.5 -85t-54.5 -231z
M164 406q0 153 108.5 262t298.5 149q-159 38 -251.5 131.5t-92.5 216.5q0 106 72.5 189t198.5 127.5t284 44.5q244 0 394.5 -101t150.5 -258q0 -122 -94 -214.5t-252 -131.5q191 -37 301.5 -145t110.5 -260q0 -195 -172 -315.5t-449 -120.5q-271 0 -439.5 117t-168.5 309z
" />
    <glyph glyph-name="nine" unicode="9" horiz-adv-x="1280" 
d="M649 659q102 0 166 110.5t64 293.5q0 117 -27 211.5t-80 151.5t-123 57q-182 0 -182 -420q0 -87 8 -155t27.5 -126.5t56.5 -90.5t90 -32zM655 1526q124 0 229 -49.5t183.5 -143.5t123 -239.5t44.5 -327.5q0 -357 -160 -571.5t-416 -214.5q-100 0 -189 32.5t-162.5 103.5
t-108.5 173q-52 146 8 234q44 65 121 64q86 -2 151 -87q48 -64 68 -164q5 -26 11.5 -78t12.5 -87t16.5 -73t30 -58t46.5 -20q43 0 84 53.5t72.5 147t51 232.5t19.5 299v65q-75 -219 -324 -219q-120 0 -219.5 48.5t-162 147t-62.5 228.5q0 213 154.5 358.5t377.5 145.5z" />
    <glyph glyph-name="colon" unicode=":" horiz-adv-x="509" 
d="M328 -20q-86 0 -133.5 44t-47.5 119t47.5 119.5t133.5 44.5q85 0 132.5 -44.5t47.5 -119.5t-47.5 -119t-132.5 -44zM328 795q-86 0 -133.5 45.5t-47.5 120.5t47.5 119t133.5 44q85 0 132.5 -44t47.5 -119t-47.5 -120.5t-132.5 -45.5z" />
    <glyph glyph-name="semicolon" unicode=";" horiz-adv-x="512" 
d="M328 -20q-86 0 -133.5 44t-47.5 117q0 76 47.5 121t133.5 45q85 0 132.5 -44.5t47.5 -119.5q0 -111 -75.5 -202.5t-186.5 -126.5l-17 30q15 10 43.5 27.5t43 27t34 25t32.5 32t24 36.5q-34 -12 -78 -12zM328 795q-86 0 -133.5 45.5t-47.5 120.5t47.5 119t133.5 44
q85 0 132.5 -44t47.5 -119t-47.5 -120.5t-132.5 -45.5z" />
    <glyph glyph-name="less" unicode="&#x3c;" horiz-adv-x="1204" 
d="M115 817l1077 430v-129l-916 -366l916 -365v-129l-1077 430v129z" />
    <glyph glyph-name="equal" unicode="=" horiz-adv-x="1216" 
d="M82 498h1132v-43h-1132v43zM82 971h1132v-43h-1132v43z" />
    <glyph glyph-name="greater" unicode="&#x3e;" horiz-adv-x="1204" 
d="M1212 688l-1077 -430v129l916 365l-916 366v129l1077 -430v-129z" />
    <glyph glyph-name="question" unicode="?" horiz-adv-x="1243" 
d="M336 143q0 75 47.5 119.5t132.5 44.5t133.5 -44.5t48.5 -119.5q0 -74 -48.5 -118.5t-133.5 -44.5t-132.5 44t-47.5 119zM537 430h-43q0 77 18.5 146.5t47.5 123t64 103.5t70.5 98.5t64.5 98t47.5 111.5t18.5 130q0 122 -53.5 182t-144.5 60q-50 0 -89 -20.5t-60 -44
t-38 -68.5t-21.5 -66.5t-12.5 -65.5q-2 -11 -3 -16q-35 -179 -141 -249q-77 -51 -150 -21q-69 29 -86 112q-14 69 17 156q54 152 203 239t358 87q239 0 388 -112.5t149 -307.5q0 -88 -33.5 -155.5t-86.5 -109t-117.5 -74.5t-129 -63t-117.5 -63.5t-86.5 -87t-33.5 -123.5z
" />
    <glyph glyph-name="at" unicode="@" horiz-adv-x="1937" 
d="M1155 541h-47q-123 0 -197.5 -78.5t-74.5 -200.5q0 -87 38 -143t97 -56q76 0 130 97.5t54 277.5v103zM1604 57q117 0 201.5 156t84.5 375q0 170 -58 313t-165 245t-264.5 159t-349.5 57q-392 0 -617 -223.5t-225 -608.5q0 -384 226 -605.5t626 -221.5v-47
q-271 0 -475.5 109t-314 307.5t-109.5 459.5q0 195 63.5 358.5t178.5 277.5t281 177.5t366 63.5q197 0 363 -62.5t280 -173.5t177.5 -266.5t63.5 -337.5q0 -262 -122.5 -425.5t-319.5 -163.5q-69 0 -130 21t-102.5 53t-68 63.5t-39.5 60.5q-81 -198 -315 -198
q-156 0 -252 79.5t-96 200.5q0 79 44.5 142.5t118 102t160.5 59t178 20.5h162v123q0 172 -42.5 259t-106.5 87q-94 0 -136 -179q-38 -181 -127 -230q-60 -34 -112 9q-55 44 -54 134q0 24 5 49q22 116 127 188t288 72q85 0 159.5 -16.5t138 -53.5t108.5 -91.5t70.5 -134
t25.5 -177.5v-451q0 -53 28 -84t77 -31z" />
    <glyph glyph-name="A" unicode="A" horiz-adv-x="1449" 
d="M291 461h493l-241 596zM186 326l498 1179h47l477 -1179q48 -112 125 -199l115 -127h-631l31 100q17 54 14 114t-24 112l-37 92h-529l-39 -92q-21 -48 -24.5 -111.5t10.5 -114.5l29 -100h-305l118 129q73 80 125 197z" />
    <glyph glyph-name="B" unicode="B" horiz-adv-x="1363" 
d="M516 43h123q168 0 270.5 100.5t102.5 262.5q0 159 -101 252.5t-272 93.5h-123v-709zM516 795h39q166 0 269.5 97.5t103.5 244.5q0 146 -102 235.5t-271 89.5h-39v-667zM66 0l32 39q34 39 54 97t20 112v1009q0 54 -20 112t-54 97l-32 39h790q185 0 300.5 -108t115.5 -269
q0 -115 -62 -206.5t-170 -135.5q146 -29 231 -135t85 -262q0 -179 -113 -284t-303 -105h-874z" />
    <glyph glyph-name="C" unicode="C" horiz-adv-x="1308" 
d="M1321 455q-53 -156 -152.5 -265.5t-214.5 -159.5t-239 -50q-128 0 -243 56.5t-200.5 156t-135.5 246.5t-50 319q0 346 189.5 557t496.5 211q180 0 314 -78t188 -231q50 -145 -9 -234q-43 -65 -121 -64q-87 0 -151 85q-49 65 -69 165q-4 20 -10 64t-11 72t-16 65.5t-26 59
t-41 37.5t-60 16q-86 0 -162 -86t-122 -234t-46 -319q0 -177 49.5 -312.5t149 -213.5t235.5 -78q218 0 457 215z" />
    <glyph glyph-name="D" unicode="D" horiz-adv-x="1370" 
d="M516 43h80q71 0 130 19.5t113.5 69t91.5 128t59 203.5t22 289q0 710 -416 710h-80v-1419zM768 0h-702l32 39q34 39 54 97t20 112v1009q0 54 -20 112t-54 97l-32 39h702q56 0 111.5 -10.5t114.5 -36t110.5 -64.5t98.5 -99t80.5 -136t53 -180.5t19.5 -226.5
q0 -169 -37.5 -302.5t-97 -216t-139 -137t-157 -75.5t-157.5 -21z" />
    <glyph glyph-name="E" unicode="E" horiz-adv-x="1284" 
d="M635 731h-119v-688h189q120 0 243 51t207 135l92 93h43l-63 -322h-1161l32 39q34 39 54 97t20 112v1009q0 54 -20 112t-54 97l-32 39h1138l66 -323h-43l-92 94q-85 84 -209 135t-244 51h-166v-688h119q63 0 122 32.5t91 86.5l35 53h43v-387h-43l-35 53q-32 54 -91 86.5
t-122 32.5z" />
    <glyph glyph-name="F" unicode="F" horiz-adv-x="1226" 
d="M635 731h-119v-483q0 -54 21 -111.5t55 -97.5l33 -39h-559l32 39q34 39 54 97t20 112v1009q0 54 -20 112t-54 97l-32 39h1138l66 -323h-43l-92 94q-85 84 -209 135t-244 51h-166v-688h119q63 0 122 32.5t91 86.5l35 53h43v-387h-43l-35 53q-32 54 -91 86.5t-122 32.5z
" />
    <glyph glyph-name="G" unicode="G" horiz-adv-x="1370" 
d="M1057 113q-153 -133 -357 -133q-123 0 -235 56.5t-196 156t-133.5 247t-49.5 318.5q0 346 189.5 557t496.5 211q180 0 314 -78t188 -231q50 -145 -9 -234q-43 -65 -121 -64q-87 0 -151 85q-49 65 -69 165q-4 20 -10 64t-11 72t-16 65.5t-26 59t-41 37.5t-60 16
q-86 0 -162 -87t-122 -242.5t-46 -342.5q0 -288 108 -462.5t289 -174.5q53 0 109 16v336q0 54 -21 111.5t-55 97.5l-33 39h559l-32 -39q-34 -39 -54 -97t-20 -112v-526z" />
    <glyph glyph-name="H" unicode="H" horiz-adv-x="1464" 
d="M1432 39l30 -39h-559l33 39q34 40 55 97.5t21 111.5v483h-496v-483q0 -54 21 -111.5t55 -97.5l33 -39h-559l32 39q34 39 54 97t20 112v1009q0 54 -20 112t-54 97l-32 39h559l-33 -39q-34 -40 -55 -97.5t-21 -111.5v-483h496v483q0 54 -21 111.5t-55 97.5l-33 39h559
l-30 -39q-34 -40 -55 -97.5t-21 -111.5v-1009q0 -54 21 -111.5t55 -97.5z" />
    <glyph glyph-name="I" unicode="I" horiz-adv-x="624" 
d="M592 39l33 -39h-559l32 39q34 39 54 97t20 112v1009q0 54 -20 112t-54 97l-32 39h559l-33 -39q-34 -40 -55 -97.5t-21 -111.5v-1009q0 -54 21 -111.5t55 -97.5z" />
    <glyph glyph-name="J" unicode="J" horiz-adv-x="1210" 
d="M1096 1505l-33 -39q-34 -39 -54 -97t-20 -112v-616q0 -350 -123 -505.5t-403 -155.5q-203 0 -341 77t-192 232q-51 145 8 234q43 65 121 64q87 -1 151 -86q49 -65 69 -165q4 -20 11 -64t12 -72.5t17.5 -66t29 -59.5t45.5 -38t67 -16q47 0 80 23t53 63.5t31.5 110
t15.5 147.5t4 191v702q0 54 -21 111.5t-55 97.5l-32 39h559z" />
    <glyph glyph-name="K" unicode="K" horiz-adv-x="1406" 
d="M592 39l33 -39h-559l32 39q34 39 54 97t20 112v1009q0 54 -20 112t-54 97l-32 39h559l-33 -39q-34 -40 -55 -97.5t-21 -111.5v-403l328 350q37 38 63.5 94.5t32.5 110.5l12 96h361l-228 -151q-81 -49 -182 -150l-291 -313h148q87 0 159 -48.5t105 -127.5l164 -389
q49 -114 131 -193l143 -133h-395q-52 0 -98 29.5t-68 76.5l-321 750l-64 -68v-540q0 -54 21 -111.5t55 -97.5z" />
    <glyph glyph-name="L" unicode="L" horiz-adv-x="1251" 
d="M625 1505l-33 -39q-34 -40 -55 -97.5t-21 -111.5v-1214h189q120 0 243 51t207 135l92 93h43l-63 -322h-1161l32 39q34 39 54 97t20 112v1009q0 54 -20 112t-54 97l-32 39h559z" />
    <glyph glyph-name="M" unicode="M" horiz-adv-x="1808" 
d="M291 39l33 -39h-258l32 39q34 39 54 97t20 112v1009q0 54 -20 112t-54 97l-32 39h469l399 -1036l418 1036h454l-30 -39q-34 -40 -55 -97.5t-21 -111.5v-1009q0 -54 21 -111.5t55 -97.5l30 -39h-559l33 39q34 40 55 97.5t21 111.5v1149l-563 -1397h-48l-530 1372v-1124
q0 -54 21 -111.5t55 -97.5z" />
    <glyph glyph-name="N" unicode="N" horiz-adv-x="1263" 
d="M291 39l33 -39h-258l32 39q34 39 54 97t20 112v1009q0 54 -20 112t-54 97l-32 39h442l610 -901v653q0 54 -20 112t-54 97l-32 39h258l-33 -39q-34 -40 -55 -97.5t-21 -111.5v-1257h-43l-903 1325v-1077q0 -54 21 -111.5t55 -97.5z" />
    <glyph glyph-name="O" unicode="O" horiz-adv-x="1632" 
d="M426 752q0 -330 118.5 -531t313.5 -201q128 0 225.5 91t151 257t53.5 384t-53.5 384t-151 256.5t-225.5 90.5q-195 0 -313.5 -200.5t-118.5 -530.5zM82 752q0 349 213 561.5t563 212.5q230 0 406 -96t272 -272t96 -406t-96 -405.5t-272 -271t-406 -95.5
q-231 0 -407.5 95.5t-272.5 271t-96 405.5z" />
    <glyph glyph-name="P" unicode="P" horiz-adv-x="1339" 
d="M516 709h123q169 0 271 102.5t102 269.5q0 172 -102 276.5t-271 104.5h-123v-753zM592 39l33 -39h-559l32 39q34 39 54 97t20 112v1009q0 54 -20 112t-54 97l-32 39h874q188 0 302 -114t114 -301q0 -193 -114 -308.5t-302 -115.5h-424v-418q0 -54 21 -111.5t55 -97.5z
" />
    <glyph glyph-name="Q" unicode="Q" horiz-adv-x="1632" 
d="M596 150q114 -130 262 -130q138 0 234 101q-46 57 -126 92t-157 35q-128 0 -213 -98zM426 752q0 -366 141 -568q99 107 246 107q86 0 168 -37.5t139 -99.5q80 95 124 248.5t44 349.5q0 218 -53.5 384t-151 256.5t-225.5 90.5q-195 0 -313.5 -200.5t-118.5 -530.5zM82 752
q0 349 213 561.5t563 212.5q230 0 406 -96t272 -272t96 -406t-96 -405.5t-272 -271t-406 -95.5q-185 0 -328 57q-12 -47 -12 -92q0 -94 53 -170t136 -120.5t175 -67.5t181 -23q84 0 165.5 20.5t148 55.5t114.5 68.5t90 70.5q132 118 237 135q75 12 90 -36q10 -30 -10 -77
q-54 -129 -256 -226t-466 -97q-198 0 -357 57.5t-251.5 164t-92.5 243.5q0 51 19 110q-194 90 -303 272.5t-109 426.5z" />
    <glyph glyph-name="R" unicode="R" horiz-adv-x="1431" 
d="M516 709h123q169 0 271 102.5t102 269.5q0 172 -102 276.5t-271 104.5h-123v-753zM592 39l33 -39h-559l32 39q34 39 54 97t20 112v1009q0 54 -20 112t-54 97l-32 39h874q188 0 302 -114t114 -301q0 -193 -114 -308.5t-302 -115.5h-2q63 -18 112.5 -61t73.5 -105l66 -174
q20 -51 55.5 -103.5t73.5 -89.5l143 -133h-395q-52 0 -97 30.5t-67 80.5l-231 555h-156v-418q0 -54 21 -111.5t55 -97.5z" />
    <glyph glyph-name="S" unicode="S" horiz-adv-x="1257" 
d="M840 252q0 59 -28 112t-75.5 95t-109 82t-129.5 77.5t-136 76.5t-129.5 84.5t-109 95t-75.5 115t-28 138.5q0 180 150 289t387 109q209 0 358 -87t203 -239q48 -136 -10 -219q-43 -63 -120 -59q-88 4 -155 95q-53 73 -75 185q-19 103 -34 143q-54 138 -189 138
q-88 0 -143.5 -52.5t-55.5 -142.5q0 -61 28 -116t75.5 -98t109 -84t129.5 -79t135.5 -77.5t129 -84.5t109 -94.5t75.5 -114t28 -137.5q0 -182 -162 -292.5t-426 -110.5q-439 0 -547 309q-51 143 6 231q42 64 118 62q87 -1 154 -89q54 -73 77 -187q1 -6 5.5 -29.5t7 -35
t8.5 -36t12 -38.5t16.5 -36t22 -35t29 -28.5t36.5 -24t45 -14.5t55 -6q98 0 163 56.5t65 152.5z" />
    <glyph glyph-name="T" unicode="T" horiz-adv-x="1335" 
d="M903 39l33 -39h-559l33 39q34 40 54.5 97.5t20.5 111.5v1208q-102 -15 -202 -63.5t-168 -116.5l-92 -94h-43l63 323h1227l63 -323h-43l-92 94q-69 69 -168 117t-201 63v-1208q0 -54 20 -112t54 -97z" />
    <glyph glyph-name="U" unicode="U" horiz-adv-x="1357" 
d="M705 -20q-254 0 -410 157t-156 416v704q0 55 -20 112.5t-53 96.5l-33 39h559l-33 -39q-34 -40 -55 -97.5t-21 -111.5v-745q0 -208 101 -328.5t252 -120.5q71 0 136.5 30t118 87t84 148t31.5 204v725q0 55 -20 112.5t-53 96.5l-33 39h258l-33 -39q-34 -40 -55 -97.5
t-21 -111.5v-704q0 -259 -146.5 -416t-397.5 -157z" />
    <glyph glyph-name="V" unicode="V" horiz-adv-x="1439" 
d="M1196 1180l-498 -1180h-47l-477 1180q-47 110 -125 198l-115 127h631l-30 -100q-17 -54 -14 -113.5t24 -111.5l295 -731l309 731q20 51 24 112t-10 113l-28 100h305l-119 -129q-83 -90 -125 -196z" />
    <glyph glyph-name="W" unicode="W" horiz-adv-x="1937" 
d="M512 1178l199 -633l190 563l-22 70q-37 109 -111 204l-98 123h602l-31 -100q-32 -112 2 -227l199 -633l215 633q17 50 18.5 112.5t-12.5 114.5l-29 100h303l-116 -129q-82 -89 -119 -198l-397 -1178h-48l-333 1038l-351 -1038h-47l-379 1178q-38 112 -110 204l-98 123
h602l-31 -100q-32 -112 2 -227z" />
    <glyph glyph-name="X" unicode="X" horiz-adv-x="1472" 
d="M1126 1190l-241 -381l293 -494q71 -113 149 -180l146 -135h-658l10 96q6 54 -6.5 114.5t-40.5 104.5l-200 338l-213 -338q-28 -44 -45 -104.5t-19 -114.5l-2 -96h-332l189 143q42 32 85.5 79.5t71.5 92.5l242 381l-293 494q-71 113 -149 180l-146 135h658l-11 -96
q-6 -54 7 -114.5t41 -104.5l200 -338l213 338q28 44 45 104.5t19 114.5l2 96h332l-189 -143q-95 -72 -158 -172z" />
    <glyph glyph-name="Y" unicode="Y" horiz-adv-x="1429" 
d="M621 1190l208 -354l209 354q27 43 43.5 103.5t18.5 115.5l2 96h330l-189 -143q-91 -69 -156 -172l-231 -397l-2 -5v-540q0 -54 20 -112t54 -97l33 -39h-560l33 39q34 40 55 97.5t21 111.5v452l-289 490q-68 108 -149 180l-146 135h658l-11 -96q-6 -54 7 -114.5t41 -104.5
z" />
    <glyph glyph-name="Z" unicode="Z" horiz-adv-x="1290" 
d="M1161 0h-1161l864 1462h-190q-120 0 -244 -51t-209 -135l-92 -94h-43l64 323h1140l-864 -1462h213q120 0 244 51.5t207 134.5l92 93h43z" />
    <glyph glyph-name="bracketleft" unicode="[" horiz-adv-x="544" 
d="M702 -63v-43h-501v1718h501v-43h-157v-1632h157z" />
    <glyph glyph-name="backslash" unicode="\" horiz-adv-x="602" 
d="M100 1559l500 -1612h-43l-500 1612h43z" />
    <glyph glyph-name="bracketright" unicode="]" horiz-adv-x="544" 
d="M-115 -106v43h158v1632h-158v43h502v-1718h-502z" />
    <glyph glyph-name="asciicircum" unicode="^" horiz-adv-x="647" 
d="M389 1505l258 -405h-141l-135 243l-135 -243h-142l258 405h37z" />
    <glyph glyph-name="underscore" unicode="_" horiz-adv-x="1083" 
d="M1081 -76h-880v43h880v-43z" />
    <glyph glyph-name="grave" unicode="`" horiz-adv-x="389" 
d="M352 1290l-258 170l142 129l151 -299h-35z" />
    <glyph glyph-name="a" unicode="a" horiz-adv-x="1167" 
d="M737 541h-47q-123 0 -197.5 -78.5t-74.5 -200.5q0 -87 38 -143t97 -56q76 0 130 97.5t54 277.5v103zM1163 33l27 -33h-453v178q-81 -198 -315 -198q-156 0 -252 79.5t-96 200.5q0 79 45 142.5t118.5 102t161 59t179.5 20.5h159v123q0 173 -42 259.5t-107 86.5
q-97 0 -133 -179q-39 -181 -129 -231q-61 -34 -114 8q-55 43 -55 130q0 24 5 48q24 118 137.5 192.5t292.5 74.5q103 0 189.5 -27.5t154.5 -82.5t106.5 -148t38.5 -215v-367q0 -57 22.5 -118.5t59.5 -104.5z" />
    <glyph glyph-name="b" unicode="b" horiz-adv-x="1148" 
d="M418 135q24 -6 49 -6q125 0 198.5 133t73.5 369q0 180 -42.5 279.5t-108.5 99.5t-118 -98t-52 -275v-502zM74 0v1257q0 54 -20 112t-54 97l-33 39h451v-602q78 193 272 193q172 0 282.5 -150.5t110.5 -382.5q0 -131 -39 -242t-105 -185t-153 -115t-184 -41
q-153 0 -274 100z" />
    <glyph glyph-name="c" unicode="c" 
d="M702 172q65 0 156 35t195 129q-30 -68 -70.5 -126.5t-97.5 -112.5t-135.5 -85.5t-167.5 -31.5q-100 0 -190 40.5t-156.5 112t-106 177t-39.5 227.5q0 249 147 404t373 155q158 0 268 -75.5t132 -191.5q19 -98 -31 -159q-43 -53 -103 -38q-76 18 -125 134q-19 47 -32 108
q-42 179 -121 179q-69 0 -116.5 -124.5t-47.5 -307.5q0 -214 70 -331.5t198 -117.5z" />
    <glyph glyph-name="d" unicode="d" horiz-adv-x="1189" 
d="M596 63q67 0 118.5 98.5t51.5 276.5v172q0 381 -131 381q-83 0 -136 -146t-53 -372q0 -198 42.5 -304t107.5 -106zM1186 39l33 -39h-453v172q-74 -192 -270 -192q-173 0 -283.5 152t-110.5 394q0 253 119.5 411.5t304.5 158.5q176 0 240 -160v321q0 54 -20 112t-54 97
l-33 39h451v-1257q0 -54 21 -111.5t55 -97.5z" />
    <glyph glyph-name="e" unicode="e" 
d="M434 621v-5h262q4 221 -28.5 329t-92.5 108q-65 0 -103 -118t-38 -314zM700 172q172 0 353 164q-30 -68 -70.5 -126.5t-97.5 -112.5t-135.5 -85.5t-167.5 -31.5q-100 0 -190 40.5t-156.5 112t-106 177t-39.5 227.5q0 123 39.5 228.5t107 177.5t158.5 112.5t193 40.5
q189 0 305.5 -131t116.5 -349v-43h-576q8 -192 77 -296.5t189 -104.5z" />
    <glyph glyph-name="f" unicode="f" horiz-adv-x="768" 
d="M57 1032v43h107q21 451 450 451q157 0 258 -68.5t123 -165.5q20 -88 -37 -139q-50 -45 -118 -29q-80 20 -119 113q-22 52 -27 121q-10 125 -80 125q-34 0 -56 -29.5t-32.5 -90t-14 -125.5t-3.5 -163h297v-43h-297v-784q0 -54 21 -111.5t55 -97.5l32 -39h-559l33 39
q34 39 54 97t20 112v784h-107z" />
    <glyph glyph-name="g" unicode="g" horiz-adv-x="1245" 
d="M401 -76q6 -11 9 -28q10 -38 33 -82t60.5 -91.5t95 -78.5t122.5 -31q90 0 154.5 53t64.5 133q0 46 -24.5 74.5t-62 40t-96.5 15t-112 1t-124.5 -5t-119.5 -0.5zM438 694q0 -159 64.5 -265.5t163.5 -106.5t163 105t64 265q0 162 -64.5 261.5t-164.5 99.5
q-99 0 -162.5 -100t-63.5 -259zM94 696q0 179 155.5 289.5t407.5 110.5q121 0 189.5 12.5t91.5 33t23 54.5q0 33 -19 49.5t-57 26.5q-92 20 -105 75q-11 44 34 79q61 46 156 23q5 -1 11 -3q70 -22 109.5 -71t39.5 -113q0 -155 -245 -193q161 -42 256.5 -141.5t95.5 -233.5
q0 -180 -160.5 -297.5t-412.5 -117.5h-9q-95 0 -145.5 -14.5t-50.5 -39.5q0 -23 44 -28.5t114 -0.5t155 11t170 -0.5t155 -27.5t114 -76.5t44 -141.5q0 -173 -161 -282t-414 -109q-199 0 -338 67t-184 181q-41 112 35 170q-50 50 -50 131q0 98 66.5 141.5t210.5 54.5
q-152 50 -239 150.5t-87 230.5z" />
    <glyph glyph-name="h" unicode="h" horiz-adv-x="1353" 
d="M1249 756v-508q0 -54 21 -111.5t55 -97.5l31 -39h-559l32 39q34 40 55 97.5t21 111.5v399q0 303 -170 303q-104 0 -171.5 -111.5t-67.5 -289.5v-301q0 -54 20.5 -111.5t54.5 -97.5l33 -39h-559l33 39q34 39 54 97t20 112v1009q0 54 -20 112t-54 97l-33 39h451v-706
q54 140 165 218.5t257 78.5q161 0 246 -92.5t85 -247.5z" />
    <glyph glyph-name="i" unicode="i" horiz-adv-x="610" 
d="M584 39l32 -39h-559l33 39q34 39 54 97t20 112v579q0 54 -20 112t-54 97l-33 39h451v-827q0 -54 21 -111.5t55 -97.5zM104 1319q0 95 61 151t169 56q109 0 170 -56t61 -151t-61 -152t-170 -57q-107 0 -168.5 57t-61.5 152z" />
    <glyph glyph-name="j" unicode="j" horiz-adv-x="563" 
d="M-354 1036l-33 39h453v-1032q0 -249 -115 -371.5t-336 -122.5q-157 0 -258 68.5t-123 165.5q-20 88 37 139q50 45 118 29q80 -20 119 -113q22 -52 27 -121q10 -125 80 -125q18 0 32.5 8t25.5 25.5t19 38.5t13 53t8.5 63t5 74.5t2 81.5t0.5 89v802q0 54 -20.5 111.5
t-54.5 97.5zM-340 1319q0 95 61 151t170 56q108 0 169 -56t61 -151t-61.5 -152t-168.5 -57q-109 0 -170 57t-61 152z" />
    <glyph glyph-name="k" unicode="k" horiz-adv-x="1302" 
d="M571 39l33 -39h-559l33 39q34 39 54 97t20 112v1009q0 54 -20 112t-54 97l-33 39h451v-905l311 264q43 37 63.5 94t8.5 113v4h325l-123 -69q-105 -56 -209 -142l-274 -233h156q88 0 159 -49.5t99 -130.5l51 -125q17 -50 52 -103t75 -90l143 -133h-395q-54 0 -98 30
t-66 81l-205 495l-73 -61v-297q0 -54 20.5 -111.5t54.5 -97.5z" />
    <glyph glyph-name="l" unicode="l" horiz-adv-x="604" 
d="M571 39l33 -39h-559l33 39q34 39 54 97t20 112v1009q0 54 -20 112t-54 97l-33 39h451v-1257q0 -54 20.5 -111.5t54.5 -97.5z" />
    <glyph glyph-name="m" unicode="m" horiz-adv-x="1822" 
d="M1722 756v-508q0 -54 20 -112t54 -97l33 -39h-559l33 39q34 40 54.5 97.5t20.5 111.5v399q0 151 -19.5 227t-72.5 76q-72 0 -121 -115t-49 -286v-301q0 -54 20 -112t54 -97l33 -39h-559l32 39q34 40 55 97.5t21 111.5v399q0 151 -19.5 227t-74.5 76q-71 0 -120.5 -115.5
t-49.5 -285.5v-301q0 -54 21 -111.5t55 -97.5l32 -39h-559l33 39q34 39 54 97t20 112v579q0 54 -20 112t-54 97l-33 39h451v-254q46 129 135.5 202t206.5 73q116 0 184 -72.5t80 -210.5q45 133 134.5 208t209.5 75q126 0 195 -87t69 -253z" />
    <glyph glyph-name="n" unicode="n" horiz-adv-x="1359" 
d="M1262 756v-508q0 -54 20.5 -111.5t54.5 -97.5l31 -39h-559l33 39q34 40 55 97.5t21 111.5v399q0 303 -170 303q-104 0 -172 -111.5t-68 -289.5v-301q0 -54 21 -111.5t55 -97.5l32 -39h-559l33 39q34 39 54 97t20 112v579q0 54 -20 112t-54 97l-33 39h451v-276
q54 140 165 218.5t257 78.5q161 0 246.5 -93t85.5 -247z" />
    <glyph glyph-name="o" unicode="o" horiz-adv-x="1314" 
d="M430 537q0 -235 71.5 -376t198.5 -141q126 0 198.5 141t72.5 376q0 236 -72.5 376t-198.5 140q-127 0 -198.5 -140t-71.5 -376zM86 537q0 256 162.5 407.5t451.5 151.5q288 0 451.5 -152t163.5 -407q0 -254 -163.5 -405.5t-451.5 -151.5q-289 0 -451.5 151.5
t-162.5 405.5z" />
    <glyph glyph-name="p" unicode="p" horiz-adv-x="1187" 
d="M625 84q83 0 135.5 145.5t52.5 372.5q0 199 -42.5 303.5t-108.5 104.5t-118 -98t-52 -275v-172q0 -65 5 -122t17.5 -120.5t41 -101t69.5 -37.5zM567 -391l33 -39h-559l33 39q33 39 53 96.5t20 112.5v1009q0 55 -20 112.5t-53 96.5l-33 39h451v-172q78 193 272 193
q172 0 282.5 -152.5t110.5 -394.5q0 -253 -119.5 -411t-304.5 -158q-174 0 -241 159v-321q0 -54 20.5 -111.5t54.5 -97.5z" />
    <glyph glyph-name="q" unicode="q" horiz-adv-x="1148" 
d="M762 958q-36 9 -51 9q-122 0 -195.5 -142t-73.5 -381q0 -179 43 -280t107 -101q67 0 118.5 98.5t51.5 276.5v520zM762 -174v346q-74 -192 -270 -192q-172 0 -283 150t-111 382q0 131 39 242.5t105 185.5t153.5 115t184.5 41q151 0 274 -101l252 80v-1257q0 -54 21 -111.5
t55 -97.5l32 -39h-559l27 33q36 42 58 103.5t22 119.5z" />
    <glyph glyph-name="r" unicode="r" horiz-adv-x="1081" 
d="M584 39l32 -39h-559l33 39q34 39 54 97t20 112v579q0 54 -20 112t-54 97l-33 39h451v-231q40 120 113.5 186t173.5 66q104 0 186.5 -68t103.5 -178q20 -111 -34 -179q-44 -56 -106 -42q-72 15 -118 121q-17 41 -28 92q-29 147 -115 147q-82 0 -129 -115.5t-47 -336.5
v-289q0 -54 21 -111.5t55 -97.5z" />
    <glyph glyph-name="s" unicode="s" horiz-adv-x="991" 
d="M635 133q0 50 -30.5 98t-79 87.5t-107 80t-117.5 83.5t-107.5 89.5t-79 106.5t-30.5 127q0 133 110.5 212t294.5 79q182 0 297 -74.5t138 -192.5q19 -99 -31 -160q-44 -53 -105 -37q-77 20 -126 139q-19 45 -31 103q-36 179 -133 179q-43 0 -71 -35t-28 -84t30.5 -96.5
t79 -88t107 -82t117.5 -86t107.5 -90.5t79 -105t30.5 -122q0 -130 -117.5 -207t-314.5 -77q-193 0 -310.5 73.5t-141.5 192.5q-19 99 31 160q43 52 104 37q77 -19 125 -137q19 -46 32 -105q37 -181 164 -181q53 0 83 31t30 82z" />
    <glyph glyph-name="t" unicode="t" horiz-adv-x="970" 
d="M29 1032v43h106q141 0 221 81.5t80 229.5h43v-311h297v-43h-297v-577q0 -69 1 -117.5t4.5 -102.5t11 -89.5t19 -66t29.5 -45t42 -14.5q70 0 80 127q11 156 100 214q63 41 129 13q62 -26 74 -93q6 -32 -2 -68q-22 -96 -123 -164.5t-258 -68.5q-451 0 -451 493v559h-106z
" />
    <glyph glyph-name="u" unicode="u" horiz-adv-x="1306" 
d="M139 319v508q0 55 -20 112.5t-53 96.5l-33 39h450v-647q0 -147 40.5 -225t109.5 -78q89 0 152 112.5t63 288.5v301q0 54 -21 111.5t-55 97.5l-33 39h453v-827q0 -54 21 -111.5t55 -97.5l30 -39h-450v274q-54 -138 -159 -216t-238 -78q-148 0 -230 93t-82 246z" />
    <glyph glyph-name="v" unicode="v" horiz-adv-x="1257" 
d="M1049 834l-426 -834h-48l-397 827q-61 121 -151 199l-56 49h594l-8 -18q-26 -53 -26 -115t26 -115l215 -444l229 451q26 51 23.5 111t-33.5 106l-16 24h285l-56 -47q-96 -80 -155 -194z" />
    <glyph glyph-name="w" unicode="w" horiz-adv-x="1710" 
d="M537 823l143 -368l133 313l-22 55q-20 53 -59 109.5t-81 93.5l-57 49h586l-9 -18q-26 -53 -29 -116.5t19 -117.5l144 -368l157 374q22 52 16.5 114t-36.5 108l-15 24h283l-55 -47q-43 -37 -84 -92t-62 -107l-348 -829h-47l-278 709l-299 -709h-48l-321 823
q-20 54 -59 110t-82 93l-56 49h586l-10 -18q-25 -53 -28 -116t18 -118z" />
    <glyph glyph-name="x" unicode="x" horiz-adv-x="1284" 
d="M305 8l4 -8h-313l104 63q106 63 185 166l186 256l-233 357q-31 46 -78.5 96t-91.5 84l-72 53h666l-15 -24q-32 -46 -32.5 -104.5t30.5 -104.5l139 -211l156 213q34 46 43 107t-8 116l-4 8h313l-106 -65q-47 -27 -98 -73t-85 -91l-184 -254l233 -359q30 -45 77.5 -95.5
t92.5 -86.5l70 -51h-668l19 25q32 47 32.5 104.5t-30.5 103.5l-139 213l-158 -215q-34 -46 -43 -107t8 -116z" />
    <glyph glyph-name="y" unicode="y" horiz-adv-x="1257" 
d="M920 834l-426 -834q-120 -235 -155 -290q-67 -108 -135 -140q-45 -21 -106 -21q-121 0 -214 68.5t-115 155.5q-21 83 38 131q52 43 122 28q82 -17 119 -103q18 -42 22 -97q3 -23 7 -38t13 -36.5t27 -33t43 -11.5q22 0 42 9t43 34.5t40.5 49.5t47 77t50 93l61.5 120
q1 3 2 4l-397 827q-61 121 -151 199l-56 49h594l-8 -18q-26 -53 -26 -115t26 -115l215 -444l229 451q26 51 23.5 111t-33.5 106l-16 24h284l-55 -47q-96 -80 -155 -194z" />
    <glyph glyph-name="z" unicode="z" horiz-adv-x="1146" 
d="M709 1032h-29q-120 0 -244 -51.5t-207 -134.5l-94 -94h-43l66 323h987l-680 -1032h49q120 0 244 51t209 135l92 93h43l-66 -322h-1007z" />
    <glyph glyph-name="braceleft" unicode="{" horiz-adv-x="792" 
d="M788 84v-36q0 -93 8 -110q9 -17 47 -13q8 0 28 3q77 9 139 9v-43q-29 0 -88 -2q-71 1 -140 -1t-130 24.5t-107.5 74t-73.5 148.5t-27 249q0 68 -6 118.5t-23 98t-45.5 77t-76.5 47t-113 17.5v23q65 0 112.5 18t76.5 48.5t46 79t23 101.5t6 124q0 77 7.5 138t18.5 108.5
t35.5 82t46 59t64 40.5t75 25t93 13.5t104.5 5.5t122 1v-43q-57 0 -85.5 -0.5t-59.5 -4.5t-42 -9t-23 -19t-13.5 -29t-2.5 -43.5t-1 -59.5q1 -37 1 -58q0 -271 -68 -411.5t-235 -170.5q92 -9 151.5 -50t94 -127t48 -204t13.5 -299z" />
    <glyph glyph-name="bar" unicode="|" horiz-adv-x="362" 
d="M358 -317l2 -5h-192l2 5q27 56 41.5 141t17 145t2.5 150v946q0 278 -61 436l-2 4h192l-2 -4q-27 -57 -41.5 -142t-17 -144.5t-2.5 -149.5v-946q0 -90 2.5 -150t17 -145t41.5 -141z" />
    <glyph glyph-name="braceright" unicode="}" horiz-adv-x="792" 
d="M-258 -63q62 0 139 -9q62 -8 72 7t10 111v38q0 144 8.5 246.5t29 184.5t56 133t88 80t125.5 36q-167 30 -235 170.5t-68 411.5q0 22 1 60q1 94 -9 118q-14 33 -72 40q-36 5 -145 5v43q78 0 122 -1t104.5 -5.5t93 -13.5t74.5 -25t63.5 -40.5t46 -59t35.5 -82t18.5 -108.5
t7.5 -138q0 -71 6 -124t23 -101.5t46 -79t76.5 -48.5t112.5 -18v-23q-65 0 -113 -17.5t-76.5 -47t-45.5 -77t-23 -98t-6 -118.5q0 -148 -27 -249t-73 -148.5t-107.5 -74t-130 -24.5t-139.5 1q-59 2 -88 2v43z" />
    <glyph glyph-name="asciitilde" unicode="~" horiz-adv-x="841" 
d="M156 623h-37q5 292 209 292q55 0 108 -22t88 -48.5t80 -48.5t86 -22q107 0 113 123h37q-1 -39 -3.5 -66.5t-9.5 -67t-20.5 -67t-34.5 -53.5t-55.5 -39.5t-79.5 -13.5q-55 0 -109 22t-90.5 48.5t-83 48.5t-88.5 22q-53 0 -80.5 -30.5t-29.5 -77.5z" />
    <glyph glyph-name="nbspace" unicode="&#xa0;" horiz-adv-x="739" 
 />
    <glyph glyph-name="exclamdown" unicode="&#xa1;" horiz-adv-x="518" 
d="M510 -160v-270h-344v270q0 184 40.5 401.5t106.5 391.5l4 12h43l5 -12q66 -173 105.5 -390.5t39.5 -402.5zM156 934q0 74 47 118t133 44q85 0 132.5 -44.5t47.5 -117.5q0 -76 -47.5 -121t-132.5 -45q-86 0 -133 45t-47 121z" />
    <glyph glyph-name="cent" unicode="&#xa2;" horiz-adv-x="1112" 
d="M664 199v854q-69 0 -116.5 -124.5t-47.5 -307.5q0 -164 42 -272.5t122 -149.5zM664 1243h20v-147q155 -1 262 -76.5t129 -190.5q19 -98 -31 -159q-43 -53 -103 -38q-76 18 -125 134q-19 47 -32 108q-35 156 -100 175v-863q38 -14 84 -14q65 0 155.5 35t194.5 129
q-29 -65 -66.5 -121t-90 -108.5t-124 -85.5t-153.5 -39v-162h-20v160h-17q-100 0 -189.5 40.5t-156.5 112t-106 177t-39 227.5q0 246 143.5 400t364.5 159v147z" />
    <glyph glyph-name="sterling" unicode="&#xa3;" horiz-adv-x="1210" 
d="M152 688v43h106v301q0 249 115 371.5t336 122.5q157 0 258 -68.5t123 -165.5q20 -88 -37 -139q-50 -45 -118 -29q-81 19 -120 113q-22 52 -27 121q-10 125 -79 125q-24 0 -42 -14t-29.5 -44.5t-19 -65.5t-11 -88.5t-4.5 -102t-1 -117.5v-320h297v-43h-297v-645h37
q120 0 244 51t209 135l92 93h43l-66 -322h-1009l32 39q34 39 54 97t20 112v440h-106z" />
    <glyph glyph-name="currency" unicode="&#xa4;" horiz-adv-x="978" 
d="M205 752q0 -164 99 -263.5t263 -99.5q163 0 262 99.5t99 263.5t-99 263t-262 99q-164 0 -263 -99t-99 -263zM164 750q0 171 104 284l-112 113l16 16l113 -112q110 104 282 104q171 0 281 -104l113 112l16 -16l-113 -113q105 -115 105 -284q0 -172 -101 -281l109 -111
l-16 -16l-111 109q-112 -103 -283 -103q-172 0 -284 103l-111 -109l-16 16l110 111q-102 105 -102 281z" />
    <glyph glyph-name="yen" unicode="&#xa5;" horiz-adv-x="1685" 
d="M874 1190l209 -354l209 354q27 43 43.5 103.5t18.5 115.5l2 96h330l-189 -143q-91 -69 -156 -172l-231 -397l-2 -5v-184h391v-43h-391v-215h391v-43h-391v-55q0 -54 20 -112t54 -97l32 -39h-559l33 39q34 40 55 97.5t21 111.5v55h-399v43h399v215h-399v43h399v96
l-289 490q-68 108 -149 180l-146 135h658l-11 -96q-6 -54 6.5 -114.5t40.5 -104.5z" />
    <glyph glyph-name="brokenbar" unicode="&#xa6;" horiz-adv-x="362" 
d="M358 -317l2 -5h-192l2 5q41 83 62.5 197.5t21.5 197.5q0 84 -23.5 200t-60.5 211l-2 5h192l-2 -5q-41 -84 -62.5 -199.5t-21.5 -203.5t21.5 -203.5t62.5 -199.5zM358 692l2 -4h-192l2 4q41 85 62.5 199t21.5 196q0 85 -23.5 202t-60.5 212l-2 4h192l-2 -4
q-41 -85 -62.5 -200.5t-21.5 -204.5q0 -88 21.5 -203.5t62.5 -200.5z" />
    <glyph glyph-name="section" unicode="&#xa7;" horiz-adv-x="1124" 
d="M756 614q-8 25 -26 51t-33 43.5t-50.5 46t-51 39.5t-63 44t-59.5 41q6 -18 17.5 -36.5t23.5 -33.5t32.5 -34t34.5 -31.5t41.5 -33t42 -31t46.5 -33t45 -32.5zM700 133q0 50 -30.5 98t-79 87.5t-107 80t-117 83.5t-107 89.5t-79 106.5t-30.5 127q0 151 141 231
q-78 91 -78 199q0 133 111.5 212t296.5 79q181 0 295.5 -74t138.5 -192q19 -99 -31 -160q-44 -53 -105 -37q-77 20 -126 139q-19 45 -31 103q-36 178 -133 178q-44 0 -71.5 -35t-27.5 -84t30.5 -96.5t78.5 -88t106.5 -82t117.5 -86t107 -90.5t78.5 -105t30.5 -122
q0 -73 -38.5 -131.5t-110.5 -95.5q86 -99 86 -203q0 -130 -117.5 -207t-314.5 -77q-193 0 -311 73.5t-142 192.5q-19 99 31 160q44 53 105 37q77 -20 126 -139q19 -45 31 -103q37 -181 164 -181q53 0 82.5 31t29.5 82z" />
    <glyph glyph-name="dieresis" unicode="&#xa8;" horiz-adv-x="481" 
d="M399 1268q-37 0 -59.5 22.5t-22.5 59.5q0 35 22.5 57.5t59.5 22.5t59.5 -22.5t22.5 -57.5q0 -37 -22.5 -59.5t-59.5 -22.5zM184 1268q-37 0 -59.5 22.5t-22.5 59.5q0 35 22.5 57.5t59.5 22.5t59.5 -22.5t22.5 -57.5q0 -37 -22.5 -59.5t-59.5 -22.5z" />
    <glyph glyph-name="copyright" unicode="&#xa9;" horiz-adv-x="1708" 
d="M1065 387q63 0 153.5 35t196.5 129q-31 -69 -71.5 -127t-97.5 -113t-135 -86.5t-167 -31.5q-100 0 -189.5 41t-156.5 113t-106 177.5t-39 227.5q0 249 147 404t373 155q158 0 266.5 -75t132.5 -192q19 -99 -31 -160q-44 -52 -105 -36q-77 20 -126 139q-19 45 -31 103
q-36 178 -118 178q-70 0 -117 -124t-47 -308q0 -214 70 -331.5t198 -117.5zM934 1483q-217 0 -383 -90.5t-257 -256.5t-91 -384q0 -329 201.5 -530.5t529.5 -201.5t529.5 201.5t201.5 530.5q0 218 -91 384t-257 256.5t-383 90.5zM934 -20q-230 0 -406 96t-272 271.5
t-96 404.5q0 230 96 406t272 272t406 96t406 -96t272 -272t96 -406q0 -229 -96 -404.5t-272 -271.5t-406 -96z" />
    <glyph glyph-name="ordfeminine" unicode="&#xaa;" horiz-adv-x="933" 
d="M618 1128h-34q-88 0 -140.5 -54.5t-52.5 -139.5q0 -63 27.5 -103t68.5 -40q55 0 93 69.5t38 198.5v69zM922 768l16 -25h-320v127q-60 -141 -223 -141q-113 0 -182.5 58t-69.5 145q0 73 56 127t135.5 78t167.5 24h116v88q0 122 -31 184t-79 62q-17 0 -32 -10t-23.5 -21
t-17.5 -32t-11.5 -30.5t-7.5 -27.5q-29 -140 -99 -173q-48 -22 -85 17q-41 43 -27 117q18 84 100 137.5t209 53.5q73 0 135 -19.5t111 -59t76.5 -105t27.5 -152.5v-262q0 -42 15.5 -86t42.5 -74z" />
    <glyph glyph-name="guillemotleft" unicode="&#xab;" horiz-adv-x="772" 
d="M737 252l-415 418l415 411l29 -30l-385 -385l385 -383zM522 252l-416 418l416 411l29 -30l-385 -385l385 -383z" />
    <glyph glyph-name="logicalnot" unicode="&#xac;" horiz-adv-x="1236" 
d="M53 690h1133v-590h-43v547h-1090v43z" />
    <glyph glyph-name="softhyphen" unicode="&#xad;" horiz-adv-x="0" 
 />
    <glyph glyph-name="registered" unicode="&#xae;" horiz-adv-x="1708" 
d="M766 727h80q107 0 172 65.5t65 172.5q0 112 -64.5 178.5t-172.5 66.5h-80v-483zM813 293l23 -27h-361l21 27q49 59 49 133v651q0 34 -13.5 71.5t-35.5 63.5l-21 25h70v2h493q121 0 195 -73.5t74 -192.5q0 -126 -73.5 -200.5t-195.5 -74.5h-10q44 -9 78 -37.5t51 -70.5
l43 -113q25 -68 82 -125l92 -86h-254q-33 0 -62.5 20.5t-41.5 51.5l-152 360h-98v-272q0 -72 47 -133zM203 752q0 -329 201.5 -530.5t529.5 -201.5t529.5 201.5t201.5 530.5q0 218 -91 384t-257 256.5t-383 90.5t-383 -90.5t-257 -256.5t-91 -384zM160 752q0 230 96 406
t272 272t406 96t406 -96t272 -272t96 -406q0 -229 -96 -404.5t-272 -271.5t-406 -96t-406 96t-272 271.5t-96 404.5z" />
    <glyph glyph-name="macron" unicode="&#xaf;" horiz-adv-x="536" 
d="M535 1290h-449v96h449v-96z" />
    <glyph glyph-name="degree" unicode="&#xb0;" horiz-adv-x="587" 
d="M260 1278q0 -47 26 -74.5t72 -27.5t73.5 27.5t27.5 74.5q0 44 -27.5 71t-73.5 27q-45 0 -71.5 -26.5t-26.5 -71.5zM131 1278q0 103 62 165t165 62q102 0 166 -62.5t64 -164.5q0 -104 -64 -167.5t-166 -63.5q-103 0 -165 63.5t-62 167.5z" />
    <glyph glyph-name="plusminus" unicode="&#xb1;" horiz-adv-x="1241" 
d="M106 43h1133v-43h-1133v43zM653 100v547h-547v43h547v545h43v-545h543v-43h-543v-547h-43z" />
    <glyph glyph-name="twosuperior" unicode="&#xb2;" horiz-adv-x="786" 
d="M688 897l17 12v-243h-615q53 91 141.5 202.5t154.5 187.5t116.5 164.5t50.5 159.5q0 60 -31 91.5t-82 31.5q-17 0 -31.5 -3.5t-25.5 -11.5t-19.5 -15t-16 -21t-11.5 -21.5t-8.5 -25t-6 -22t-5.5 -22.5l-3 -18q-22 -111 -90 -146q-51 -25 -92 6q-46 37 -29 115q3 12 7 25
q31 85 115.5 134t203.5 49q134 0 218.5 -63.5t84.5 -170.5q0 -59 -28 -110t-70.5 -85t-97 -67.5t-104.5 -58.5t-95.5 -57.5t-67.5 -63.5h293q70 0 127 47z" />
    <glyph glyph-name="threesuperior" unicode="&#xb3;" horiz-adv-x="856" 
d="M803 907q0 -111 -105 -182.5t-258 -71.5q-126 0 -210.5 50t-114.5 135q-31 86 12 133q34 37 86 20q62 -21 92 -108q6 -18 10 -39l3 -20q4 -19 5 -23.5t5.5 -23t9 -25t12 -21.5t16.5 -21.5t21.5 -14.5t28.5 -11.5t35 -3.5q71 0 115 51t44 131q0 109 -76.5 168.5
t-181.5 59.5v26q105 0 157 51.5t52 159.5q0 176 -121 176q-19 0 -35.5 -5.5t-27.5 -12t-20.5 -21t-15 -23t-11 -28t-7 -26t-5 -26.5t-3.5 -22q-21 -109 -89 -142q-51 -25 -90 7q-47 37 -29 116q3 13 8 26q23 62 74.5 103.5t115 59t139.5 17.5q140 0 226 -62t86 -164
q0 -64 -34.5 -114t-96.5 -76q81 -17 129.5 -73.5t48.5 -129.5z" />
    <glyph glyph-name="acute" unicode="&#xb4;" horiz-adv-x="389" 
d="M391 1460l-258 -170h-35l150 299z" />
    <glyph glyph-name="paragraph" unicode="&#xb6;" horiz-adv-x="1177" 
d="M608 0l33 39q34 39 54 97t20 112v418h-164q-188 0 -302 115.5t-114 308.5q0 187 114 301t302 114h616l-32 -39q-34 -40 -55 -97.5t-21 -111.5v-1009q0 -54 21 -111.5t55 -97.5l32 -39h-559z" />
    <glyph glyph-name="periodcentered" unicode="&#xb7;" horiz-adv-x="438" 
d="M123 750q0 73 43 116t115 43q71 0 113 -43t42 -116q0 -71 -42.5 -113.5t-112.5 -42.5q-72 0 -115 42.5t-43 113.5z" />
    <glyph glyph-name="cedilla" unicode="&#xb8;" horiz-adv-x="466" 
d="M274 -123l43 123h58l-13 -39q46 -8 74.5 -43t28.5 -88q0 -60 -36.5 -95.5t-96.5 -35.5t-95.5 36t-35.5 97h20q0 -30 23 -47.5t59 -17.5q35 0 54.5 16t19.5 45q0 49 -45 49h-58z" />
    <glyph glyph-name="onesuperior" unicode="&#xb9;" horiz-adv-x="456" 
d="M440 688l17 -22h-314l17 22q43 49 43 119v510q0 29 -11.5 61.5t-31.5 53.5l-17 22q108 0 161.5 13.5t92.5 48.5v-709q0 -70 43 -119z" />
    <glyph glyph-name="ordmasculine" unicode="&#xba;" horiz-adv-x="1026" 
d="M393 1126q0 -168 51 -267t142 -99t141.5 99t50.5 267q0 169 -50.5 269t-141.5 100t-142 -100.5t-51 -268.5zM147 1128q0 182 116 290t323 108t322.5 -108t115.5 -290q0 -183 -116 -291t-322 -108q-207 0 -323 108.5t-116 290.5z" />
    <glyph glyph-name="guillemotright" unicode="&#xbb;" horiz-adv-x="772" 
d="M774 670l-414 -418l-30 31l385 383l-385 385l30 30zM559 670l-414 -418l-30 31l385 383l-385 385l30 30z" />
    <glyph glyph-name="onequarter" unicode="&#xbc;" horiz-adv-x="1212" 
d="M584 244h377v399zM547 219v25l569 606h37v-606h61v-25h-61v-80q0 -66 43 -119l18 -20h-315l19 20q43 53 43 119v80h-414zM276 0l646 1505h73l-645 -1505h-74zM449 688l16 -22h-313l16 22q43 49 43 119v510q0 29 -11.5 61.5t-31.5 53.5l-16 22q108 0 161.5 13.5t92.5 48.5
v-709q0 -70 43 -119z" />
    <glyph glyph-name="onehalf" unicode="&#xbd;" horiz-adv-x="1349" 
d="M1309 229l16 15v-244h-614q45 77 112 164t124.5 155t111 137t84.5 135t31 124t-31 89.5t-82 31.5q-15 0 -28.5 -3.5t-23.5 -8t-19.5 -13.5t-15.5 -16t-12 -20t-9 -20t-7 -21.5t-5 -20t-4 -19.5t-3 -16q-21 -112 -90 -147q-51 -26 -92 6q-46 36 -31 113q3 14 8 28
q31 84 116 133t204 49q134 0 218.5 -63t84.5 -170q0 -59 -28 -110t-70.5 -85.5t-97 -68.5t-104.5 -59.5t-95.5 -58t-67.5 -63.5h293q66 0 127 47zM276 0l646 1505h73l-645 -1505h-74zM449 688l16 -22h-313l16 22q43 49 43 119v510q0 29 -11.5 61.5t-31.5 53.5l-16 22
q108 0 161.5 13.5t92.5 48.5v-709q0 -70 43 -119z" />
    <glyph glyph-name="threequarters" unicode="&#xbe;" horiz-adv-x="1515" 
d="M829 244h377v399zM793 219v25l569 606h37v-606h61v-25h-61v-80q0 -66 43 -119l18 -20h-315l18 20q43 53 43 119v80h-413zM522 0l645 1505h72l-645 -1505h-72zM428 653q-126 0 -211 50t-115 135q-31 87 13 134q34 36 86 19q63 -22 92 -109q6 -18 10 -38q0 -2 3 -19.5
t4.5 -24t5.5 -23.5t9 -24.5t12 -21.5t16.5 -21t21.5 -15t28 -11.5t35 -3.5q72 0 116 51t44 131q0 109 -76.5 168.5t-181.5 59.5v26q105 0 157 51.5t52 159.5q0 176 -121 176q-19 0 -35.5 -5.5t-27.5 -12t-20.5 -21t-15 -23t-11 -28t-7 -26t-5 -26.5t-3.5 -22
q-22 -110 -90 -143q-51 -24 -91 9q-46 38 -27 118q3 11 7 23q23 62 74.5 103.5t115.5 59t140 17.5q140 0 225.5 -62t85.5 -164q0 -64 -34.5 -114t-96.5 -76q81 -17 130 -73.5t49 -129.5q0 -111 -105 -182.5t-258 -71.5z" />
    <glyph glyph-name="questiondown" unicode="&#xbf;" horiz-adv-x="1247" 
d="M682 645h43q0 -77 -18.5 -146.5t-47.5 -123t-64.5 -103.5t-71 -98.5t-64.5 -98t-47.5 -111.5t-18.5 -130q0 -122 54 -182t145 -60q42 0 75.5 12.5t55.5 35.5t38 47.5t26 58.5t15 57t10 52q2 13 3 18q35 179 141 249q78 51 151 20q69 -29 85 -112q13 -69 -18 -155
q-53 -152 -202 -239t-360 -87q-156 0 -276 49.5t-189 145.5t-69 225q0 88 33.5 155.5t86.5 109t117.5 74.5t129 63t117.5 63.5t86.5 87t33.5 123.5zM883 934q0 -76 -47 -121t-131 -45q-87 0 -136 45t-49 121q0 73 49.5 117.5t135.5 44.5q83 0 130.5 -44.5t47.5 -117.5z" />
    <glyph glyph-name="Agrave" unicode="&#xc0;" horiz-adv-x="1449" 
d="M291 461h493l-241 596zM186 326l498 1179h47l477 -1179q48 -112 125 -199l115 -127h-631l31 100q17 54 14 114t-24 112l-37 92h-529l-39 -92q-21 -48 -24.5 -111.5t10.5 -114.5l29 -100h-305l118 129q73 80 125 197zM809 1704l-258 170l141 129l152 -299h-35z" />
    <glyph glyph-name="Aacute" unicode="&#xc1;" horiz-adv-x="1449" 
d="M291 461h493l-241 596zM186 326l498 1179h47l477 -1179q48 -112 125 -199l115 -127h-631l31 100q17 54 14 114t-24 112l-37 92h-529l-39 -92q-21 -48 -24.5 -111.5t10.5 -114.5l29 -100h-305l118 129q73 80 125 197zM844 1874l-258 -170h-35l149 299z" />
    <glyph glyph-name="Acircumflex" unicode="&#xc2;" horiz-adv-x="1449" 
d="M291 461h493l-241 596zM186 326l498 1179h47l477 -1179q48 -112 125 -199l115 -127h-631l31 100q17 54 14 114t-24 112l-37 92h-529l-39 -92q-21 -48 -24.5 -111.5t10.5 -114.5l29 -100h-305l118 129q73 80 125 197zM715 2003l258 -170l-142 -129l-135 266l-135 -266
l-141 129l258 170h37z" />
    <glyph glyph-name="Atilde" unicode="&#xc3;" horiz-adv-x="1449" 
d="M291 461h493l-241 596zM186 326l498 1179h47l477 -1179q48 -112 125 -199l115 -127h-631l31 100q17 54 14 114t-24 112l-37 92h-529l-39 -92q-21 -48 -24.5 -111.5t10.5 -114.5l29 -100h-305l118 129q73 80 125 197zM508 1702h-21q5 170 123 170q50 0 113 -41t98 -41
q61 0 64 72h22q-1 -28 -2.5 -47t-8.5 -47t-18.5 -45t-34.5 -29.5t-55 -12.5q-49 0 -114 41t-101 41q-58 0 -65 -61z" />
    <glyph glyph-name="Adieresis" unicode="&#xc4;" horiz-adv-x="1449" 
d="M291 461h493l-241 596zM186 326l498 1179h47l477 -1179q48 -112 125 -199l115 -127h-631l31 100q17 54 14 114t-24 112l-37 92h-529l-39 -92q-21 -48 -24.5 -111.5t10.5 -114.5l29 -100h-305l118 129q73 80 125 197zM805 1681q-37 0 -59.5 22.5t-22.5 59.5
q0 35 22.5 57.5t59.5 22.5t59.5 -22.5t22.5 -57.5q0 -37 -22.5 -59.5t-59.5 -22.5zM590 1681q-37 0 -59.5 22.5t-22.5 59.5q0 35 22.5 57.5t59.5 22.5t59.5 -22.5t22.5 -57.5q0 -37 -22.5 -59.5t-59.5 -22.5z" />
    <glyph glyph-name="Aring" unicode="&#xc5;" horiz-adv-x="1449" 
d="M291 461h493l-241 596zM186 326l498 1179h47l477 -1179q48 -112 125 -199l115 -127h-631l31 100q17 54 14 114t-24 112l-37 92h-529l-39 -92q-21 -48 -24.5 -111.5t10.5 -114.5l29 -100h-305l118 129q73 80 125 197zM696 1864q-20 0 -31.5 -13t-11.5 -32q0 -45 43 -45
q45 0 45 45q0 19 -12 32t-33 13zM696 1686q-60 0 -95.5 36t-35.5 97q0 59 35.5 95t95.5 36t96.5 -36t36.5 -95q0 -61 -36.5 -97t-96.5 -36z" />
    <glyph glyph-name="AE" unicode="&#xc6;" horiz-adv-x="1914" 
d="M297 461h446v796q0 42 -18 101zM1204 731h-117v-688h187q120 0 243 51t207 135l95 93h43l-66 -322h-1161l33 39q34 40 54.5 97.5t20.5 111.5v170h-464l-46 -92q-22 -48 -25 -111.5t11 -114.5l29 -100h-305l118 129q66 72 125 197l519 1085q-17 28 -37 55l-33 39h1141
l63 -323h-43l-92 94q-85 84 -209 135t-244 51h-164v-688h117q63 0 122 32.5t91 86.5l35 53h43v-387h-43l-35 53q-32 54 -91 86.5t-122 32.5z" />
    <glyph glyph-name="Ccedilla" unicode="&#xc7;" horiz-adv-x="1308" 
d="M1321 455q-53 -156 -152.5 -265.5t-214.5 -159.5t-239 -50q-128 0 -243 56.5t-200.5 156t-135.5 246.5t-50 319q0 346 189.5 557t496.5 211q180 0 314 -78t188 -231q50 -145 -9 -234q-43 -65 -121 -64q-87 0 -151 85q-49 65 -69 165q-4 20 -10 64t-11 72t-16 65.5t-26 59
t-41 37.5t-60 16q-86 0 -162 -86t-122 -234t-46 -319q0 -177 49.5 -312.5t149 -213.5t235.5 -78q218 0 457 215zM639 -123l43 123h57l-12 -39q46 -8 74 -43t28 -88q0 -60 -36.5 -95.5t-96.5 -35.5t-95.5 36t-35.5 97h21q0 -30 23 -47.5t59 -17.5q73 0 73 61q0 49 -45 49h-57
z" />
    <glyph glyph-name="Egrave" unicode="&#xc8;" horiz-adv-x="1284" 
d="M635 731h-119v-688h189q120 0 243 51t207 135l92 93h43l-63 -322h-1161l32 39q34 39 54 97t20 112v1009q0 54 -20 112t-54 97l-32 39h1138l66 -323h-43l-92 94q-85 84 -209 135t-244 51h-166v-688h119q63 0 122 32.5t91 86.5l35 53h43v-387h-43l-35 53q-32 54 -91 86.5
t-122 32.5zM786 1704l-258 170l142 129l151 -299h-35z" />
    <glyph glyph-name="Eacute" unicode="&#xc9;" horiz-adv-x="1284" 
d="M635 731h-119v-688h189q120 0 243 51t207 135l92 93h43l-63 -322h-1161l32 39q34 39 54 97t20 112v1009q0 54 -20 112t-54 97l-32 39h1138l66 -323h-43l-92 94q-85 84 -209 135t-244 51h-166v-688h119q63 0 122 32.5t91 86.5l35 53h43v-387h-43l-35 53q-32 54 -91 86.5
t-122 32.5zM821 1874l-258 -170h-35l150 299z" />
    <glyph glyph-name="Ecircumflex" unicode="&#xca;" horiz-adv-x="1284" 
d="M635 731h-119v-688h189q120 0 243 51t207 135l92 93h43l-63 -322h-1161l32 39q34 39 54 97t20 112v1009q0 54 -20 112t-54 97l-32 39h1138l66 -323h-43l-92 94q-85 84 -209 135t-244 51h-166v-688h119q63 0 122 32.5t91 86.5l35 53h43v-387h-43l-35 53q-32 54 -91 86.5
t-122 32.5zM694 2003l258 -170l-141 -129l-135 266l-135 -266l-142 129l258 170h37z" />
    <glyph glyph-name="Edieresis" unicode="&#xcb;" horiz-adv-x="1284" 
d="M635 731h-119v-688h189q120 0 243 51t207 135l92 93h43l-63 -322h-1161l32 39q34 39 54 97t20 112v1009q0 54 -20 112t-54 97l-32 39h1138l66 -323h-43l-92 94q-85 84 -209 135t-244 51h-166v-688h119q63 0 122 32.5t91 86.5l35 53h43v-387h-43l-35 53q-32 54 -91 86.5
t-122 32.5zM782 1681q-37 0 -59.5 22.5t-22.5 59.5q0 35 22.5 57.5t59.5 22.5t59.5 -22.5t22.5 -57.5q0 -37 -22.5 -59.5t-59.5 -22.5zM567 1681q-37 0 -59.5 22.5t-22.5 59.5q0 35 22.5 57.5t59.5 22.5t59.5 -22.5t22.5 -57.5q0 -37 -22.5 -59.5t-59.5 -22.5z" />
    <glyph glyph-name="Igrave" unicode="&#xcc;" horiz-adv-x="624" 
d="M592 39l33 -39h-559l32 39q34 39 54 97t20 112v1009q0 54 -20 112t-54 97l-32 39h559l-33 -39q-34 -40 -55 -97.5t-21 -111.5v-1009q0 -54 21 -111.5t55 -97.5zM457 1704l-258 170l141 129l152 -299h-35z" />
    <glyph glyph-name="Iacute" unicode="&#xcd;" horiz-adv-x="624" 
d="M592 39l33 -39h-559l32 39q34 39 54 97t20 112v1009q0 54 -20 112t-54 97l-32 39h559l-33 -39q-34 -40 -55 -97.5t-21 -111.5v-1009q0 -54 21 -111.5t55 -97.5zM492 1874l-259 -170h-34l149 299z" />
    <glyph glyph-name="Icircumflex" unicode="&#xce;" horiz-adv-x="624" 
d="M592 39l33 -39h-559l32 39q34 39 54 97t20 112v1009q0 54 -20 112t-54 97l-32 39h559l-33 -39q-34 -40 -55 -97.5t-21 -111.5v-1009q0 -54 21 -111.5t55 -97.5zM362 2003l259 -170l-142 -129l-135 266l-135 -266l-141 129l258 170h36z" />
    <glyph glyph-name="Idieresis" unicode="&#xcf;" horiz-adv-x="624" 
d="M592 39l33 -39h-559l32 39q34 39 54 97t20 112v1009q0 54 -20 112t-54 97l-32 39h559l-33 -39q-34 -40 -55 -97.5t-21 -111.5v-1009q0 -54 21 -111.5t55 -97.5zM453 1681q-37 0 -59.5 22.5t-22.5 59.5q0 35 22.5 57.5t59.5 22.5t59.5 -22.5t22.5 -57.5q0 -37 -22.5 -59.5
t-59.5 -22.5zM238 1681q-37 0 -59.5 22.5t-22.5 59.5q0 35 22.5 57.5t59.5 22.5q36 0 58.5 -22.5t22.5 -57.5q0 -37 -22 -59.5t-59 -22.5z" />
    <glyph glyph-name="Eth" unicode="&#xd0;" horiz-adv-x="1402" 
d="M539 43h79q71 0 130 19.5t113.5 69t91.5 128t59 203.5t22 289q0 710 -416 710h-79v-663h145v-43h-145v-713zM791 0h-703l33 39q34 39 54 97t20 112v508h-150v43h150v458q0 54 -20 112t-54 97l-33 39h703q80 0 157.5 -21t157 -75.5t138.5 -137t96.5 -216.5t37.5 -303
t-37.5 -302.5t-96.5 -216t-138.5 -137t-157 -75.5t-157.5 -21z" />
    <glyph glyph-name="Ntilde" unicode="&#xd1;" horiz-adv-x="1263" 
d="M291 39l33 -39h-258l32 39q34 39 54 97t20 112v1009q0 54 -20 112t-54 97l-32 39h442l610 -901v653q0 54 -20 112t-54 97l-32 39h258l-33 -39q-34 -40 -55 -97.5t-21 -111.5v-1257h-43l-903 1325v-1077q0 -54 21 -111.5t55 -97.5zM475 1702h-20q5 170 123 170
q40 0 77 -20.5t70 -41t63 -20.5q61 0 64 72h22q-1 -29 -2.5 -47.5t-8 -46.5t-18.5 -44.5t-34.5 -29.5t-54.5 -13q-49 0 -114 41t-101 41q-59 0 -66 -61z" />
    <glyph glyph-name="Ograve" unicode="&#xd2;" horiz-adv-x="1632" 
d="M426 752q0 -330 118.5 -531t313.5 -201q128 0 225.5 91t151 257t53.5 384t-53.5 384t-151 256.5t-225.5 90.5q-195 0 -313.5 -200.5t-118.5 -530.5zM82 752q0 349 213 561.5t563 212.5q230 0 406 -96t272 -272t96 -406t-96 -405.5t-272 -271t-406 -95.5
q-231 0 -407.5 95.5t-272.5 271t-96 405.5zM969 1704l-258 170l141 129l152 -299h-35z" />
    <glyph glyph-name="Oacute" unicode="&#xd3;" horiz-adv-x="1632" 
d="M426 752q0 -330 118.5 -531t313.5 -201q128 0 225.5 91t151 257t53.5 384t-53.5 384t-151 256.5t-225.5 90.5q-195 0 -313.5 -200.5t-118.5 -530.5zM82 752q0 349 213 561.5t563 212.5q230 0 406 -96t272 -272t96 -406t-96 -405.5t-272 -271t-406 -95.5
q-231 0 -407.5 95.5t-272.5 271t-96 405.5zM1004 1874l-259 -170h-34l149 299z" />
    <glyph glyph-name="Ocircumflex" unicode="&#xd4;" horiz-adv-x="1632" 
d="M426 752q0 -330 118.5 -531t313.5 -201q128 0 225.5 91t151 257t53.5 384t-53.5 384t-151 256.5t-225.5 90.5q-195 0 -313.5 -200.5t-118.5 -530.5zM82 752q0 349 213 561.5t563 212.5q230 0 406 -96t272 -272t96 -406t-96 -405.5t-272 -271t-406 -95.5
q-231 0 -407.5 95.5t-272.5 271t-96 405.5zM877 2003l258 -170l-142 -129l-135 266l-135 -266l-141 129l258 170h37z" />
    <glyph glyph-name="Otilde" unicode="&#xd5;" horiz-adv-x="1632" 
d="M426 752q0 -330 118.5 -531t313.5 -201q128 0 225.5 91t151 257t53.5 384t-53.5 384t-151 256.5t-225.5 90.5q-195 0 -313.5 -200.5t-118.5 -530.5zM82 752q0 349 213 561.5t563 212.5q230 0 406 -96t272 -272t96 -406t-96 -405.5t-272 -271t-406 -95.5
q-231 0 -407.5 95.5t-272.5 271t-96 405.5zM668 1702h-21q5 170 123 170q50 0 113 -41t98 -41q60 0 63 72h23q-1 -28 -2.5 -47t-8.5 -47t-18.5 -45t-34.5 -29.5t-55 -12.5q-49 0 -114 41t-101 41q-58 0 -65 -61z" />
    <glyph glyph-name="Odieresis" unicode="&#xd6;" horiz-adv-x="1632" 
d="M426 752q0 -330 118.5 -531t313.5 -201q128 0 225.5 91t151 257t53.5 384t-53.5 384t-151 256.5t-225.5 90.5q-195 0 -313.5 -200.5t-118.5 -530.5zM82 752q0 349 213 561.5t563 212.5q230 0 406 -96t272 -272t96 -406t-96 -405.5t-272 -271t-406 -95.5
q-231 0 -407.5 95.5t-272.5 271t-96 405.5zM965 1681q-37 0 -59.5 22.5t-22.5 59.5q0 35 22.5 57.5t59.5 22.5t59.5 -22.5t22.5 -57.5q0 -37 -22.5 -59.5t-59.5 -22.5zM750 1681q-37 0 -59.5 22.5t-22.5 59.5q0 35 22.5 57.5t59.5 22.5q36 0 58.5 -22.5t22.5 -57.5
q0 -37 -22 -59.5t-59 -22.5z" />
    <glyph glyph-name="multiply" unicode="&#xd7;" horiz-adv-x="948" 
d="M115 283l387 387l-385 383l30 30l385 -387l386 385l28 -30l-385 -385l385 -383l-28 -31l-386 385l-387 -385z" />
    <glyph glyph-name="Oslash" unicode="&#xd8;" horiz-adv-x="1636" 
d="M1223 1180l-711 -887q58 -131 147 -202t203 -71q128 0 225.5 91t151 257t53.5 384q0 252 -69 428zM430 752q0 -235 70 -422l708 884q-58 130 -146 199.5t-200 69.5q-195 0 -313.5 -200.5t-118.5 -530.5zM86 752q0 349 213 561.5t563 212.5q280 0 479 -144l142 177h43
l-156 -195q128 -102 197 -258.5t69 -353.5q0 -230 -96 -405.5t-272 -271t-406 -95.5q-286 0 -485 145l-144 -178h-43l160 196q-127 102 -195.5 258.5t-68.5 350.5z" />
    <glyph glyph-name="Ugrave" unicode="&#xd9;" horiz-adv-x="1357" 
d="M705 -20q-254 0 -410 157t-156 416v704q0 55 -20 112.5t-53 96.5l-33 39h559l-33 -39q-34 -40 -55 -97.5t-21 -111.5v-745q0 -208 101 -328.5t252 -120.5q71 0 136.5 30t118 87t84 148t31.5 204v725q0 55 -20 112.5t-53 96.5l-33 39h258l-33 -39q-34 -40 -55 -97.5
t-21 -111.5v-704q0 -259 -146.5 -416t-397.5 -157zM807 1704l-258 170l141 129l152 -299h-35z" />
    <glyph glyph-name="Uacute" unicode="&#xda;" horiz-adv-x="1357" 
d="M705 -20q-254 0 -410 157t-156 416v704q0 55 -20 112.5t-53 96.5l-33 39h559l-33 -39q-34 -40 -55 -97.5t-21 -111.5v-745q0 -208 101 -328.5t252 -120.5q71 0 136.5 30t118 87t84 148t31.5 204v725q0 55 -20 112.5t-53 96.5l-33 39h258l-33 -39q-34 -40 -55 -97.5
t-21 -111.5v-704q0 -259 -146.5 -416t-397.5 -157zM842 1874l-258 -170h-35l149 299z" />
    <glyph glyph-name="Ucircumflex" unicode="&#xdb;" horiz-adv-x="1357" 
d="M705 -20q-254 0 -410 157t-156 416v704q0 55 -20 112.5t-53 96.5l-33 39h559l-33 -39q-34 -40 -55 -97.5t-21 -111.5v-745q0 -208 101 -328.5t252 -120.5q71 0 136.5 30t118 87t84 148t31.5 204v725q0 55 -20 112.5t-53 96.5l-33 39h258l-33 -39q-34 -40 -55 -97.5
t-21 -111.5v-704q0 -259 -146.5 -416t-397.5 -157zM715 2003l258 -170l-142 -129l-135 266l-135 -266l-141 129l258 170h37z" />
    <glyph glyph-name="Udieresis" unicode="&#xdc;" horiz-adv-x="1357" 
d="M705 -20q-254 0 -410 157t-156 416v704q0 55 -20 112.5t-53 96.5l-33 39h559l-33 -39q-34 -40 -55 -97.5t-21 -111.5v-745q0 -208 101 -328.5t252 -120.5q71 0 136.5 30t118 87t84 148t31.5 204v725q0 55 -20 112.5t-53 96.5l-33 39h258l-33 -39q-34 -40 -55 -97.5
t-21 -111.5v-704q0 -259 -146.5 -416t-397.5 -157zM803 1681q-37 0 -59.5 22.5t-22.5 59.5q0 35 22.5 57.5t59.5 22.5t59.5 -22.5t22.5 -57.5q0 -37 -22.5 -59.5t-59.5 -22.5zM588 1681q-37 0 -59.5 22.5t-22.5 59.5q0 35 22.5 57.5t59.5 22.5t59.5 -22.5t22.5 -57.5
q0 -37 -22.5 -59.5t-59.5 -22.5z" />
    <glyph glyph-name="Yacute" unicode="&#xdd;" horiz-adv-x="1429" 
d="M621 1190l208 -354l209 354q27 43 43.5 103.5t18.5 115.5l2 96h330l-189 -143q-91 -69 -156 -172l-231 -397l-2 -5v-540q0 -54 20 -112t54 -97l33 -39h-560l33 39q34 40 55 97.5t21 111.5v452l-289 490q-68 108 -149 180l-146 135h658l-11 -96q-6 -54 7 -114.5t41 -104.5
zM825 1874l-258 -170h-35l150 299z" />
    <glyph glyph-name="Thorn" unicode="&#xde;" horiz-adv-x="1341" 
d="M516 377h123q169 0 271 102t102 269q0 173 -102 276.5t-271 103.5h-123v-751zM592 39l33 -39h-559l32 39q34 39 54 97t20 112v1009q0 54 -20 112t-54 97l-32 39h559l-33 -39q-34 -40 -55 -97.5t-21 -111.5v-86h424q187 0 301.5 -113.5t114.5 -299.5q0 -193 -114 -308.5
t-302 -115.5h-424v-86q0 -54 21 -111.5t55 -97.5z" />
    <glyph glyph-name="germandbls" unicode="&#xdf;" horiz-adv-x="1353" 
d="M907 1192q0 128 -49.5 208.5t-136.5 80.5q-101 0 -163 -104.5t-62 -270.5v-1106h-451l33 39q34 39 54 97t20 112v723q0 260 152 407.5t423 147.5q239 0 381.5 -111.5t142.5 -288.5q0 -114 -62 -205t-169 -135q146 -29 230.5 -135t84.5 -262q0 -179 -112.5 -284
t-302.5 -105h-385v43h83q168 0 270.5 100.5t102.5 262.5q0 159 -101 252.5t-272 93.5h-83v43q170 0 271 106t101 291z" />
    <glyph glyph-name="agrave" unicode="&#xe0;" horiz-adv-x="1167" 
d="M737 541h-47q-123 0 -197.5 -78.5t-74.5 -200.5q0 -87 38 -143t97 -56q76 0 130 97.5t54 277.5v103zM1163 33l27 -33h-453v178q-81 -198 -315 -198q-156 0 -252 79.5t-96 200.5q0 79 45 142.5t118.5 102t161 59t179.5 20.5h159v123q0 173 -42 259.5t-107 86.5
q-97 0 -133 -179q-39 -181 -129 -231q-61 -34 -114 8q-55 43 -55 130q0 24 5 48q24 118 137.5 192.5t292.5 74.5q103 0 189.5 -27.5t154.5 -82.5t106.5 -148t38.5 -215v-367q0 -57 22.5 -118.5t59.5 -104.5zM733 1290l-258 170l141 129l152 -299h-35z" />
    <glyph glyph-name="aacute" unicode="&#xe1;" horiz-adv-x="1167" 
d="M737 541h-47q-123 0 -197.5 -78.5t-74.5 -200.5q0 -87 38 -143t97 -56q76 0 130 97.5t54 277.5v103zM1163 33l27 -33h-453v178q-81 -198 -315 -198q-156 0 -252 79.5t-96 200.5q0 79 45 142.5t118.5 102t161 59t179.5 20.5h159v123q0 173 -42 259.5t-107 86.5
q-97 0 -133 -179q-39 -181 -129 -231q-61 -34 -114 8q-55 43 -55 130q0 24 5 48q24 118 137.5 192.5t292.5 74.5q103 0 189.5 -27.5t154.5 -82.5t106.5 -148t38.5 -215v-367q0 -57 22.5 -118.5t59.5 -104.5zM768 1460l-258 -170h-35l150 299z" />
    <glyph glyph-name="acircumflex" unicode="&#xe2;" horiz-adv-x="1167" 
d="M737 541h-47q-123 0 -197.5 -78.5t-74.5 -200.5q0 -87 38 -143t97 -56q76 0 130 97.5t54 277.5v103zM1163 33l27 -33h-453v178q-81 -198 -315 -198q-156 0 -252 79.5t-96 200.5q0 79 45 142.5t118.5 102t161 59t179.5 20.5h159v123q0 173 -42 259.5t-107 86.5
q-97 0 -133 -179q-39 -181 -129 -231q-61 -34 -114 8q-55 43 -55 130q0 24 5 48q24 118 137.5 192.5t292.5 74.5q103 0 189.5 -27.5t154.5 -82.5t106.5 -148t38.5 -215v-367q0 -57 22.5 -118.5t59.5 -104.5zM639 1589l258 -170l-141 -129l-135 266l-136 -266l-141 129
l258 170h37z" />
    <glyph glyph-name="atilde" unicode="&#xe3;" horiz-adv-x="1167" 
d="M737 541h-47q-123 0 -197.5 -78.5t-74.5 -200.5q0 -87 38 -143t97 -56q76 0 130 97.5t54 277.5v103zM1163 33l27 -33h-453v178q-81 -198 -315 -198q-156 0 -252 79.5t-96 200.5q0 79 45 142.5t118.5 102t161 59t179.5 20.5h159v123q0 173 -42 259.5t-107 86.5
q-97 0 -133 -179q-39 -181 -129 -231q-61 -34 -114 8q-55 43 -55 130q0 24 5 48q24 118 137.5 192.5t292.5 74.5q103 0 189.5 -27.5t154.5 -82.5t106.5 -148t38.5 -215v-367q0 -57 22.5 -118.5t59.5 -104.5zM432 1288h-20q5 170 123 170q49 0 112 -41t98 -41q61 0 64 72h22
q-1 -29 -2.5 -47t-8 -46.5t-18.5 -45t-34.5 -29t-54.5 -12.5q-49 0 -114 41t-101 41q-59 0 -66 -62z" />
    <glyph glyph-name="adieresis" unicode="&#xe4;" horiz-adv-x="1167" 
d="M737 541h-47q-123 0 -197.5 -78.5t-74.5 -200.5q0 -87 38 -143t97 -56q76 0 130 97.5t54 277.5v103zM1163 33l27 -33h-453v178q-81 -198 -315 -198q-156 0 -252 79.5t-96 200.5q0 79 45 142.5t118.5 102t161 59t179.5 20.5h159v123q0 173 -42 259.5t-107 86.5
q-97 0 -133 -179q-39 -181 -129 -231q-61 -34 -114 8q-55 43 -55 130q0 24 5 48q24 118 137.5 192.5t292.5 74.5q103 0 189.5 -27.5t154.5 -82.5t106.5 -148t38.5 -215v-367q0 -57 22.5 -118.5t59.5 -104.5zM729 1268q-37 0 -59.5 22.5t-22.5 59.5q0 35 22.5 57.5t59.5 22.5
t59.5 -22.5t22.5 -57.5q0 -37 -22.5 -59.5t-59.5 -22.5zM514 1268q-37 0 -59.5 22.5t-22.5 59.5q0 35 22.5 57.5t59.5 22.5t59.5 -22.5t22.5 -57.5q0 -37 -22.5 -59.5t-59.5 -22.5z" />
    <glyph glyph-name="aring" unicode="&#xe5;" horiz-adv-x="1167" 
d="M737 541h-47q-123 0 -197.5 -78.5t-74.5 -200.5q0 -87 38 -143t97 -56q76 0 130 97.5t54 277.5v103zM1163 33l27 -33h-453v178q-81 -198 -315 -198q-156 0 -252 79.5t-96 200.5q0 79 45 142.5t118.5 102t161 59t179.5 20.5h159v123q0 173 -42 259.5t-107 86.5
q-97 0 -133 -179q-39 -181 -129 -231q-61 -34 -114 8q-55 43 -55 130q0 24 5 48q24 118 137.5 192.5t292.5 74.5q103 0 189.5 -27.5t154.5 -82.5t106.5 -148t38.5 -215v-367q0 -57 22.5 -118.5t59.5 -104.5zM621 1450q-20 0 -31.5 -13t-11.5 -32q0 -45 43 -45q45 0 45 45
q0 19 -12 32t-33 13zM621 1272q-60 0 -96 36t-36 97q0 59 36 95t96 36t96.5 -36t36.5 -95q0 -61 -36.5 -97t-96.5 -36z" />
    <glyph glyph-name="ae" unicode="&#xe6;" horiz-adv-x="1699" 
d="M737 438v103h-47q-123 0 -197.5 -78.5t-74.5 -200.5q0 -87 38 -143t97 -56q76 0 130 97.5t54 277.5zM1087 621v-5h263q4 221 -28.5 329t-92.5 108q-65 0 -103.5 -118.5t-38.5 -313.5zM1354 172q65 0 155.5 35t196.5 129q-25 -54 -54.5 -101.5t-72.5 -95.5t-92 -82
t-114.5 -55.5t-137.5 -21.5q-157 0 -282 93.5t-179 254.5q-41 -348 -352 -348q-156 0 -252 79.5t-96 200.5q0 79 45 142.5t118.5 102t161 59t179.5 20.5h159v123q0 173 -42 259.5t-107 86.5q-97 0 -133 -179q-39 -181 -129 -231q-61 -34 -114 8q-55 43 -55 130q0 24 5 48
q24 118 137.5 192.5t292.5 74.5q218 0 344 -109q127 109 303 109q190 0 307 -131t117 -349v-43h-576q7 -192 77 -296.5t190 -104.5z" />
    <glyph glyph-name="ccedilla" unicode="&#xe7;" 
d="M702 172q65 0 156 35t195 129q-30 -68 -70.5 -126.5t-97.5 -112.5t-135.5 -85.5t-167.5 -31.5q-100 0 -190 40.5t-156.5 112t-106 177t-39.5 227.5q0 249 147 404t373 155q158 0 268 -75.5t132 -191.5q19 -98 -31 -159q-43 -53 -103 -38q-76 18 -125 134q-19 47 -32 108
q-42 179 -121 179q-69 0 -116.5 -124.5t-47.5 -307.5q0 -214 70 -331.5t198 -117.5zM508 -123l43 123h57l-12 -39q46 -8 74 -43t28 -88q0 -60 -36.5 -95.5t-96.5 -35.5t-95.5 36t-35.5 97h21q0 -30 23 -47.5t59 -17.5q73 0 73 61q0 49 -45 49h-57z" />
    <glyph glyph-name="egrave" unicode="&#xe8;" 
d="M434 621v-5h262q4 221 -28.5 329t-92.5 108q-65 0 -103 -118t-38 -314zM700 172q172 0 353 164q-30 -68 -70.5 -126.5t-97.5 -112.5t-135.5 -85.5t-167.5 -31.5q-100 0 -190 40.5t-156.5 112t-106 177t-39.5 227.5q0 123 39.5 228.5t107 177.5t158.5 112.5t193 40.5
q189 0 305.5 -131t116.5 -349v-43h-576q8 -192 77 -296.5t189 -104.5zM678 1290l-258 170l141 129l152 -299h-35z" />
    <glyph glyph-name="eacute" unicode="&#xe9;" 
d="M434 621v-5h262q4 221 -28.5 329t-92.5 108q-65 0 -103 -118t-38 -314zM700 172q172 0 353 164q-30 -68 -70.5 -126.5t-97.5 -112.5t-135.5 -85.5t-167.5 -31.5q-100 0 -190 40.5t-156.5 112t-106 177t-39.5 227.5q0 123 39.5 228.5t107 177.5t158.5 112.5t193 40.5
q189 0 305.5 -131t116.5 -349v-43h-576q8 -192 77 -296.5t189 -104.5zM713 1460l-258 -170h-35l149 299z" />
    <glyph glyph-name="ecircumflex" unicode="&#xea;" 
d="M434 621v-5h262q4 221 -28.5 329t-92.5 108q-65 0 -103 -118t-38 -314zM700 172q172 0 353 164q-30 -68 -70.5 -126.5t-97.5 -112.5t-135.5 -85.5t-167.5 -31.5q-100 0 -190 40.5t-156.5 112t-106 177t-39.5 227.5q0 123 39.5 228.5t107 177.5t158.5 112.5t193 40.5
q189 0 305.5 -131t116.5 -349v-43h-576q8 -192 77 -296.5t189 -104.5zM584 1589l258 -170l-142 -129l-135 266l-135 -266l-141 129l258 170h37z" />
    <glyph glyph-name="edieresis" unicode="&#xeb;" 
d="M434 621v-5h262q4 221 -28.5 329t-92.5 108q-65 0 -103 -118t-38 -314zM700 172q172 0 353 164q-30 -68 -70.5 -126.5t-97.5 -112.5t-135.5 -85.5t-167.5 -31.5q-100 0 -190 40.5t-156.5 112t-106 177t-39.5 227.5q0 123 39.5 228.5t107 177.5t158.5 112.5t193 40.5
q189 0 305.5 -131t116.5 -349v-43h-576q8 -192 77 -296.5t189 -104.5zM674 1268q-37 0 -59.5 22.5t-22.5 59.5q0 35 22.5 57.5t59.5 22.5t59.5 -22.5t22.5 -57.5q0 -37 -22.5 -59.5t-59.5 -22.5zM459 1268q-37 0 -59.5 22.5t-22.5 59.5q0 35 22.5 57.5t59.5 22.5t59.5 -22.5
t22.5 -57.5q0 -37 -22.5 -59.5t-59.5 -22.5z" />
    <glyph glyph-name="igrave" unicode="&#xec;" horiz-adv-x="610" 
d="M584 39l32 -39h-559l33 39q34 39 54 97t20 112v579q0 54 -20 112t-54 97l-33 39h451v-827q0 -54 21 -111.5t55 -97.5zM446 1290l-258 170l142 129l151 -299h-35z" />
    <glyph glyph-name="iacute" unicode="&#xed;" horiz-adv-x="610" 
d="M584 39l32 -39h-559l33 39q34 39 54 97t20 112v579q0 54 -20 112t-54 97l-33 39h451v-827q0 -54 21 -111.5t55 -97.5zM481 1460l-258 -170h-35l150 299z" />
    <glyph glyph-name="icircumflex" unicode="&#xee;" horiz-adv-x="610" 
d="M584 39l32 -39h-559l33 39q34 39 54 97t20 112v579q0 54 -20 112t-54 97l-33 39h451v-827q0 -54 21 -111.5t55 -97.5zM352 1589l258 -170l-141 -129l-135 266l-135 -266l-142 129l258 170h37z" />
    <glyph glyph-name="idieresis" unicode="&#xef;" horiz-adv-x="610" 
d="M584 39l32 -39h-559l33 39q34 39 54 97t20 112v579q0 54 -20 112t-54 97l-33 39h451v-827q0 -54 21 -111.5t55 -97.5zM442 1268q-37 0 -59.5 22.5t-22.5 59.5q0 35 22.5 57.5t59.5 22.5t59.5 -22.5t22.5 -57.5q0 -37 -22.5 -59.5t-59.5 -22.5zM227 1268q-37 0 -59.5 22.5
t-22.5 59.5q0 35 22.5 57.5t59.5 22.5t59.5 -22.5t22.5 -57.5q0 -37 -22.5 -59.5t-59.5 -22.5z" />
    <glyph glyph-name="eth" unicode="&#xf0;" horiz-adv-x="1208" 
d="M801 442q0 183 -64 293.5t-166 110.5q-53 0 -90 -32t-56.5 -90.5t-27.5 -126.5t-8 -155q0 -422 182 -422q105 0 167.5 121t62.5 301zM1157 739q0 -182 -44 -327.5t-122.5 -239t-183.5 -143t-229 -49.5q-147 0 -269 66t-193 181.5t-71 255.5q0 130 62.5 228t162 147
t219.5 49q249 0 324 -219q0 336 -51 533l-100 -74l-25 33l111 86q-32 104 -74.5 160.5t-87.5 56.5q-27 0 -46.5 -19.5t-30 -57.5t-16.5 -73t-12.5 -86.5t-11.5 -77.5q-32 -160 -131 -223q-75 -47 -148 -15q-70 31 -88 118q-14 74 19 168q35 102 108.5 173t163 103.5
t189.5 32.5q197 0 338 -129l59 47l25 -35l-54 -41q99 -103 153 -264t54 -365z" />
    <glyph glyph-name="ntilde" unicode="&#xf1;" horiz-adv-x="1359" 
d="M1262 756v-508q0 -54 20.5 -111.5t54.5 -97.5l31 -39h-559l33 39q34 40 55 97.5t21 111.5v399q0 303 -170 303q-104 0 -172 -111.5t-68 -289.5v-301q0 -54 21 -111.5t55 -97.5l32 -39h-559l33 39q34 39 54 97t20 112v579q0 54 -20 112t-54 97l-33 39h451v-276
q54 140 165 218.5t257 78.5q161 0 246.5 -93t85.5 -247zM520 1288h-20q5 170 123 170q40 0 77 -20.5t70.5 -41t63.5 -20.5q60 0 63 72h23q-1 -28 -2.5 -47t-8.5 -47t-18.5 -44.5t-34.5 -29t-55 -12.5q-49 0 -114 41t-101 41q-59 0 -66 -62z" />
    <glyph glyph-name="ograve" unicode="&#xf2;" horiz-adv-x="1314" 
d="M430 537q0 -235 71.5 -376t198.5 -141q126 0 198.5 141t72.5 376q0 236 -72.5 376t-198.5 140q-127 0 -198.5 -140t-71.5 -376zM86 537q0 256 162.5 407.5t451.5 151.5q288 0 451.5 -152t163.5 -407q0 -254 -163.5 -405.5t-451.5 -151.5q-289 0 -451.5 151.5
t-162.5 405.5zM813 1290l-258 170l141 129l152 -299h-35z" />
    <glyph glyph-name="oacute" unicode="&#xf3;" horiz-adv-x="1314" 
d="M430 537q0 -235 71.5 -376t198.5 -141q126 0 198.5 141t72.5 376q0 236 -72.5 376t-198.5 140q-127 0 -198.5 -140t-71.5 -376zM86 537q0 256 162.5 407.5t451.5 151.5q288 0 451.5 -152t163.5 -407q0 -254 -163.5 -405.5t-451.5 -151.5q-289 0 -451.5 151.5
t-162.5 405.5zM848 1460l-258 -170h-35l150 299z" />
    <glyph glyph-name="ocircumflex" unicode="&#xf4;" horiz-adv-x="1314" 
d="M430 537q0 -235 71.5 -376t198.5 -141q126 0 198.5 141t72.5 376q0 236 -72.5 376t-198.5 140q-127 0 -198.5 -140t-71.5 -376zM86 537q0 256 162.5 407.5t451.5 151.5q288 0 451.5 -152t163.5 -407q0 -254 -163.5 -405.5t-451.5 -151.5q-289 0 -451.5 151.5
t-162.5 405.5zM719 1589l258 -170l-141 -129l-136 266l-135 -266l-141 129l258 170h37z" />
    <glyph glyph-name="otilde" unicode="&#xf5;" horiz-adv-x="1314" 
d="M430 537q0 -235 71.5 -376t198.5 -141q126 0 198.5 141t72.5 376q0 236 -72.5 376t-198.5 140q-127 0 -198.5 -140t-71.5 -376zM86 537q0 256 162.5 407.5t451.5 151.5q288 0 451.5 -152t163.5 -407q0 -254 -163.5 -405.5t-451.5 -151.5q-289 0 -451.5 151.5
t-162.5 405.5zM512 1288h-20q5 170 122 170q50 0 113 -41t98 -41q61 0 64 72h22q-1 -29 -2.5 -47t-8 -46.5t-18.5 -45t-34.5 -29t-54.5 -12.5q-49 0 -114 41t-101 41q-59 0 -66 -62z" />
    <glyph glyph-name="odieresis" unicode="&#xf6;" horiz-adv-x="1314" 
d="M430 537q0 -235 71.5 -376t198.5 -141q126 0 198.5 141t72.5 376q0 236 -72.5 376t-198.5 140q-127 0 -198.5 -140t-71.5 -376zM86 537q0 256 162.5 407.5t451.5 151.5q288 0 451.5 -152t163.5 -407q0 -254 -163.5 -405.5t-451.5 -151.5q-289 0 -451.5 151.5
t-162.5 405.5zM809 1268q-37 0 -59.5 22.5t-22.5 59.5q0 35 22.5 57.5t59.5 22.5t59.5 -22.5t22.5 -57.5q0 -37 -22.5 -59.5t-59.5 -22.5zM594 1268q-37 0 -59.5 22.5t-22.5 59.5q0 35 22.5 57.5t59.5 22.5t59.5 -22.5t22.5 -57.5q0 -37 -22.5 -59.5t-59.5 -22.5z" />
    <glyph glyph-name="divide" unicode="&#xf7;" horiz-adv-x="1314" 
d="M567 344q0 75 47.5 120.5t133.5 45.5q85 0 132.5 -45t47.5 -119q0 -75 -47.5 -120.5t-132.5 -45.5q-86 0 -133.5 45t-47.5 119zM180 774h1133v-43h-1133v43zM567 1161q0 75 47.5 120.5t133.5 45.5q85 0 132.5 -45t47.5 -119q0 -75 -47.5 -120.5t-132.5 -45.5
q-86 0 -133.5 45t-47.5 119z" />
    <glyph glyph-name="oslash" unicode="&#xf8;" horiz-adv-x="1314" 
d="M932 829l-453 -618q34 -91 91 -141t130 -50q126 0 198.5 141t72.5 376q0 167 -39 292zM430 537q0 -169 37 -287l451 618q-34 89 -89.5 137t-128.5 48q-127 0 -198.5 -140t-71.5 -376zM86 537q0 256 162.5 407.5t451.5 151.5q192 0 332 -70l76 102h43l-86 -118
q120 -71 185 -193t65 -280q0 -254 -163.5 -405.5t-451.5 -151.5q-196 0 -338 71l-73 -104h-43l88 121q-121 70 -184.5 191.5t-63.5 277.5z" />
    <glyph glyph-name="ugrave" unicode="&#xf9;" horiz-adv-x="1306" 
d="M139 319v508q0 55 -20 112.5t-53 96.5l-33 39h450v-647q0 -147 40.5 -225t109.5 -78q89 0 152 112.5t63 288.5v301q0 54 -21 111.5t-55 97.5l-33 39h453v-827q0 -54 21 -111.5t55 -97.5l30 -39h-450v274q-54 -138 -159 -216t-238 -78q-148 0 -230 93t-82 246zM782 1290
l-258 170l142 129l151 -299h-35z" />
    <glyph glyph-name="uacute" unicode="&#xfa;" horiz-adv-x="1306" 
d="M139 319v508q0 55 -20 112.5t-53 96.5l-33 39h450v-647q0 -147 40.5 -225t109.5 -78q89 0 152 112.5t63 288.5v301q0 54 -21 111.5t-55 97.5l-33 39h453v-827q0 -54 21 -111.5t55 -97.5l30 -39h-450v274q-54 -138 -159 -216t-238 -78q-148 0 -230 93t-82 246zM817 1460
l-258 -170h-35l150 299z" />
    <glyph glyph-name="ucircumflex" unicode="&#xfb;" horiz-adv-x="1306" 
d="M139 319v508q0 55 -20 112.5t-53 96.5l-33 39h450v-647q0 -147 40.5 -225t109.5 -78q89 0 152 112.5t63 288.5v301q0 54 -21 111.5t-55 97.5l-33 39h453v-827q0 -54 21 -111.5t55 -97.5l30 -39h-450v274q-54 -138 -159 -216t-238 -78q-148 0 -230 93t-82 246zM688 1589
l258 -170l-141 -129l-135 266l-135 -266l-142 129l258 170h37z" />
    <glyph glyph-name="udieresis" unicode="&#xfc;" horiz-adv-x="1306" 
d="M139 319v508q0 55 -20 112.5t-53 96.5l-33 39h450v-647q0 -147 40.5 -225t109.5 -78q89 0 152 112.5t63 288.5v301q0 54 -21 111.5t-55 97.5l-33 39h453v-827q0 -54 21 -111.5t55 -97.5l30 -39h-450v274q-54 -138 -159 -216t-238 -78q-148 0 -230 93t-82 246zM778 1268
q-37 0 -59.5 22.5t-22.5 59.5q0 35 22.5 57.5t59.5 22.5t59.5 -22.5t22.5 -57.5q0 -37 -22.5 -59.5t-59.5 -22.5zM563 1268q-37 0 -59.5 22.5t-22.5 59.5q0 35 22.5 57.5t59.5 22.5t59.5 -22.5t22.5 -57.5q0 -37 -22.5 -59.5t-59.5 -22.5z" />
    <glyph glyph-name="yacute" unicode="&#xfd;" horiz-adv-x="1257" 
d="M920 834l-426 -834q-120 -235 -155 -290q-67 -108 -135 -140q-45 -21 -106 -21q-121 0 -214 68.5t-115 155.5q-21 83 38 131q52 43 122 28q82 -17 119 -103q18 -42 22 -97q3 -23 7 -38t13 -36.5t27 -33t43 -11.5q22 0 42 9t43 34.5t40.5 49.5t47 77t50 93l61.5 120
q1 3 2 4l-397 827q-61 121 -151 199l-56 49h594l-8 -18q-26 -53 -26 -115t26 -115l215 -444l229 451q26 51 23.5 111t-33.5 106l-16 24h284l-55 -47q-96 -80 -155 -194zM635 1460l-258 -170h-35l150 299z" />
    <glyph glyph-name="thorn" unicode="&#xfe;" horiz-adv-x="1150" 
d="M551 84q83 0 135.5 145.5t52.5 372.5q0 199 -42.5 303.5t-108.5 104.5t-118 -98t-52 -275v-172q0 -65 5 -122t17.5 -120.5t41 -101t69.5 -37.5zM494 -391l32 -39h-559l33 39q34 39 54 97t20 112v1439q0 54 -20 112t-54 97l-33 39h451v-602q78 193 272 193
q172 0 282.5 -152.5t110.5 -394.5q0 -253 -119.5 -411t-304.5 -158q-174 0 -241 159v-321q0 -54 21 -111.5t55 -97.5z" />
    <glyph glyph-name="ydieresis" unicode="&#xff;" horiz-adv-x="1257" 
d="M920 834l-426 -834q-120 -235 -155 -290q-67 -108 -135 -140q-45 -21 -106 -21q-121 0 -214 68.5t-115 155.5q-21 83 38 131q52 43 122 28q82 -17 119 -103q18 -42 22 -97q3 -23 7 -38t13 -36.5t27 -33t43 -11.5q22 0 42 9t43 34.5t40.5 49.5t47 77t50 93l61.5 120
q1 3 2 4l-397 827q-61 121 -151 199l-56 49h594l-8 -18q-26 -53 -26 -115t26 -115l215 -444l229 451q26 51 23.5 111t-33.5 106l-16 24h284l-55 -47q-96 -80 -155 -194zM596 1268q-37 0 -59.5 22.5t-22.5 59.5q0 35 22.5 57.5t59.5 22.5t59.5 -22.5t22.5 -57.5
q0 -37 -22.5 -59.5t-59.5 -22.5zM381 1268q-37 0 -59.5 22.5t-22.5 59.5q0 35 22.5 57.5t59.5 22.5t59.5 -22.5t22.5 -57.5q0 -37 -22.5 -59.5t-59.5 -22.5z" />
    <glyph glyph-name="Amacron" unicode="&#x100;" horiz-adv-x="1449" 
d="M291 461h493l-241 596zM186 326l498 1179h47l477 -1179q48 -112 125 -199l115 -127h-631l31 100q17 54 14 114t-24 112l-37 92h-529l-39 -92q-21 -48 -24.5 -111.5t10.5 -114.5l29 -100h-305l118 129q73 80 125 197zM922 1704h-449v96h449v-96z" />
    <glyph glyph-name="amacron" unicode="&#x101;" horiz-adv-x="1167" 
d="M737 541h-47q-123 0 -197.5 -78.5t-74.5 -200.5q0 -87 38 -143t97 -56q76 0 130 97.5t54 277.5v103zM1163 33l27 -33h-453v178q-81 -198 -315 -198q-156 0 -252 79.5t-96 200.5q0 79 45 142.5t118.5 102t161 59t179.5 20.5h159v123q0 173 -42 259.5t-107 86.5
q-97 0 -133 -179q-39 -181 -129 -231q-61 -34 -114 8q-55 43 -55 130q0 24 5 48q24 118 137.5 192.5t292.5 74.5q103 0 189.5 -27.5t154.5 -82.5t106.5 -148t38.5 -215v-367q0 -57 22.5 -118.5t59.5 -104.5zM846 1290h-449v96h449v-96z" />
    <glyph glyph-name="Abreve" unicode="&#x102;" horiz-adv-x="1449" 
d="M291 461h493l-241 596zM186 326l498 1179h47l477 -1179q48 -112 125 -199l115 -127h-631l31 100q17 54 14 114t-24 112l-37 92h-529l-39 -92q-21 -48 -24.5 -111.5t10.5 -114.5l29 -100h-305l118 129q73 80 125 197zM852 1860h18q0 -174 -172 -174q-86 0 -131 44.5
t-45 129.5h21q0 -68 155 -68q154 0 154 68z" />
    <glyph glyph-name="abreve" unicode="&#x103;" horiz-adv-x="1167" 
d="M737 541h-47q-123 0 -197.5 -78.5t-74.5 -200.5q0 -87 38 -143t97 -56q76 0 130 97.5t54 277.5v103zM1163 33l27 -33h-453v178q-81 -198 -315 -198q-156 0 -252 79.5t-96 200.5q0 79 45 142.5t118.5 102t161 59t179.5 20.5h159v123q0 173 -42 259.5t-107 86.5
q-97 0 -133 -179q-39 -181 -129 -231q-61 -34 -114 8q-55 43 -55 130q0 24 5 48q24 118 137.5 192.5t292.5 74.5q103 0 189.5 -27.5t154.5 -82.5t106.5 -148t38.5 -215v-367q0 -57 22.5 -118.5t59.5 -104.5zM776 1446h19q0 -174 -172 -174q-86 0 -131.5 44.5t-45.5 129.5h21
q0 -68 156 -68q153 0 153 68z" />
    <glyph glyph-name="Aogonek" unicode="&#x104;" horiz-adv-x="1449" 
d="M291 461h493l-241 596zM186 326l498 1179h47l477 -1179q48 -112 125 -199l115 -127h-631l31 100q17 54 14 114t-24 112l-37 92h-529l-39 -92q-21 -48 -24.5 -111.5t10.5 -114.5l29 -100h-305l118 129q73 80 125 197zM1311 0h20q-7 -16 -19.5 -41t-17.5 -35.5t-11.5 -27
t-8.5 -28.5t-2 -26q0 -75 74 -75q36 0 58.5 17.5t22.5 47.5h21q0 -61 -35.5 -97t-95.5 -36q-59 0 -96 34t-37 87q0 29 14.5 57.5t29 44t45 43t38.5 35.5z" />
    <glyph glyph-name="aogonek" unicode="&#x105;" horiz-adv-x="1167" 
d="M737 541h-47q-123 0 -197.5 -78.5t-74.5 -200.5q0 -87 38 -143t97 -56q76 0 130 97.5t54 277.5v103zM1163 33l27 -33h-453v178q-81 -198 -315 -198q-156 0 -252 79.5t-96 200.5q0 79 45 142.5t118.5 102t161 59t179.5 20.5h159v123q0 173 -42 259.5t-107 86.5
q-97 0 -133 -179q-39 -181 -129 -231q-61 -34 -114 8q-55 43 -55 130q0 24 5 48q24 118 137.5 192.5t292.5 74.5q103 0 189.5 -27.5t154.5 -82.5t106.5 -148t38.5 -215v-367q0 -57 22.5 -118.5t59.5 -104.5zM1053 0h20q-7 -16 -19.5 -41t-17.5 -35.5t-11.5 -27t-8.5 -28.5
t-2 -26q0 -75 73 -75q36 0 59 17.5t23 47.5h21q0 -61 -35.5 -97t-95.5 -36q-59 0 -96 34t-37 87q0 29 14.5 57.5t29 44t45 43t38.5 35.5z" />
    <glyph glyph-name="Cacute" unicode="&#x106;" horiz-adv-x="1308" 
d="M1321 455q-53 -156 -152.5 -265.5t-214.5 -159.5t-239 -50q-128 0 -243 56.5t-200.5 156t-135.5 246.5t-50 319q0 346 189.5 557t496.5 211q180 0 314 -78t188 -231q50 -145 -9 -234q-43 -65 -121 -64q-87 0 -151 85q-49 65 -69 165q-4 20 -10 64t-11 72t-16 65.5t-26 59
t-41 37.5t-60 16q-86 0 -162 -86t-122 -234t-46 -319q0 -177 49.5 -312.5t149 -213.5t235.5 -78q218 0 457 215zM844 1874l-258 -170h-35l149 299z" />
    <glyph glyph-name="cacute" unicode="&#x107;" 
d="M702 172q65 0 156 35t195 129q-30 -68 -70.5 -126.5t-97.5 -112.5t-135.5 -85.5t-167.5 -31.5q-100 0 -190 40.5t-156.5 112t-106 177t-39.5 227.5q0 249 147 404t373 155q158 0 268 -75.5t132 -191.5q19 -98 -31 -159q-43 -53 -103 -38q-76 18 -125 134q-19 47 -32 108
q-42 179 -121 179q-69 0 -116.5 -124.5t-47.5 -307.5q0 -214 70 -331.5t198 -117.5zM713 1460l-258 -170h-35l149 299z" />
    <glyph glyph-name="Ccircumflex" unicode="&#x108;" horiz-adv-x="1308" 
d="M1321 455q-53 -156 -152.5 -265.5t-214.5 -159.5t-239 -50q-128 0 -243 56.5t-200.5 156t-135.5 246.5t-50 319q0 346 189.5 557t496.5 211q180 0 314 -78t188 -231q50 -145 -9 -234q-43 -65 -121 -64q-87 0 -151 85q-49 65 -69 165q-4 20 -10 64t-11 72t-16 65.5t-26 59
t-41 37.5t-60 16q-86 0 -162 -86t-122 -234t-46 -319q0 -177 49.5 -312.5t149 -213.5t235.5 -78q218 0 457 215zM717 2003l258 -170l-141 -129l-136 266l-135 -266l-141 129l258 170h37z" />
    <glyph glyph-name="ccircumflex" unicode="&#x109;" 
d="M702 172q65 0 156 35t195 129q-30 -68 -70.5 -126.5t-97.5 -112.5t-135.5 -85.5t-167.5 -31.5q-100 0 -190 40.5t-156.5 112t-106 177t-39.5 227.5q0 249 147 404t373 155q158 0 268 -75.5t132 -191.5q19 -98 -31 -159q-43 -53 -103 -38q-76 18 -125 134q-19 47 -32 108
q-42 179 -121 179q-69 0 -116.5 -124.5t-47.5 -307.5q0 -214 70 -331.5t198 -117.5zM584 1589l258 -170l-142 -129l-135 266l-135 -266l-141 129l258 170h37z" />
    <glyph glyph-name="Cdotaccent" unicode="&#x10a;" horiz-adv-x="1308" 
d="M1321 455q-53 -156 -152.5 -265.5t-214.5 -159.5t-239 -50q-128 0 -243 56.5t-200.5 156t-135.5 246.5t-50 319q0 346 189.5 557t496.5 211q180 0 314 -78t188 -231q50 -145 -9 -234q-43 -65 -121 -64q-87 0 -151 85q-49 65 -69 165q-4 20 -10 64t-11 72t-16 65.5t-26 59
t-41 37.5t-60 16q-86 0 -162 -86t-122 -234t-46 -319q0 -177 49.5 -312.5t149 -213.5t235.5 -78q218 0 457 215zM698 1681q-37 0 -59.5 22.5t-22.5 59.5q0 35 22.5 57.5t59.5 22.5t59.5 -22.5t22.5 -57.5q0 -37 -22.5 -59.5t-59.5 -22.5z" />
    <glyph glyph-name="cdotaccent" unicode="&#x10b;" 
d="M702 172q65 0 156 35t195 129q-30 -68 -70.5 -126.5t-97.5 -112.5t-135.5 -85.5t-167.5 -31.5q-100 0 -190 40.5t-156.5 112t-106 177t-39.5 227.5q0 249 147 404t373 155q158 0 268 -75.5t132 -191.5q19 -98 -31 -159q-43 -53 -103 -38q-76 18 -125 134q-19 47 -32 108
q-42 179 -121 179q-69 0 -116.5 -124.5t-47.5 -307.5q0 -214 70 -331.5t198 -117.5zM565 1268q-37 0 -59.5 22.5t-22.5 59.5q0 35 22.5 57.5t59.5 22.5t59.5 -22.5t22.5 -57.5q0 -37 -22.5 -59.5t-59.5 -22.5z" />
    <glyph glyph-name="Ccaron" unicode="&#x10c;" horiz-adv-x="1308" 
d="M1321 455q-53 -156 -152.5 -265.5t-214.5 -159.5t-239 -50q-128 0 -243 56.5t-200.5 156t-135.5 246.5t-50 319q0 346 189.5 557t496.5 211q180 0 314 -78t188 -231q50 -145 -9 -234q-43 -65 -121 -64q-87 0 -151 85q-49 65 -69 165q-4 20 -10 64t-11 72t-16 65.5t-26 59
t-41 37.5t-60 16q-86 0 -162 -86t-122 -234t-46 -319q0 -177 49.5 -312.5t149 -213.5t235.5 -78q218 0 457 215zM975 1874l-258 -170h-37l-258 170l141 129l135 -266l136 266z" />
    <glyph glyph-name="ccaron" unicode="&#x10d;" 
d="M702 172q65 0 156 35t195 129q-30 -68 -70.5 -126.5t-97.5 -112.5t-135.5 -85.5t-167.5 -31.5q-100 0 -190 40.5t-156.5 112t-106 177t-39.5 227.5q0 249 147 404t373 155q158 0 268 -75.5t132 -191.5q19 -98 -31 -159q-43 -53 -103 -38q-76 18 -125 134q-19 47 -32 108
q-42 179 -121 179q-69 0 -116.5 -124.5t-47.5 -307.5q0 -214 70 -331.5t198 -117.5zM842 1460l-258 -170h-37l-258 170l141 129l135 -266l135 266z" />
    <glyph glyph-name="Dcaron" unicode="&#x10e;" horiz-adv-x="1370" 
d="M516 43h80q71 0 130 19.5t113.5 69t91.5 128t59 203.5t22 289q0 710 -416 710h-80v-1419zM768 0h-702l32 39q34 39 54 97t20 112v1009q0 54 -20 112t-54 97l-32 39h702q56 0 111.5 -10.5t114.5 -36t110.5 -64.5t98.5 -99t80.5 -136t53 -180.5t19.5 -226.5
q0 -169 -37.5 -302.5t-97 -216t-139 -137t-157 -75.5t-157.5 -21zM995 1874l-258 -170h-37l-258 170l142 129l135 -266l135 266z" />
    <glyph glyph-name="dcaron" unicode="&#x10f;" horiz-adv-x="1658" 
d="M596 63q67 0 118.5 98.5t51.5 276.5v172q0 381 -131 381q-83 0 -136 -146t-53 -372q0 -198 42.5 -304t107.5 -106zM1186 39l33 -39h-453v172q-74 -192 -270 -192q-173 0 -283.5 152t-110.5 394q0 253 119.5 411.5t304.5 158.5q176 0 240 -160v321q0 54 -20 112t-54 97
l-33 39h451v-1257q0 -54 21 -111.5t55 -97.5zM1282 1362q0 75 47 119.5t133 44.5q85 0 132.5 -44.5t47.5 -117.5q0 -112 -75.5 -204.5t-186.5 -127.5l-16 33q11 7 43 26.5t43.5 27.5t32.5 24t33.5 31.5t23.5 35.5q-34 -12 -78 -12q-86 0 -133 44.5t-47 119.5z" />
    <glyph glyph-name="Dcroat" unicode="&#x110;" horiz-adv-x="1402" 
d="M539 43h79q71 0 130 19.5t113.5 69t91.5 128t59 203.5t22 289q0 710 -416 710h-79v-663h145v-43h-145v-713zM791 0h-703l33 39q34 39 54 97t20 112v508h-150v43h150v458q0 54 -20 112t-54 97l-33 39h703q80 0 157.5 -21t157 -75.5t138.5 -137t96.5 -216.5t37.5 -303
t-37.5 -302.5t-96.5 -216t-138.5 -137t-157 -75.5t-157.5 -21z" />
    <glyph glyph-name="dcroat" unicode="&#x111;" horiz-adv-x="1191" 
d="M596 63q67 0 118.5 98.5t51.5 276.5v172q0 381 -131 381q-83 0 -136 -146t-53 -372q0 -198 42.5 -304t107.5 -106zM1186 39l33 -39h-453v172q-74 -192 -270 -192q-173 0 -283.5 152t-110.5 394q0 253 119.5 411.5t304.5 158.5q176 0 240 -160v321q0 23 -2 33h-404v96h379
q-25 56 -47 80l-33 39h451v-119h129v-96h-129v-1042q0 -54 21 -111.5t55 -97.5z" />
    <glyph glyph-name="Emacron" unicode="&#x112;" horiz-adv-x="1284" 
d="M635 731h-119v-688h189q120 0 243 51t207 135l92 93h43l-63 -322h-1161l32 39q34 39 54 97t20 112v1009q0 54 -20 112t-54 97l-32 39h1138l66 -323h-43l-92 94q-85 84 -209 135t-244 51h-166v-688h119q63 0 122 32.5t91 86.5l35 53h43v-387h-43l-35 53q-32 54 -91 86.5
t-122 32.5zM899 1704h-448v96h448v-96z" />
    <glyph glyph-name="emacron" unicode="&#x113;" 
d="M434 621v-5h262q4 221 -28.5 329t-92.5 108q-65 0 -103 -118t-38 -314zM700 172q172 0 353 164q-30 -68 -70.5 -126.5t-97.5 -112.5t-135.5 -85.5t-167.5 -31.5q-100 0 -190 40.5t-156.5 112t-106 177t-39.5 227.5q0 123 39.5 228.5t107 177.5t158.5 112.5t193 40.5
q189 0 305.5 -131t116.5 -349v-43h-576q8 -192 77 -296.5t189 -104.5zM791 1290h-449v96h449v-96z" />
    <glyph glyph-name="Ebreve" unicode="&#x114;" horiz-adv-x="1284" 
d="M635 731h-119v-688h189q120 0 243 51t207 135l92 93h43l-63 -322h-1161l32 39q34 39 54 97t20 112v1009q0 54 -20 112t-54 97l-32 39h1138l66 -323h-43l-92 94q-85 84 -209 135t-244 51h-166v-688h119q63 0 122 32.5t91 86.5l35 53h43v-387h-43l-35 53q-32 54 -91 86.5
t-122 32.5zM831 1860h19q0 -174 -172 -174q-86 0 -131 44.5t-45 129.5h20q0 -68 156 -68q153 0 153 68z" />
    <glyph glyph-name="ebreve" unicode="&#x115;" 
d="M434 621v-5h262q4 221 -28.5 329t-92.5 108q-65 0 -103 -118t-38 -314zM700 172q172 0 353 164q-30 -68 -70.5 -126.5t-97.5 -112.5t-135.5 -85.5t-167.5 -31.5q-100 0 -190 40.5t-156.5 112t-106 177t-39.5 227.5q0 123 39.5 228.5t107 177.5t158.5 112.5t193 40.5
q189 0 305.5 -131t116.5 -349v-43h-576q8 -192 77 -296.5t189 -104.5zM721 1446h18q0 -174 -172 -174q-86 0 -131 44.5t-45 129.5h21q0 -68 155 -68q154 0 154 68z" />
    <glyph glyph-name="Edotaccent" unicode="&#x116;" horiz-adv-x="1284" 
d="M635 731h-119v-688h189q120 0 243 51t207 135l92 93h43l-63 -322h-1161l32 39q34 39 54 97t20 112v1009q0 54 -20 112t-54 97l-32 39h1138l66 -323h-43l-92 94q-85 84 -209 135t-244 51h-166v-688h119q63 0 122 32.5t91 86.5l35 53h43v-387h-43l-35 53q-32 54 -91 86.5
t-122 32.5zM676 1681q-37 0 -59.5 22.5t-22.5 59.5q0 35 22.5 57.5t59.5 22.5t59.5 -22.5t22.5 -57.5q0 -37 -22.5 -59.5t-59.5 -22.5z" />
    <glyph glyph-name="edotaccent" unicode="&#x117;" 
d="M434 621v-5h262q4 221 -28.5 329t-92.5 108q-65 0 -103 -118t-38 -314zM700 172q172 0 353 164q-30 -68 -70.5 -126.5t-97.5 -112.5t-135.5 -85.5t-167.5 -31.5q-100 0 -190 40.5t-156.5 112t-106 177t-39.5 227.5q0 123 39.5 228.5t107 177.5t158.5 112.5t193 40.5
q189 0 305.5 -131t116.5 -349v-43h-576q8 -192 77 -296.5t189 -104.5zM565 1268q-37 0 -59.5 22.5t-22.5 59.5q0 35 22.5 57.5t59.5 22.5t59.5 -22.5t22.5 -57.5q0 -37 -22.5 -59.5t-59.5 -22.5z" />
    <glyph glyph-name="Eogonek" unicode="&#x118;" horiz-adv-x="1284" 
d="M635 731h-119v-688h189q120 0 243 51t207 135l92 93h43l-63 -322h-1161l32 39q34 39 54 97t20 112v1009q0 54 -20 112t-54 97l-32 39h1138l66 -323h-43l-92 94q-85 84 -209 135t-244 51h-166v-688h119q63 0 122 32.5t91 86.5l35 53h43v-387h-43l-35 53q-32 54 -91 86.5
t-122 32.5zM903 0h21q-8 -17 -20 -41t-17.5 -35.5t-11.5 -27t-8.5 -28t-2.5 -26.5q0 -75 74 -75q36 0 59 17.5t23 47.5h20q0 -61 -35.5 -97t-95.5 -36q-59 0 -96 34t-37 87q0 29 14.5 57.5t29 44t45 43t38.5 35.5z" />
    <glyph glyph-name="eogonek" unicode="&#x119;" 
d="M434 621v-5h262q4 221 -28.5 329t-92.5 108q-65 0 -103 -118t-38 -314zM700 172q172 0 353 164q-30 -68 -70.5 -126.5t-97.5 -112.5t-135.5 -85.5t-167.5 -31.5q-100 0 -190 40.5t-156.5 112t-106 177t-39.5 227.5q0 123 39.5 228.5t107 177.5t158.5 112.5t193 40.5
q189 0 305.5 -131t116.5 -349v-43h-576q8 -192 77 -296.5t189 -104.5zM915 0h21q-7 -16 -19.5 -41t-17.5 -35.5t-11.5 -27t-8.5 -28.5t-2 -26q0 -75 73 -75q36 0 59 17.5t23 47.5h21q0 -61 -35.5 -97t-95.5 -36t-97 34t-37 87q0 29 14.5 57.5t29 44t45 43t38.5 35.5z" />
    <glyph glyph-name="Ecaron" unicode="&#x11a;" horiz-adv-x="1284" 
d="M635 731h-119v-688h189q120 0 243 51t207 135l92 93h43l-63 -322h-1161l32 39q34 39 54 97t20 112v1009q0 54 -20 112t-54 97l-32 39h1138l66 -323h-43l-92 94q-85 84 -209 135t-244 51h-166v-688h119q63 0 122 32.5t91 86.5l35 53h43v-387h-43l-35 53q-32 54 -91 86.5
t-122 32.5zM952 1874l-258 -170h-37l-258 170l142 129l135 -266l135 266z" />
    <glyph glyph-name="ecaron" unicode="&#x11b;" 
d="M434 621v-5h262q4 221 -28.5 329t-92.5 108q-65 0 -103 -118t-38 -314zM700 172q172 0 353 164q-30 -68 -70.5 -126.5t-97.5 -112.5t-135.5 -85.5t-167.5 -31.5q-100 0 -190 40.5t-156.5 112t-106 177t-39.5 227.5q0 123 39.5 228.5t107 177.5t158.5 112.5t193 40.5
q189 0 305.5 -131t116.5 -349v-43h-576q8 -192 77 -296.5t189 -104.5zM842 1460l-258 -170h-37l-258 170l141 129l135 -266l135 266z" />
    <glyph glyph-name="Gcircumflex" unicode="&#x11c;" horiz-adv-x="1370" 
d="M1057 113q-153 -133 -357 -133q-123 0 -235 56.5t-196 156t-133.5 247t-49.5 318.5q0 346 189.5 557t496.5 211q180 0 314 -78t188 -231q50 -145 -9 -234q-43 -65 -121 -64q-87 0 -151 85q-49 65 -69 165q-4 20 -10 64t-11 72t-16 65.5t-26 59t-41 37.5t-60 16
q-86 0 -162 -87t-122 -242.5t-46 -342.5q0 -288 108 -462.5t289 -174.5q53 0 109 16v336q0 54 -21 111.5t-55 97.5l-33 39h559l-32 -39q-34 -39 -54 -97t-20 -112v-526zM748 2003l258 -170l-142 -129l-135 266l-135 -266l-141 129l258 170h37z" />
    <glyph glyph-name="gcircumflex" unicode="&#x11d;" horiz-adv-x="1245" 
d="M401 -76q6 -11 9 -28q10 -38 33 -82t60.5 -91.5t95 -78.5t122.5 -31q90 0 154.5 53t64.5 133q0 46 -24.5 74.5t-62 40t-96.5 15t-112 1t-124.5 -5t-119.5 -0.5zM438 694q0 -159 64.5 -265.5t163.5 -106.5t163 105t64 265q0 162 -64.5 261.5t-164.5 99.5
q-99 0 -162.5 -100t-63.5 -259zM94 696q0 179 155.5 289.5t407.5 110.5q121 0 189.5 12.5t91.5 33t23 54.5q0 33 -19 49.5t-57 26.5q-92 20 -105 75q-11 44 34 79q61 46 156 23q5 -1 11 -3q70 -22 109.5 -71t39.5 -113q0 -155 -245 -193q161 -42 256.5 -141.5t95.5 -233.5
q0 -180 -160.5 -297.5t-412.5 -117.5h-9q-95 0 -145.5 -14.5t-50.5 -39.5q0 -23 44 -28.5t114 -0.5t155 11t170 -0.5t155 -27.5t114 -76.5t44 -141.5q0 -173 -161 -282t-414 -109q-199 0 -338 67t-184 181q-41 112 35 170q-50 50 -50 131q0 98 66.5 141.5t210.5 54.5
q-152 50 -239 150.5t-87 230.5zM688 1589l258 -170l-141 -129l-135 266l-135 -266l-142 129l258 170h37z" />
    <glyph glyph-name="Gbreve" unicode="&#x11e;" horiz-adv-x="1370" 
d="M1057 113q-153 -133 -357 -133q-123 0 -235 56.5t-196 156t-133.5 247t-49.5 318.5q0 346 189.5 557t496.5 211q180 0 314 -78t188 -231q50 -145 -9 -234q-43 -65 -121 -64q-87 0 -151 85q-49 65 -69 165q-4 20 -10 64t-11 72t-16 65.5t-26 59t-41 37.5t-60 16
q-86 0 -162 -87t-122 -242.5t-46 -342.5q0 -288 108 -462.5t289 -174.5q53 0 109 16v336q0 54 -21 111.5t-55 97.5l-33 39h559l-32 -39q-34 -39 -54 -97t-20 -112v-526zM885 1860h18q0 -174 -172 -174q-86 0 -131 44.5t-45 129.5h20q0 -68 156 -68q154 0 154 68z" />
    <glyph glyph-name="gbreve" unicode="&#x11f;" horiz-adv-x="1245" 
d="M401 -76q6 -11 9 -28q10 -38 33 -82t60.5 -91.5t95 -78.5t122.5 -31q90 0 154.5 53t64.5 133q0 46 -24.5 74.5t-62 40t-96.5 15t-112 1t-124.5 -5t-119.5 -0.5zM438 694q0 -159 64.5 -265.5t163.5 -106.5t163 105t64 265q0 162 -64.5 261.5t-164.5 99.5
q-99 0 -162.5 -100t-63.5 -259zM94 696q0 179 155.5 289.5t407.5 110.5q121 0 189.5 12.5t91.5 33t23 54.5q0 33 -19 49.5t-57 26.5q-92 20 -105 75q-11 44 34 79q61 46 156 23q5 -1 11 -3q70 -22 109.5 -71t39.5 -113q0 -155 -245 -193q161 -42 256.5 -141.5t95.5 -233.5
q0 -180 -160.5 -297.5t-412.5 -117.5h-9q-95 0 -145.5 -14.5t-50.5 -39.5q0 -23 44 -28.5t114 -0.5t155 11t170 -0.5t155 -27.5t114 -76.5t44 -141.5q0 -173 -161 -282t-414 -109q-199 0 -338 67t-184 181q-41 112 35 170q-50 50 -50 131q0 98 66.5 141.5t210.5 54.5
q-152 50 -239 150.5t-87 230.5zM825 1446h19q0 -174 -172 -174q-86 0 -131 44.5t-45 129.5h20q0 -68 156 -68q153 0 153 68z" />
    <glyph glyph-name="Gdotaccent" unicode="&#x120;" horiz-adv-x="1370" 
d="M1057 113q-153 -133 -357 -133q-123 0 -235 56.5t-196 156t-133.5 247t-49.5 318.5q0 346 189.5 557t496.5 211q180 0 314 -78t188 -231q50 -145 -9 -234q-43 -65 -121 -64q-87 0 -151 85q-49 65 -69 165q-4 20 -10 64t-11 72t-16 65.5t-26 59t-41 37.5t-60 16
q-86 0 -162 -87t-122 -242.5t-46 -342.5q0 -288 108 -462.5t289 -174.5q53 0 109 16v336q0 54 -21 111.5t-55 97.5l-33 39h559l-32 -39q-34 -39 -54 -97t-20 -112v-526zM729 1681q-37 0 -59.5 22.5t-22.5 59.5q0 35 22.5 57.5t59.5 22.5t59.5 -22.5t22.5 -57.5
q0 -37 -22.5 -59.5t-59.5 -22.5z" />
    <glyph glyph-name="gdotaccent" unicode="&#x121;" horiz-adv-x="1245" 
d="M401 -76q6 -11 9 -28q10 -38 33 -82t60.5 -91.5t95 -78.5t122.5 -31q90 0 154.5 53t64.5 133q0 46 -24.5 74.5t-62 40t-96.5 15t-112 1t-124.5 -5t-119.5 -0.5zM438 694q0 -159 64.5 -265.5t163.5 -106.5t163 105t64 265q0 162 -64.5 261.5t-164.5 99.5
q-99 0 -162.5 -100t-63.5 -259zM94 696q0 179 155.5 289.5t407.5 110.5q121 0 189.5 12.5t91.5 33t23 54.5q0 33 -19 49.5t-57 26.5q-92 20 -105 75q-11 44 34 79q61 46 156 23q5 -1 11 -3q70 -22 109.5 -71t39.5 -113q0 -155 -245 -193q161 -42 256.5 -141.5t95.5 -233.5
q0 -180 -160.5 -297.5t-412.5 -117.5h-9q-95 0 -145.5 -14.5t-50.5 -39.5q0 -23 44 -28.5t114 -0.5t155 11t170 -0.5t155 -27.5t114 -76.5t44 -141.5q0 -173 -161 -282t-414 -109q-199 0 -338 67t-184 181q-41 112 35 170q-50 50 -50 131q0 98 66.5 141.5t210.5 54.5
q-152 50 -239 150.5t-87 230.5zM670 1268q-37 0 -59.5 22.5t-22.5 59.5q0 35 22.5 57.5t59.5 22.5t59.5 -22.5t22.5 -57.5q0 -37 -22.5 -59.5t-59.5 -22.5z" />
    <glyph glyph-name="gcedilla" unicode="&#x123;" horiz-adv-x="1245" 
d="M401 -76q6 -11 9 -28q10 -38 33 -82t60.5 -91.5t95 -78.5t122.5 -31q90 0 154.5 53t64.5 133q0 46 -24.5 74.5t-62 40t-96.5 15t-112 1t-124.5 -5t-119.5 -0.5zM438 694q0 -159 64.5 -265.5t163.5 -106.5t163 105t64 265q0 162 -64.5 261.5t-164.5 99.5
q-99 0 -162.5 -100t-63.5 -259zM94 696q0 179 155.5 289.5t407.5 110.5q121 0 189.5 12.5t91.5 33t23 54.5q0 33 -19 49.5t-57 26.5q-92 20 -105 75q-11 44 34 79q61 46 156 23q5 -1 11 -3q70 -22 109.5 -71t39.5 -113q0 -155 -245 -193q161 -42 256.5 -141.5t95.5 -233.5
q0 -180 -160.5 -297.5t-412.5 -117.5h-9q-95 0 -145.5 -14.5t-50.5 -39.5q0 -23 44 -28.5t114 -0.5t155 11t170 -0.5t155 -27.5t114 -76.5t44 -141.5q0 -173 -161 -282t-414 -109q-199 0 -338 67t-184 181q-41 112 35 170q-50 50 -50 131q0 98 66.5 141.5t210.5 54.5
q-152 50 -239 150.5t-87 230.5zM850 1612q0 -75 -47 -120.5t-133 -45.5q-84 0 -132.5 45.5t-48.5 118.5q0 110 76.5 202t186.5 127l16 -30q-12 -8 -42.5 -26.5t-43 -27.5t-33 -25t-33.5 -32.5t-24 -36.5q34 15 78 15q86 0 133 -45t47 -119z" />
    <glyph glyph-name="Itilde" unicode="&#x128;" horiz-adv-x="624" 
d="M592 39l33 -39h-559l32 39q34 39 54 97t20 112v1009q0 54 -20 112t-54 97l-32 39h559l-33 -39q-34 -40 -55 -97.5t-21 -111.5v-1009q0 -54 21 -111.5t55 -97.5zM156 1702h-21q5 170 123 170q50 0 113 -41t98 -41q60 0 63 72h23q-1 -28 -2.5 -47t-8.5 -47t-18.5 -45
t-34.5 -29.5t-55 -12.5q-49 0 -114 41t-101 41q-58 0 -65 -61z" />
    <glyph glyph-name="itilde" unicode="&#x129;" horiz-adv-x="610" 
d="M584 39l32 -39h-559l33 39q34 39 54 97t20 112v579q0 54 -20 112t-54 97l-33 39h451v-827q0 -54 21 -111.5t55 -97.5zM145 1288h-20q5 170 123 170q50 0 113 -41t98 -41q60 0 63 72h23q-1 -28 -2.5 -47t-8.5 -47t-18.5 -44.5t-34.5 -29t-55 -12.5q-49 0 -114 41t-101 41
q-59 0 -66 -62z" />
    <glyph glyph-name="Imacron" unicode="&#x12a;" horiz-adv-x="624" 
d="M592 39l33 -39h-559l32 39q34 39 54 97t20 112v1009q0 54 -20 112t-54 97l-32 39h559l-33 -39q-34 -40 -55 -97.5t-21 -111.5v-1009q0 -54 21 -111.5t55 -97.5zM569 1704h-448v96h448v-96z" />
    <glyph glyph-name="imacron" unicode="&#x12b;" horiz-adv-x="610" 
d="M584 39l32 -39h-559l33 39q34 39 54 97t20 112v579q0 54 -20 112t-54 97l-33 39h451v-827q0 -54 21 -111.5t55 -97.5zM559 1290h-448v96h448v-96z" />
    <glyph glyph-name="Ibreve" unicode="&#x12c;" horiz-adv-x="624" 
d="M592 39l33 -39h-559l32 39q34 39 54 97t20 112v1009q0 54 -20 112t-54 97l-32 39h559l-33 -39q-34 -40 -55 -97.5t-21 -111.5v-1009q0 -54 21 -111.5t55 -97.5zM502 1860h18q0 -174 -172 -174q-86 0 -131 44.5t-45 129.5h21q0 -68 155 -68q154 0 154 68z" />
    <glyph glyph-name="ibreve" unicode="&#x12d;" horiz-adv-x="610" 
d="M584 39l32 -39h-559l33 39q34 39 54 97t20 112v579q0 54 -20 112t-54 97l-33 39h451v-827q0 -54 21 -111.5t55 -97.5zM489 1446h19q0 -174 -172 -174q-86 0 -131 44.5t-45 129.5h20q0 -68 156 -68q153 0 153 68z" />
    <glyph glyph-name="Iogonek" unicode="&#x12e;" horiz-adv-x="624" 
d="M592 39l33 -39h-559l32 39q34 39 54 97t20 112v1009q0 54 -20 112t-54 97l-32 39h559l-33 -39q-34 -40 -55 -97.5t-21 -111.5v-1009q0 -54 21 -111.5t55 -97.5zM487 0h21q-7 -16 -19.5 -41t-17.5 -35.5t-11.5 -27t-8.5 -28.5t-2 -26q0 -75 73 -75q36 0 59 17.5t23 47.5
h21q0 -61 -35.5 -97t-95.5 -36t-97 34t-37 87q0 29 14.5 57.5t29 44t45 43t38.5 35.5z" />
    <glyph glyph-name="iogonek" unicode="&#x12f;" horiz-adv-x="610" 
d="M584 39l32 -39h-559l33 39q34 39 54 97t20 112v579q0 54 -20 112t-54 97l-33 39h451v-827q0 -54 21 -111.5t55 -97.5zM104 1319q0 95 61 151t169 56q109 0 170 -56t61 -151t-61 -152t-170 -57q-107 0 -168.5 57t-61.5 152zM330 0h20q-7 -16 -19.5 -41t-17.5 -35.5
t-11.5 -27t-8.5 -28.5t-2 -26q0 -75 74 -75q36 0 58.5 17.5t22.5 47.5h21q0 -61 -35.5 -97t-95.5 -36q-59 0 -96 34t-37 87q0 29 14.5 57.5t29 44t45 43t38.5 35.5z" />
    <glyph glyph-name="Idotaccent" unicode="&#x130;" horiz-adv-x="624" 
d="M592 39l33 -39h-559l32 39q34 39 54 97t20 112v1009q0 54 -20 112t-54 97l-32 39h559l-33 -39q-34 -40 -55 -97.5t-21 -111.5v-1009q0 -54 21 -111.5t55 -97.5zM346 1681q-37 0 -59.5 22.5t-22.5 59.5q0 35 22.5 57.5t59.5 22.5t59.5 -22.5t22.5 -57.5q0 -37 -22.5 -59.5
t-59.5 -22.5z" />
    <glyph glyph-name="idotless" unicode="&#x131;" horiz-adv-x="610" 
d="M584 39l32 -39h-559l33 39q34 39 54 97t20 112v579q0 54 -20 112t-54 97l-33 39h451v-827q0 -54 21 -111.5t55 -97.5z" />
    <glyph glyph-name="IJ" unicode="&#x132;" horiz-adv-x="1818" 
d="M592 39l33 -39h-559l32 39q34 39 54 97t20 112v1009q0 54 -20 112t-54 97l-32 39h559l-33 -39q-34 -40 -55 -97.5t-21 -111.5v-1009q0 -54 21 -111.5t55 -97.5zM1833 1505l-33 -39q-34 -39 -54 -97t-20 -112v-616q0 -350 -123 -505.5t-403 -155.5q-203 0 -340.5 77
t-191.5 232q-52 146 8 234q44 65 121 64q86 -2 151 -87q48 -64 68 -164q4 -20 11 -64t12 -72.5t17.5 -66t29 -59.5t45.5 -38t67 -16q47 0 80 23t53 63.5t31.5 110t15.5 147.5t4 191v702q0 54 -20.5 111.5t-54.5 97.5l-33 39h559z" />
    <glyph glyph-name="ij" unicode="&#x133;" horiz-adv-x="1173" 
d="M584 39l32 -39h-559l33 39q34 39 54 97t20 112v579q0 54 -20 112t-54 97l-33 39h451v-827q0 -54 21 -111.5t55 -97.5zM104 1319q0 95 61 151t169 56q109 0 170 -56t61 -151t-61 -152t-170 -57q-107 0 -168.5 57t-61.5 152zM692 1036l-33 39h453v-1032q0 -494 -450 -494
q-157 0 -258 68.5t-123 165.5q-20 88 37 139q50 45 118 29q80 -20 119 -113q22 -52 27 -121q10 -125 80 -125q18 0 32.5 8t25.5 25.5t19 38.5t13 53t8.5 63t5 74.5t2 81.5t0.5 89v802q0 54 -21 111.5t-55 97.5zM707 1319q0 95 61 151t170 56q108 0 168.5 -56t60.5 -151
t-61 -152t-168 -57q-109 0 -170 57t-61 152z" />
    <glyph glyph-name="Lslash" unicode="&#x141;" horiz-adv-x="1271" 
d="M641 1505l-33 -39q-34 -40 -55 -97.5t-21 -111.5v-466l101 53l22 -39l-123 -64v-698h187q119 0 243 51t209 135l93 93h43l-64 -322h-1161l31 39q34 40 54.5 97.5t20.5 111.5v317l-110 -55l-21 39l131 65v643q0 54 -20.5 111.5t-54.5 97.5l-31 39h559z" />
    <glyph glyph-name="lslash" unicode="&#x142;" horiz-adv-x="645" 
d="M590 39l33 -39h-560l33 39q34 40 55 97.5t21 111.5v309l-94 -47l-21 39l115 57v651q0 54 -21 111.5t-55 97.5l-33 39h453v-723l117 62l22 -39l-139 -72v-485q0 -54 20 -112t54 -97z" />
    <glyph glyph-name="Nacute" unicode="&#x143;" horiz-adv-x="1263" 
d="M291 39l33 -39h-258l32 39q34 39 54 97t20 112v1009q0 54 -20 112t-54 97l-32 39h442l610 -901v653q0 54 -20 112t-54 97l-32 39h258l-33 -39q-34 -40 -55 -97.5t-21 -111.5v-1257h-43l-903 1325v-1077q0 -54 21 -111.5t55 -97.5zM811 1874l-258 -170h-35l150 299z" />
    <glyph glyph-name="nacute" unicode="&#x144;" horiz-adv-x="1359" 
d="M1262 756v-508q0 -54 20.5 -111.5t54.5 -97.5l31 -39h-559l33 39q34 40 55 97.5t21 111.5v399q0 303 -170 303q-104 0 -172 -111.5t-68 -289.5v-301q0 -54 21 -111.5t55 -97.5l32 -39h-559l33 39q34 39 54 97t20 112v579q0 54 -20 112t-54 97l-33 39h451v-276
q54 140 165 218.5t257 78.5q161 0 246.5 -93t85.5 -247zM856 1460l-258 -170h-35l150 299z" />
    <glyph glyph-name="Ncaron" unicode="&#x147;" horiz-adv-x="1263" 
d="M291 39l33 -39h-258l32 39q34 39 54 97t20 112v1009q0 54 -20 112t-54 97l-32 39h442l610 -901v653q0 54 -20 112t-54 97l-32 39h258l-33 -39q-34 -40 -55 -97.5t-21 -111.5v-1257h-43l-903 1325v-1077q0 -54 21 -111.5t55 -97.5zM942 1874l-258 -170h-37l-258 170
l141 129l136 -266l135 266z" />
    <glyph glyph-name="ncaron" unicode="&#x148;" horiz-adv-x="1359" 
d="M1262 756v-508q0 -54 20.5 -111.5t54.5 -97.5l31 -39h-559l33 39q34 40 55 97.5t21 111.5v399q0 303 -170 303q-104 0 -172 -111.5t-68 -289.5v-301q0 -54 21 -111.5t55 -97.5l32 -39h-559l33 39q34 39 54 97t20 112v579q0 54 -20 112t-54 97l-33 39h451v-276
q54 140 165 218.5t257 78.5q161 0 246.5 -93t85.5 -247zM985 1460l-258 -170h-37l-258 170l141 129l136 -266l135 266z" />
    <glyph glyph-name="Omacron" unicode="&#x14c;" horiz-adv-x="1632" 
d="M426 752q0 -330 118.5 -531t313.5 -201q128 0 225.5 91t151 257t53.5 384t-53.5 384t-151 256.5t-225.5 90.5q-195 0 -313.5 -200.5t-118.5 -530.5zM82 752q0 349 213 561.5t563 212.5q230 0 406 -96t272 -272t96 -406t-96 -405.5t-272 -271t-406 -95.5
q-231 0 -407.5 95.5t-272.5 271t-96 405.5zM1081 1704h-448v96h448v-96z" />
    <glyph glyph-name="omacron" unicode="&#x14d;" horiz-adv-x="1314" 
d="M430 537q0 -235 71.5 -376t198.5 -141q126 0 198.5 141t72.5 376q0 236 -72.5 376t-198.5 140q-127 0 -198.5 -140t-71.5 -376zM86 537q0 256 162.5 407.5t451.5 151.5q288 0 451.5 -152t163.5 -407q0 -254 -163.5 -405.5t-451.5 -151.5q-289 0 -451.5 151.5
t-162.5 405.5zM926 1290h-449v96h449v-96z" />
    <glyph glyph-name="Obreve" unicode="&#x14e;" horiz-adv-x="1632" 
d="M426 752q0 -330 118.5 -531t313.5 -201q128 0 225.5 91t151 257t53.5 384t-53.5 384t-151 256.5t-225.5 90.5q-195 0 -313.5 -200.5t-118.5 -530.5zM82 752q0 349 213 561.5t563 212.5q230 0 406 -96t272 -272t96 -406t-96 -405.5t-272 -271t-406 -95.5
q-231 0 -407.5 95.5t-272.5 271t-96 405.5zM1014 1860h18q0 -174 -172 -174q-86 0 -131 44.5t-45 129.5h21q0 -68 155 -68q154 0 154 68z" />
    <glyph glyph-name="obreve" unicode="&#x14f;" horiz-adv-x="1314" 
d="M430 537q0 -235 71.5 -376t198.5 -141q126 0 198.5 141t72.5 376q0 236 -72.5 376t-198.5 140q-127 0 -198.5 -140t-71.5 -376zM86 537q0 256 162.5 407.5t451.5 151.5q288 0 451.5 -152t163.5 -407q0 -254 -163.5 -405.5t-451.5 -151.5q-289 0 -451.5 151.5
t-162.5 405.5zM856 1446h18q0 -174 -172 -174q-86 0 -131 44.5t-45 129.5h21q0 -68 155 -68q154 0 154 68z" />
    <glyph glyph-name="Odoubleacute" unicode="&#x150;" horiz-adv-x="1632" 
d="M426 752q0 -330 118.5 -531t313.5 -201q128 0 225.5 91t151 257t53.5 384t-53.5 384t-151 256.5t-225.5 90.5q-195 0 -313.5 -200.5t-118.5 -530.5zM82 752q0 349 213 561.5t563 212.5q230 0 406 -96t272 -272t96 -406t-96 -405.5t-272 -271t-406 -95.5
q-231 0 -407.5 95.5t-272.5 271t-96 405.5zM1116 1874l-258 -170h-35l152 299zM893 1874l-258 -170h-35l150 299z" />
    <glyph glyph-name="odoubleacute" unicode="&#x151;" horiz-adv-x="1314" 
d="M430 537q0 -235 71.5 -376t198.5 -141q126 0 198.5 141t72.5 376q0 236 -72.5 376t-198.5 140q-127 0 -198.5 -140t-71.5 -376zM86 537q0 256 162.5 407.5t451.5 151.5q288 0 451.5 -152t163.5 -407q0 -254 -163.5 -405.5t-451.5 -151.5q-289 0 -451.5 151.5
t-162.5 405.5zM958 1460l-258 -170h-34l151 299zM735 1460l-258 -170h-35l150 299z" />
    <glyph glyph-name="OE" unicode="&#x152;" horiz-adv-x="2390" 
d="M426 752q0 -330 118.5 -531t313.5 -201q128 0 225.5 91t151 257t53.5 384t-53.5 384t-151 256.5t-225.5 90.5q-195 0 -313.5 -200.5t-118.5 -530.5zM82 752q0 349 213 561.5t563 212.5q205 0 369 -76q0 2 -2 4l-8 8q0 1 -2 2t-3 2l-30 39h1138l64 -323h-43l-92 94
q-83 83 -207 134.5t-244 51.5h-166v-688h119q63 0 122 32.5t91 86.5l33 53h43v-387h-43l-33 53q-32 54 -91 86.5t-122 32.5h-119v-688h187q119 0 243 51t209 135l92 93h43l-65 -322h-1159l30 39q2 2 7 7.5t8 8.5q-162 -75 -369 -75q-231 0 -407.5 95.5t-272.5 271t-96 405.5
z" />
    <glyph glyph-name="oe" unicode="&#x153;" horiz-adv-x="1925" 
d="M1319 621v-5h262q4 221 -28.5 329t-92.5 108q-65 0 -103 -118t-38 -314zM430 537q0 -235 71.5 -376t198.5 -141q126 0 198.5 141t72.5 376q0 236 -72.5 376t-198.5 140q-127 0 -198.5 -140t-71.5 -376zM86 537q0 256 162.5 407.5t451.5 151.5q275 0 435 -138
q138 138 335 138q190 0 307 -131t117 -349v-43h-575q8 -192 77 -296.5t189 -104.5q65 0 155.5 35t196.5 129q-25 -54 -54.5 -101.5t-72.5 -95.5t-92 -82t-114.5 -55.5t-137.5 -21.5q-194 0 -331 137q-159 -137 -435 -137q-289 0 -451.5 151.5t-162.5 405.5z" />
    <glyph glyph-name="Racute" unicode="&#x154;" horiz-adv-x="1431" 
d="M516 709h123q169 0 271 102.5t102 269.5q0 172 -102 276.5t-271 104.5h-123v-753zM592 39l33 -39h-559l32 39q34 39 54 97t20 112v1009q0 54 -20 112t-54 97l-32 39h874q188 0 302 -114t114 -301q0 -193 -114 -308.5t-302 -115.5h-2q63 -18 112.5 -61t73.5 -105l66 -174
q20 -51 55.5 -103.5t73.5 -89.5l143 -133h-395q-52 0 -97 30.5t-67 80.5l-231 555h-156v-418q0 -54 21 -111.5t55 -97.5zM895 1874l-258 -170h-35l150 299z" />
    <glyph glyph-name="racute" unicode="&#x155;" horiz-adv-x="1081" 
d="M584 39l32 -39h-559l33 39q34 39 54 97t20 112v579q0 54 -20 112t-54 97l-33 39h451v-231q40 120 113.5 186t173.5 66q104 0 186.5 -68t103.5 -178q20 -111 -34 -179q-44 -56 -106 -42q-72 15 -118 121q-17 41 -28 92q-29 147 -115 147q-82 0 -129 -115.5t-47 -336.5
v-289q0 -54 21 -111.5t55 -97.5zM717 1460l-258 -170h-35l149 299z" />
    <glyph glyph-name="Rcaron" unicode="&#x158;" horiz-adv-x="1431" 
d="M516 709h123q169 0 271 102.5t102 269.5q0 172 -102 276.5t-271 104.5h-123v-753zM592 39l33 -39h-559l32 39q34 39 54 97t20 112v1009q0 54 -20 112t-54 97l-32 39h874q188 0 302 -114t114 -301q0 -193 -114 -308.5t-302 -115.5h-2q63 -18 112.5 -61t73.5 -105l66 -174
q20 -51 55.5 -103.5t73.5 -89.5l143 -133h-395q-52 0 -97 30.5t-67 80.5l-231 555h-156v-418q0 -54 21 -111.5t55 -97.5zM1026 1874l-258 -170h-37l-258 170l141 129l136 -266l135 266z" />
    <glyph glyph-name="rcaron" unicode="&#x159;" horiz-adv-x="1081" 
d="M584 39l32 -39h-559l33 39q34 39 54 97t20 112v579q0 54 -20 112t-54 97l-33 39h451v-231q40 120 113.5 186t173.5 66q104 0 186.5 -68t103.5 -178q20 -111 -34 -179q-44 -56 -106 -42q-72 15 -118 121q-17 41 -28 92q-29 147 -115 147q-82 0 -129 -115.5t-47 -336.5
v-289q0 -54 21 -111.5t55 -97.5zM846 1460l-258 -170h-37l-258 170l141 129l135 -266l136 266z" />
    <glyph glyph-name="Sacute" unicode="&#x15a;" horiz-adv-x="1257" 
d="M840 252q0 59 -28 112t-75.5 95t-109 82t-129.5 77.5t-136 76.5t-129.5 84.5t-109 95t-75.5 115t-28 138.5q0 180 150 289t387 109q209 0 358 -87t203 -239q48 -136 -10 -219q-43 -63 -120 -59q-88 4 -155 95q-53 73 -75 185q-19 103 -34 143q-54 138 -189 138
q-88 0 -143.5 -52.5t-55.5 -142.5q0 -61 28 -116t75.5 -98t109 -84t129.5 -79t135.5 -77.5t129 -84.5t109 -94.5t75.5 -114t28 -137.5q0 -182 -162 -292.5t-426 -110.5q-439 0 -547 309q-51 143 6 231q42 64 118 62q87 -1 154 -89q54 -73 77 -187q1 -6 5.5 -29.5t7 -35
t8.5 -36t12 -38.5t16.5 -36t22 -35t29 -28.5t36.5 -24t45 -14.5t55 -6q98 0 163 56.5t65 152.5zM725 1874l-258 -170h-35l150 299z" />
    <glyph glyph-name="sacute" unicode="&#x15b;" horiz-adv-x="991" 
d="M635 133q0 50 -30.5 98t-79 87.5t-107 80t-117.5 83.5t-107.5 89.5t-79 106.5t-30.5 127q0 133 110.5 212t294.5 79q182 0 297 -74.5t138 -192.5q19 -99 -31 -160q-44 -53 -105 -37q-77 20 -126 139q-19 45 -31 103q-36 179 -133 179q-43 0 -71 -35t-28 -84t30.5 -96.5
t79 -88t107 -82t117.5 -86t107.5 -90.5t79 -105t30.5 -122q0 -130 -117.5 -207t-314.5 -77q-193 0 -310.5 73.5t-141.5 192.5q-19 99 31 160q43 52 104 37q77 -19 125 -137q19 -46 32 -105q37 -181 164 -181q53 0 83 31t30 82zM653 1460l-258 -170h-35l150 299z" />
    <glyph glyph-name="Scircumflex" unicode="&#x15c;" horiz-adv-x="1257" 
d="M840 252q0 59 -28 112t-75.5 95t-109 82t-129.5 77.5t-136 76.5t-129.5 84.5t-109 95t-75.5 115t-28 138.5q0 180 150 289t387 109q209 0 358 -87t203 -239q48 -136 -10 -219q-43 -63 -120 -59q-88 4 -155 95q-53 73 -75 185q-19 103 -34 143q-54 138 -189 138
q-88 0 -143.5 -52.5t-55.5 -142.5q0 -61 28 -116t75.5 -98t109 -84t129.5 -79t135.5 -77.5t129 -84.5t109 -94.5t75.5 -114t28 -137.5q0 -182 -162 -292.5t-426 -110.5q-439 0 -547 309q-51 143 6 231q42 64 118 62q87 -1 154 -89q54 -73 77 -187q1 -6 5.5 -29.5t7 -35
t8.5 -36t12 -38.5t16.5 -36t22 -35t29 -28.5t36.5 -24t45 -14.5t55 -6q98 0 163 56.5t65 152.5zM596 2003l258 -170l-141 -129l-135 266l-136 -266l-141 129l258 170h37z" />
    <glyph glyph-name="scircumflex" unicode="&#x15d;" horiz-adv-x="991" 
d="M635 133q0 50 -30.5 98t-79 87.5t-107 80t-117.5 83.5t-107.5 89.5t-79 106.5t-30.5 127q0 133 110.5 212t294.5 79q182 0 297 -74.5t138 -192.5q19 -99 -31 -160q-44 -53 -105 -37q-77 20 -126 139q-19 45 -31 103q-36 179 -133 179q-43 0 -71 -35t-28 -84t30.5 -96.5
t79 -88t107 -82t117.5 -86t107.5 -90.5t79 -105t30.5 -122q0 -130 -117.5 -207t-314.5 -77q-193 0 -310.5 73.5t-141.5 192.5q-19 99 31 160q43 52 104 37q77 -19 125 -137q19 -46 32 -105q37 -181 164 -181q53 0 83 31t30 82zM524 1589l258 -170l-141 -129l-135 266
l-135 -266l-142 129l258 170h37z" />
    <glyph glyph-name="Scedilla" unicode="&#x15e;" horiz-adv-x="1257" 
d="M840 252q0 59 -28 112t-75.5 95t-109 82t-129.5 77.5t-136 76.5t-129.5 84.5t-109 95t-75.5 115t-28 138.5q0 180 150 289t387 109q209 0 358 -87t203 -239q48 -136 -10 -219q-43 -63 -120 -59q-88 4 -155 95q-53 73 -75 185q-19 103 -34 143q-54 138 -189 138
q-88 0 -143.5 -52.5t-55.5 -142.5q0 -61 28 -116t75.5 -98t109 -84t129.5 -79t135.5 -77.5t129 -84.5t109 -94.5t75.5 -114t28 -137.5q0 -182 -162 -292.5t-426 -110.5q-439 0 -547 309q-51 143 6 231q42 64 118 62q87 -1 154 -89q54 -73 77 -187q1 -6 5.5 -29.5t7 -35
t8.5 -36t12 -38.5t16.5 -36t22 -35t29 -28.5t36.5 -24t45 -14.5t55 -6q98 0 163 56.5t65 152.5zM520 -123l43 123h58l-13 -39q46 -8 74.5 -43t28.5 -88q0 -60 -36.5 -95.5t-96.5 -35.5t-96 36t-36 97h21q0 -30 23 -47.5t59 -17.5q35 0 54.5 16t19.5 45q0 49 -45 49h-58z" />
    <glyph glyph-name="scedilla" unicode="&#x15f;" horiz-adv-x="991" 
d="M635 133q0 50 -30.5 98t-79 87.5t-107 80t-117.5 83.5t-107.5 89.5t-79 106.5t-30.5 127q0 133 110.5 212t294.5 79q182 0 297 -74.5t138 -192.5q19 -99 -31 -160q-44 -53 -105 -37q-77 20 -126 139q-19 45 -31 103q-36 179 -133 179q-43 0 -71 -35t-28 -84t30.5 -96.5
t79 -88t107 -82t117.5 -86t107.5 -90.5t79 -105t30.5 -122q0 -130 -117.5 -207t-314.5 -77q-193 0 -310.5 73.5t-141.5 192.5q-19 99 31 160q43 52 104 37q77 -19 125 -137q19 -46 32 -105q37 -181 164 -181q53 0 83 31t30 82zM449 -123l43 123h57l-12 -39q46 -8 74 -43
t28 -88q0 -60 -36.5 -95.5t-96.5 -35.5t-95.5 36t-35.5 97h20q0 -30 23 -47.5t59 -17.5q35 0 54.5 16t19.5 45q0 49 -45 49h-57z" />
    <glyph glyph-name="Scaron" unicode="&#x160;" horiz-adv-x="1257" 
d="M840 252q0 59 -28 112t-75.5 95t-109 82t-129.5 77.5t-136 76.5t-129.5 84.5t-109 95t-75.5 115t-28 138.5q0 180 150 289t387 109q209 0 358 -87t203 -239q48 -136 -10 -219q-43 -63 -120 -59q-88 4 -155 95q-53 73 -75 185q-19 103 -34 143q-54 138 -189 138
q-88 0 -143.5 -52.5t-55.5 -142.5q0 -61 28 -116t75.5 -98t109 -84t129.5 -79t135.5 -77.5t129 -84.5t109 -94.5t75.5 -114t28 -137.5q0 -182 -162 -292.5t-426 -110.5q-439 0 -547 309q-51 143 6 231q42 64 118 62q87 -1 154 -89q54 -73 77 -187q1 -6 5.5 -29.5t7 -35
t8.5 -36t12 -38.5t16.5 -36t22 -35t29 -28.5t36.5 -24t45 -14.5t55 -6q98 0 163 56.5t65 152.5zM854 1874l-258 -170h-37l-258 170l141 129l136 -266l135 266z" />
    <glyph glyph-name="scaron" unicode="&#x161;" horiz-adv-x="991" 
d="M635 133q0 50 -30.5 98t-79 87.5t-107 80t-117.5 83.5t-107.5 89.5t-79 106.5t-30.5 127q0 133 110.5 212t294.5 79q182 0 297 -74.5t138 -192.5q19 -99 -31 -160q-44 -53 -105 -37q-77 20 -126 139q-19 45 -31 103q-36 179 -133 179q-43 0 -71 -35t-28 -84t30.5 -96.5
t79 -88t107 -82t117.5 -86t107.5 -90.5t79 -105t30.5 -122q0 -130 -117.5 -207t-314.5 -77q-193 0 -310.5 73.5t-141.5 192.5q-19 99 31 160q43 52 104 37q77 -19 125 -137q19 -46 32 -105q37 -181 164 -181q53 0 83 31t30 82zM782 1460l-258 -170h-37l-258 170l142 129
l135 -266l135 266z" />
    <glyph glyph-name="Tcaron" unicode="&#x164;" horiz-adv-x="1335" 
d="M903 39l33 -39h-559l33 39q34 40 54.5 97.5t20.5 111.5v1208q-102 -15 -202 -63.5t-168 -116.5l-92 -94h-43l63 323h1227l63 -323h-43l-92 94q-69 69 -168 117t-201 63v-1208q0 -54 20 -112t54 -97zM934 1874l-258 -170h-37l-258 170l141 129l135 -266l136 266z" />
    <glyph glyph-name="tcaron" unicode="&#x165;" horiz-adv-x="1380" 
d="M29 1032v43h106q141 0 221 81.5t80 229.5h43v-311h297v-43h-297v-577q0 -69 1 -117.5t4.5 -102.5t11 -89.5t19 -66t29.5 -45t42 -14.5q70 0 80 127q11 156 100 214q63 41 129 13q62 -26 74 -93q6 -32 -2 -68q-22 -96 -123 -164.5t-258 -68.5q-451 0 -451 493v559h-106z
M967 1362q0 75 47 119.5t133 44.5q85 0 132.5 -44.5t47.5 -117.5q0 -112 -75.5 -204.5t-186.5 -127.5l-16 33q11 7 43 26.5t43.5 27.5t32.5 24t33.5 31.5t23.5 35.5q-35 -12 -78 -12q-86 0 -133 44.5t-47 119.5z" />
    <glyph glyph-name="Utilde" unicode="&#x168;" horiz-adv-x="1357" 
d="M705 -20q-254 0 -410 157t-156 416v704q0 55 -20 112.5t-53 96.5l-33 39h559l-33 -39q-34 -40 -55 -97.5t-21 -111.5v-745q0 -208 101 -328.5t252 -120.5q71 0 136.5 30t118 87t84 148t31.5 204v725q0 55 -20 112.5t-53 96.5l-33 39h258l-33 -39q-34 -40 -55 -97.5
t-21 -111.5v-704q0 -259 -146.5 -416t-397.5 -157zM506 1702h-21q5 170 123 170q50 0 113 -41t98 -41q61 0 64 72h22q-1 -28 -2.5 -47t-8.5 -47t-18.5 -45t-34.5 -29.5t-55 -12.5q-49 0 -114 41t-101 41q-58 0 -65 -61z" />
    <glyph glyph-name="utilde" unicode="&#x169;" horiz-adv-x="1306" 
d="M139 319v508q0 55 -20 112.5t-53 96.5l-33 39h450v-647q0 -147 40.5 -225t109.5 -78q89 0 152 112.5t63 288.5v301q0 54 -21 111.5t-55 97.5l-33 39h453v-827q0 -54 21 -111.5t55 -97.5l30 -39h-450v274q-54 -138 -159 -216t-238 -78q-148 0 -230 93t-82 246zM481 1288
h-20q5 170 123 170q50 0 113 -41t98 -41q60 0 63 72h23q-1 -28 -2.5 -47t-8.5 -47t-18.5 -44.5t-34.5 -29t-55 -12.5q-49 0 -114 41t-101 41q-59 0 -66 -62z" />
    <glyph glyph-name="Umacron" unicode="&#x16a;" horiz-adv-x="1357" 
d="M705 -20q-254 0 -410 157t-156 416v704q0 55 -20 112.5t-53 96.5l-33 39h559l-33 -39q-34 -40 -55 -97.5t-21 -111.5v-745q0 -208 101 -328.5t252 -120.5q71 0 136.5 30t118 87t84 148t31.5 204v725q0 55 -20 112.5t-53 96.5l-33 39h258l-33 -39q-34 -40 -55 -97.5
t-21 -111.5v-704q0 -259 -146.5 -416t-397.5 -157zM920 1704h-449v96h449v-96z" />
    <glyph glyph-name="umacron" unicode="&#x16b;" horiz-adv-x="1306" 
d="M139 319v508q0 55 -20 112.5t-53 96.5l-33 39h450v-647q0 -147 40.5 -225t109.5 -78q89 0 152 112.5t63 288.5v301q0 54 -21 111.5t-55 97.5l-33 39h453v-827q0 -54 21 -111.5t55 -97.5l30 -39h-450v274q-54 -138 -159 -216t-238 -78q-148 0 -230 93t-82 246zM895 1290
h-449v96h449v-96z" />
    <glyph glyph-name="Ubreve" unicode="&#x16c;" horiz-adv-x="1357" 
d="M705 -20q-254 0 -410 157t-156 416v704q0 55 -20 112.5t-53 96.5l-33 39h559l-33 -39q-34 -40 -55 -97.5t-21 -111.5v-745q0 -208 101 -328.5t252 -120.5q71 0 136.5 30t118 87t84 148t31.5 204v725q0 55 -20 112.5t-53 96.5l-33 39h258l-33 -39q-34 -40 -55 -97.5
t-21 -111.5v-704q0 -259 -146.5 -416t-397.5 -157zM852 1860h18q0 -174 -172 -174q-86 0 -131 44.5t-45 129.5h21q0 -68 155 -68q154 0 154 68z" />
    <glyph glyph-name="ubreve" unicode="&#x16d;" horiz-adv-x="1306" 
d="M139 319v508q0 55 -20 112.5t-53 96.5l-33 39h450v-647q0 -147 40.5 -225t109.5 -78q89 0 152 112.5t63 288.5v301q0 54 -21 111.5t-55 97.5l-33 39h453v-827q0 -54 21 -111.5t55 -97.5l30 -39h-450v274q-54 -138 -159 -216t-238 -78q-148 0 -230 93t-82 246zM825 1446
h19q0 -174 -172 -174q-86 0 -131 44.5t-45 129.5h20q0 -68 156 -68q153 0 153 68z" />
    <glyph glyph-name="Uring" unicode="&#x16e;" horiz-adv-x="1357" 
d="M705 -20q-254 0 -410 157t-156 416v704q0 55 -20 112.5t-53 96.5l-33 39h559l-33 -39q-34 -40 -55 -97.5t-21 -111.5v-745q0 -208 101 -328.5t252 -120.5q71 0 136.5 30t118 87t84 148t31.5 204v725q0 55 -20 112.5t-53 96.5l-33 39h258l-33 -39q-34 -40 -55 -97.5
t-21 -111.5v-704q0 -259 -146.5 -416t-397.5 -157zM694 1864q-20 0 -31.5 -13t-11.5 -32q0 -45 43 -45q45 0 45 45q0 19 -12 32t-33 13zM694 1686q-60 0 -95.5 36t-35.5 97q0 59 35.5 95t95.5 36t96.5 -36t36.5 -95q0 -61 -36.5 -97t-96.5 -36z" />
    <glyph glyph-name="uring" unicode="&#x16f;" horiz-adv-x="1306" 
d="M139 319v508q0 55 -20 112.5t-53 96.5l-33 39h450v-647q0 -147 40.5 -225t109.5 -78q89 0 152 112.5t63 288.5v301q0 54 -21 111.5t-55 97.5l-33 39h453v-827q0 -54 21 -111.5t55 -97.5l30 -39h-450v274q-54 -138 -159 -216t-238 -78q-148 0 -230 93t-82 246zM670 1450
q-20 0 -31.5 -13t-11.5 -32q0 -45 43 -45q45 0 45 45q0 19 -12 32t-33 13zM670 1272q-60 0 -95.5 36t-35.5 97q0 59 35.5 95t95.5 36t96.5 -36t36.5 -95q0 -61 -36.5 -97t-96.5 -36z" />
    <glyph glyph-name="Udoubleacute" unicode="&#x170;" horiz-adv-x="1357" 
d="M705 -20q-254 0 -410 157t-156 416v704q0 55 -20 112.5t-53 96.5l-33 39h559l-33 -39q-34 -40 -55 -97.5t-21 -111.5v-745q0 -208 101 -328.5t252 -120.5q71 0 136.5 30t118 87t84 148t31.5 204v725q0 55 -20 112.5t-53 96.5l-33 39h258l-33 -39q-34 -40 -55 -97.5
t-21 -111.5v-704q0 -259 -146.5 -416t-397.5 -157zM954 1874l-258 -170h-34l151 299zM731 1874l-258 -170h-35l150 299z" />
    <glyph glyph-name="udoubleacute" unicode="&#x171;" horiz-adv-x="1306" 
d="M139 319v508q0 55 -20 112.5t-53 96.5l-33 39h450v-647q0 -147 40.5 -225t109.5 -78q89 0 152 112.5t63 288.5v301q0 54 -21 111.5t-55 97.5l-33 39h453v-827q0 -54 21 -111.5t55 -97.5l30 -39h-450v274q-54 -138 -159 -216t-238 -78q-148 0 -230 93t-82 246zM928 1460
l-258 -170h-35l151 299zM705 1460l-259 -170h-34l149 299z" />
    <glyph glyph-name="Uogonek" unicode="&#x172;" horiz-adv-x="1357" 
d="M705 -20q-254 0 -410 157t-156 416v704q0 55 -20 112.5t-53 96.5l-33 39h559l-33 -39q-34 -40 -55 -97.5t-21 -111.5v-745q0 -208 101 -328.5t252 -120.5q71 0 136.5 30t118 87t84 148t31.5 204v725q0 55 -20 112.5t-53 96.5l-33 39h258l-33 -39q-34 -40 -55 -97.5
t-21 -111.5v-704q0 -259 -146.5 -416t-397.5 -157zM1221 0h20q-7 -16 -19.5 -41t-17.5 -35.5t-11.5 -27t-8.5 -28.5t-2 -26q0 -75 73 -75q36 0 59 17.5t23 47.5h21q0 -61 -35.5 -97t-95.5 -36q-59 0 -96 34t-37 87q0 29 14.5 57.5t29 44t45 43t38.5 35.5z" />
    <glyph glyph-name="uogonek" unicode="&#x173;" horiz-adv-x="1306" 
d="M139 319v508q0 55 -20 112.5t-53 96.5l-33 39h450v-647q0 -147 40.5 -225t109.5 -78q89 0 152 112.5t63 288.5v301q0 54 -21 111.5t-55 97.5l-33 39h453v-827q0 -54 21 -111.5t55 -97.5l30 -39h-450v274q-54 -138 -159 -216t-238 -78q-148 0 -230 93t-82 246zM1161 0h21
q-8 -17 -20 -41t-17.5 -35.5t-11.5 -27t-8.5 -28t-2.5 -26.5q0 -75 74 -75q36 0 59 17.5t23 47.5h20q0 -61 -35.5 -97t-95.5 -36q-59 0 -96 34t-37 87q0 29 14.5 57.5t29 44t45 43t38.5 35.5z" />
    <glyph glyph-name="Wcircumflex" unicode="&#x174;" horiz-adv-x="1937" 
d="M512 1178l199 -633l190 563l-22 70q-37 109 -111 204l-98 123h602l-31 -100q-32 -112 2 -227l199 -633l215 633q17 50 18.5 112.5t-12.5 114.5l-29 100h303l-116 -129q-82 -89 -119 -198l-397 -1178h-48l-333 1038l-351 -1038h-47l-379 1178q-38 112 -110 204l-98 123
h602l-31 -100q-32 -112 2 -227zM956 2003l258 -170l-141 -129l-135 266l-135 -266l-141 129l258 170h36z" />
    <glyph glyph-name="wcircumflex" unicode="&#x175;" horiz-adv-x="1710" 
d="M537 823l143 -368l133 313l-22 55q-20 53 -59 109.5t-81 93.5l-57 49h586l-9 -18q-26 -53 -29 -116.5t19 -117.5l144 -368l157 374q22 52 16.5 114t-36.5 108l-15 24h283l-55 -47q-43 -37 -84 -92t-62 -107l-348 -829h-47l-278 709l-299 -709h-48l-321 823
q-20 54 -59 110t-82 93l-56 49h586l-10 -18q-25 -53 -28 -116t18 -118zM860 1589l258 -170l-141 -129l-135 266l-135 -266l-142 129l258 170h37z" />
    <glyph glyph-name="Ycircumflex" unicode="&#x176;" horiz-adv-x="1429" 
d="M621 1190l208 -354l209 354q27 43 43.5 103.5t18.5 115.5l2 96h330l-189 -143q-91 -69 -156 -172l-231 -397l-2 -5v-540q0 -54 20 -112t54 -97l33 -39h-560l33 39q34 40 55 97.5t21 111.5v452l-289 490q-68 108 -149 180l-146 135h658l-11 -96q-6 -54 7 -114.5t41 -104.5
zM696 2003l258 -170l-141 -129l-135 266l-135 -266l-142 129l258 170h37z" />
    <glyph glyph-name="ycircumflex" unicode="&#x177;" horiz-adv-x="1257" 
d="M920 834l-426 -834q-120 -235 -155 -290q-67 -108 -135 -140q-45 -21 -106 -21q-121 0 -214 68.5t-115 155.5q-21 83 38 131q52 43 122 28q82 -17 119 -103q18 -42 22 -97q3 -23 7 -38t13 -36.5t27 -33t43 -11.5q22 0 42 9t43 34.5t40.5 49.5t47 77t50 93l61.5 120
q1 3 2 4l-397 827q-61 121 -151 199l-56 49h594l-8 -18q-26 -53 -26 -115t26 -115l215 -444l229 451q26 51 23.5 111t-33.5 106l-16 24h284l-55 -47q-96 -80 -155 -194zM506 1589l258 -170l-141 -129l-136 266l-135 -266l-141 129l258 170h37z" />
    <glyph glyph-name="Ydieresis" unicode="&#x178;" horiz-adv-x="1429" 
d="M621 1190l208 -354l209 354q27 43 43.5 103.5t18.5 115.5l2 96h330l-189 -143q-91 -69 -156 -172l-231 -397l-2 -5v-540q0 -54 20 -112t54 -97l33 -39h-560l33 39q34 40 55 97.5t21 111.5v452l-289 490q-68 108 -149 180l-146 135h658l-11 -96q-6 -54 7 -114.5t41 -104.5
zM786 1681q-37 0 -59 22.5t-22 59.5q0 35 22.5 57.5t58.5 22.5q37 0 59.5 -22.5t22.5 -57.5q0 -37 -22.5 -59.5t-59.5 -22.5zM571 1681q-37 0 -59.5 22.5t-22.5 59.5q0 35 22.5 57.5t59.5 22.5t59.5 -22.5t22.5 -57.5q0 -37 -22.5 -59.5t-59.5 -22.5z" />
    <glyph glyph-name="Zacute" unicode="&#x179;" horiz-adv-x="1290" 
d="M1161 0h-1161l864 1462h-190q-120 0 -244 -51t-209 -135l-92 -94h-43l64 323h1140l-864 -1462h213q120 0 244 51.5t207 134.5l92 93h43zM793 1874l-258 -170h-35l149 299z" />
    <glyph glyph-name="zacute" unicode="&#x17a;" horiz-adv-x="1146" 
d="M709 1032h-29q-120 0 -244 -51.5t-207 -134.5l-94 -94h-43l66 323h987l-680 -1032h49q120 0 244 51t209 135l92 93h43l-66 -322h-1007zM735 1460l-258 -170h-35l150 299z" />
    <glyph glyph-name="Zdotaccent" unicode="&#x17b;" horiz-adv-x="1290" 
d="M1161 0h-1161l864 1462h-190q-120 0 -244 -51t-209 -135l-92 -94h-43l64 323h1140l-864 -1462h213q120 0 244 51.5t207 134.5l92 93h43zM645 1681q-37 0 -59.5 22.5t-22.5 59.5q0 35 22.5 57.5t59.5 22.5t59.5 -22.5t22.5 -57.5q0 -37 -22.5 -59.5t-59.5 -22.5z" />
    <glyph glyph-name="zdotaccent" unicode="&#x17c;" horiz-adv-x="1146" 
d="M709 1032h-29q-120 0 -244 -51.5t-207 -134.5l-94 -94h-43l66 323h987l-680 -1032h49q120 0 244 51t209 135l92 93h43l-66 -322h-1007zM588 1268q-37 0 -59.5 22.5t-22.5 59.5q0 35 22.5 57.5t59.5 22.5t59.5 -22.5t22.5 -57.5q0 -37 -22.5 -59.5t-59.5 -22.5z" />
    <glyph glyph-name="Zcaron" unicode="&#x17d;" horiz-adv-x="1290" 
d="M1161 0h-1161l864 1462h-190q-120 0 -244 -51t-209 -135l-92 -94h-43l64 323h1140l-864 -1462h213q120 0 244 51.5t207 134.5l92 93h43zM922 1874l-258 -170h-37l-258 170l141 129l135 -266l135 266z" />
    <glyph glyph-name="zcaron" unicode="&#x17e;" horiz-adv-x="1146" 
d="M709 1032h-29q-120 0 -244 -51.5t-207 -134.5l-94 -94h-43l66 323h987l-680 -1032h49q120 0 244 51t209 135l92 93h43l-66 -322h-1007zM864 1460l-258 -170h-37l-258 170l142 129l135 -266l135 266z" />
    <glyph glyph-name="fhook" unicode="&#x192;" horiz-adv-x="882" 
d="M-35 1032l8 43h109q115 451 545 451q157 0 243 -69t86 -165q2 -88 -66 -139q-60 -45 -125 -28q-72 19 -92 108q-12 53 -1 125q15 125 -56 125q-23 0 -43 -13.5t-37 -41.5t-31.5 -61.5t-28.5 -84t-25 -96.5t-25 -111h297l-8 -43h-297l-207 -969q-106 -493 -555 -493l8 43
q35 0 64.5 31t53.5 95.5t41.5 132.5t39.5 173l211 987h-109z" />
    <glyph glyph-name="AEacute" unicode="&#x1fc;" horiz-adv-x="1914" 
d="M297 461h446v796q0 42 -18 101zM1204 731h-117v-688h187q120 0 243 51t207 135l95 93h43l-66 -322h-1161l33 39q34 40 54.5 97.5t20.5 111.5v170h-464l-46 -92q-22 -48 -25 -111.5t11 -114.5l29 -100h-305l118 129q66 72 125 197l519 1085q-17 28 -37 55l-33 39h1141
l63 -323h-43l-92 94q-85 84 -209 135t-244 51h-164v-688h117q63 0 122 32.5t91 86.5l35 53h43v-387h-43l-35 53q-32 54 -91 86.5t-122 32.5zM1075 1874l-258 -170h-35l150 299z" />
    <glyph glyph-name="aeacute" unicode="&#x1fd;" horiz-adv-x="1699" 
d="M737 438v103h-47q-123 0 -197.5 -78.5t-74.5 -200.5q0 -87 38 -143t97 -56q76 0 130 97.5t54 277.5zM1087 621v-5h263q4 221 -28.5 329t-92.5 108q-65 0 -103.5 -118.5t-38.5 -313.5zM1354 172q65 0 155.5 35t196.5 129q-25 -54 -54.5 -101.5t-72.5 -95.5t-92 -82
t-114.5 -55.5t-137.5 -21.5q-157 0 -282 93.5t-179 254.5q-41 -348 -352 -348q-156 0 -252 79.5t-96 200.5q0 79 45 142.5t118.5 102t161 59t179.5 20.5h159v123q0 173 -42 259.5t-107 86.5q-97 0 -133 -179q-39 -181 -129 -231q-61 -34 -114 8q-55 43 -55 130q0 24 5 48
q24 118 137.5 192.5t292.5 74.5q218 0 344 -109q127 109 303 109q190 0 307 -131t117 -349v-43h-576q7 -192 77 -296.5t190 -104.5zM1034 1460l-258 -170h-35l150 299z" />
    <glyph glyph-name="circumflexmod" unicode="&#x2c6;" horiz-adv-x="651" 
d="M393 1589l258 -170l-141 -129l-135 266l-135 -266l-142 129l258 170h37z" />
    <glyph glyph-name="caronmod" unicode="&#x2c7;" horiz-adv-x="647" 
d="M647 1460l-258 -170h-37l-258 170l142 129l135 -266l135 266z" />
    <glyph glyph-name="brevemod" unicode="&#x2d8;" horiz-adv-x="448" 
d="M428 1446h18q0 -174 -172 -174q-86 0 -131 44.5t-45 129.5h21q0 -68 155 -68q154 0 154 68z" />
    <glyph glyph-name="dotaccentmod" unicode="&#x2d9;" horiz-adv-x="266" 
d="M184 1268q-37 0 -59.5 22.5t-22.5 59.5q0 35 22.5 57.5t59.5 22.5t59.5 -22.5t22.5 -57.5q0 -37 -22.5 -59.5t-59.5 -22.5z" />
    <glyph glyph-name="ringmod" unicode="&#x2da;" horiz-adv-x="376" 
d="M242 1450q-20 0 -31.5 -13t-11.5 -32q0 -45 43 -45q45 0 45 45q0 19 -12 32t-33 13zM242 1272q-60 0 -95.5 36t-35.5 97q0 59 35.5 95t95.5 36t96.5 -36t36.5 -95q0 -61 -36.5 -97t-96.5 -36z" />
    <glyph glyph-name="ogonekmod" unicode="&#x2db;" horiz-adv-x="466" 
d="M328 0h20q-7 -16 -19.5 -41t-17.5 -35.5t-11.5 -27t-8.5 -28.5t-2 -26q0 -75 73 -75q36 0 59 17.5t23 47.5h21q0 -61 -35.5 -97t-95.5 -36q-59 0 -96 34t-37 87q0 29 14.5 57.5t29 44t45 43t38.5 35.5z" />
    <glyph glyph-name="tildemod" unicode="&#x2dc;" horiz-adv-x="522" 
d="M123 1288h-21q5 170 123 170q49 0 112.5 -41t98.5 -41q61 0 64 72h22q-1 -28 -2.5 -47t-8.5 -47t-18.5 -44.5t-34.5 -29t-55 -12.5q-49 0 -114 41t-101 41q-58 0 -65 -62z" />
    <glyph glyph-name="doubleacutemod" unicode="&#x2dd;" horiz-adv-x="612" 
d="M614 1460l-258 -170h-34l151 299zM391 1460l-258 -170h-35l150 299z" />
    <glyph glyph-name="mu-grek" unicode="&#x3bc;" horiz-adv-x="1318" 
d="M238 319v508q0 54 -20 112t-54 97l-33 39h451v-647q0 -148 40 -225.5t109 -77.5q89 0 152 112.5t63 288.5v301q0 54 -21 111.5t-55 97.5l-32 39h452v-1042q0 -54 21 -111.5t55 -97.5l31 -39h-451v489q-54 -138 -159 -216t-238 -78q-147 0 -229 93t-82 246z" />
    <glyph glyph-name="Wgrave" unicode="&#x1e80;" horiz-adv-x="1937" 
d="M512 1178l199 -633l190 563l-22 70q-37 109 -111 204l-98 123h602l-31 -100q-32 -112 2 -227l199 -633l215 633q17 50 18.5 112.5t-12.5 114.5l-29 100h303l-116 -129q-82 -89 -119 -198l-397 -1178h-48l-333 1038l-351 -1038h-47l-379 1178q-38 112 -110 204l-98 123
h602l-31 -100q-32 -112 2 -227zM1051 1704l-258 170l141 129l151 -299h-34z" />
    <glyph glyph-name="wgrave" unicode="&#x1e81;" horiz-adv-x="1710" 
d="M537 823l143 -368l133 313l-22 55q-20 53 -59 109.5t-81 93.5l-57 49h586l-9 -18q-26 -53 -29 -116.5t19 -117.5l144 -368l157 374q22 52 16.5 114t-36.5 108l-15 24h283l-55 -47q-43 -37 -84 -92t-62 -107l-348 -829h-47l-278 709l-299 -709h-48l-321 823
q-20 54 -59 110t-82 93l-56 49h586l-10 -18q-25 -53 -28 -116t18 -118zM952 1290l-258 170l142 129l151 -299h-35z" />
    <glyph glyph-name="Wacute" unicode="&#x1e82;" horiz-adv-x="1937" 
d="M512 1178l199 -633l190 563l-22 70q-37 109 -111 204l-98 123h602l-31 -100q-32 -112 2 -227l199 -633l215 633q17 50 18.5 112.5t-12.5 114.5l-29 100h303l-116 -129q-82 -89 -119 -198l-397 -1178h-48l-333 1038l-351 -1038h-47l-379 1178q-38 112 -110 204l-98 123
h602l-31 -100q-32 -112 2 -227zM1085 1874l-258 -170h-34l149 299z" />
    <glyph glyph-name="wacute" unicode="&#x1e83;" horiz-adv-x="1710" 
d="M537 823l143 -368l133 313l-22 55q-20 53 -59 109.5t-81 93.5l-57 49h586l-9 -18q-26 -53 -29 -116.5t19 -117.5l144 -368l157 374q22 52 16.5 114t-36.5 108l-15 24h283l-55 -47q-43 -37 -84 -92t-62 -107l-348 -829h-47l-278 709l-299 -709h-48l-321 823
q-20 54 -59 110t-82 93l-56 49h586l-10 -18q-25 -53 -28 -116t18 -118zM987 1460l-258 -170h-35l150 299z" />
    <glyph glyph-name="Wdieresis" unicode="&#x1e84;" horiz-adv-x="1937" 
d="M512 1178l199 -633l190 563l-22 70q-37 109 -111 204l-98 123h602l-31 -100q-32 -112 2 -227l199 -633l215 633q17 50 18.5 112.5t-12.5 114.5l-29 100h303l-116 -129q-82 -89 -119 -198l-397 -1178h-48l-333 1038l-351 -1038h-47l-379 1178q-38 112 -110 204l-98 123
h602l-31 -100q-32 -112 2 -227zM1047 1681q-37 0 -59.5 22.5t-22.5 59.5q0 35 22.5 57.5t59.5 22.5t59 -22.5t22 -57.5q0 -37 -22 -59.5t-59 -22.5zM831 1681q-37 0 -59 22.5t-22 59.5q0 35 22 57.5t59 22.5t59.5 -22.5t22.5 -57.5q0 -37 -22.5 -59.5t-59.5 -22.5z" />
    <glyph glyph-name="wdieresis" unicode="&#x1e85;" horiz-adv-x="1710" 
d="M537 823l143 -368l133 313l-22 55q-20 53 -59 109.5t-81 93.5l-57 49h586l-9 -18q-26 -53 -29 -116.5t19 -117.5l144 -368l157 374q22 52 16.5 114t-36.5 108l-15 24h283l-55 -47q-43 -37 -84 -92t-62 -107l-348 -829h-47l-278 709l-299 -709h-48l-321 823
q-20 54 -59 110t-82 93l-56 49h586l-10 -18q-25 -53 -28 -116t18 -118zM948 1268q-37 0 -59.5 22.5t-22.5 59.5q0 35 22.5 57.5t59.5 22.5t59.5 -22.5t22.5 -57.5q0 -37 -22.5 -59.5t-59.5 -22.5zM733 1268q-37 0 -59.5 22.5t-22.5 59.5q0 35 22.5 57.5t59.5 22.5
t59.5 -22.5t22.5 -57.5q0 -37 -22.5 -59.5t-59.5 -22.5z" />
    <glyph glyph-name="Ygrave" unicode="&#x1ef2;" horiz-adv-x="1429" 
d="M621 1190l208 -354l209 354q27 43 43.5 103.5t18.5 115.5l2 96h330l-189 -143q-91 -69 -156 -172l-231 -397l-2 -5v-540q0 -54 20 -112t54 -97l33 -39h-560l33 39q34 40 55 97.5t21 111.5v452l-289 490q-68 108 -149 180l-146 135h658l-11 -96q-6 -54 7 -114.5t41 -104.5
zM791 1704l-259 170l142 129l151 -299h-34z" />
    <glyph glyph-name="ygrave" unicode="&#x1ef3;" horiz-adv-x="1257" 
d="M920 834l-426 -834q-120 -235 -155 -290q-67 -108 -135 -140q-45 -21 -106 -21q-121 0 -214 68.5t-115 155.5q-21 83 38 131q52 43 122 28q82 -17 119 -103q18 -42 22 -97q3 -23 7 -38t13 -36.5t27 -33t43 -11.5q22 0 42 9t43 34.5t40.5 49.5t47 77t50 93l61.5 120
q1 3 2 4l-397 827q-61 121 -151 199l-56 49h594l-8 -18q-26 -53 -26 -115t26 -115l215 -444l229 451q26 51 23.5 111t-33.5 106l-16 24h284l-55 -47q-96 -80 -155 -194zM600 1290l-258 170l141 129l152 -299h-35z" />
    <glyph glyph-name="endash" unicode="&#x2013;" horiz-adv-x="1200" 
d="M1198 432h-1132v43h1132v-43z" />
    <glyph glyph-name="emdash" unicode="&#x2014;" horiz-adv-x="2060" 
d="M2058 432h-1992v43h1992v-43z" />
    <glyph glyph-name="quoteleft" unicode="&#x2018;" horiz-adv-x="493" 
d="M492 1198q0 -75 -47.5 -120.5t-133.5 -45.5q-83 0 -131.5 45.5t-48.5 118.5q0 111 76.5 203t185.5 127l17 -31q-14 -9 -43 -26.5t-43 -27t-33.5 -25t-33 -32t-24.5 -36.5q32 14 78 14q86 0 133.5 -45t47.5 -119z" />
    <glyph glyph-name="quoteright" unicode="&#x2019;" horiz-adv-x="493" 
d="M131 1362q0 75 47 119.5t133 44.5q85 0 133 -44.5t48 -117.5q0 -112 -76 -204.5t-187 -127.5l-16 33q11 7 43 26.5t43.5 27.5t32.5 24t33.5 31.5t23.5 35.5q-35 -12 -78 -12q-86 0 -133 44.5t-47 119.5z" />
    <glyph glyph-name="quotesinglbase" unicode="&#x201a;" horiz-adv-x="483" 
d="M119 141q0 76 47 121t133 45q85 0 132.5 -44.5t47.5 -119.5q0 -111 -75.5 -202.5t-186.5 -126.5l-16 30q15 10 44 27.5t42.5 27t33 25t32.5 32t24 36.5q-35 -12 -78 -12q-86 0 -133 43.5t-47 117.5z" />
    <glyph glyph-name="quotereversed" unicode="&#x201b;" horiz-adv-x="493" 
d="M311 1526q86 0 133.5 -44.5t47.5 -119.5t-47.5 -119.5t-133.5 -44.5q-43 0 -78 12q13 -24 35 -46t36 -32t54.5 -35t51.5 -32l-17 -33q-110 35 -186 127.5t-76 204.5q0 73 48 117.5t132 44.5z" />
    <glyph glyph-name="quotedblleft" unicode="&#x201c;" horiz-adv-x="880" 
d="M879 1198q0 -75 -47.5 -120.5t-133.5 -45.5q-83 0 -131.5 45.5t-48.5 118.5q0 111 76.5 203t185.5 127l17 -31q-14 -9 -43 -26.5t-42.5 -27t-33.5 -25t-33 -32t-24 -36.5q32 14 77 14q86 0 133.5 -45t47.5 -119zM492 1198q0 -75 -47.5 -120.5t-133.5 -45.5
q-83 0 -131.5 45.5t-48.5 118.5q0 111 76.5 203t185.5 127l17 -31q-14 -9 -43 -26.5t-43 -27t-33.5 -25t-33 -32t-24.5 -36.5q32 14 78 14q86 0 133.5 -45t47.5 -119z" />
    <glyph glyph-name="quotedblright" unicode="&#x201d;" horiz-adv-x="880" 
d="M131 1362q0 75 47 119.5t133 44.5q85 0 133 -44.5t48 -117.5q0 -112 -76 -204.5t-187 -127.5l-16 33q11 7 43 26.5t43.5 27.5t32.5 24t33.5 31.5t23.5 35.5q-35 -12 -78 -12q-86 0 -133 44.5t-47 119.5zM518 1362q0 75 47 119.5t133 44.5q85 0 133 -44.5t48 -117.5
q0 -112 -76 -204.5t-187 -127.5l-16 33q11 7 43 26.5t43.5 27.5t32.5 24t33.5 31.5t23.5 35.5q-34 -12 -78 -12q-86 0 -133 44.5t-47 119.5z" />
    <glyph glyph-name="quotedblbase" unicode="&#x201e;" horiz-adv-x="870" 
d="M506 141q0 76 47 121t133 45q85 0 132.5 -44.5t47.5 -119.5q0 -111 -75.5 -202.5t-186.5 -126.5l-16 30q15 10 44 27.5t42.5 27t33 25t32.5 32t24 36.5q-34 -12 -78 -12q-86 0 -133 43.5t-47 117.5zM119 141q0 76 47 121t133 45q85 0 132.5 -44.5t47.5 -119.5
q0 -111 -75.5 -202.5t-186.5 -126.5l-16 30q15 10 44 27.5t42.5 27t33 25t32.5 32t24 36.5q-35 -12 -78 -12q-86 0 -133 43.5t-47 117.5z" />
    <glyph glyph-name="dagger" unicode="&#x2020;" horiz-adv-x="1062" 
d="M672 -317l2 -5h-193l2 5q27 56 42 140.5t17.5 145.5t2.5 150v676h-10q-112 0 -231.5 -20.5t-205.5 -61.5l-4 -4v194l4 -2q87 -42 206.5 -63t230.5 -21h10v248q0 275 -62 436l-2 4h193l-2 -4q-27 -57 -42 -141.5t-17.5 -145.5t-2.5 -149v-248h11q100 0 219.5 23.5
t216.5 60.5l4 2v-194l-4 4q-85 41 -204 61.5t-232 20.5h-11v-676q0 -89 2.5 -150t17.5 -145.5t42 -140.5z" />
    <glyph glyph-name="daggerdbl" unicode="&#x2021;" horiz-adv-x="1120" 
d="M729 -317l2 -5h-192l2 5q27 56 41.5 141t17 145t2.5 150v246h-10q-112 0 -231 -20.5t-205 -61.5l-4 -4v194l4 -2q87 -42 206 -63t230 -21h10v408h-10q-112 0 -231 -20.5t-205 -61.5l-4 -4v194l4 -2q87 -42 206 -63t230 -21h10v248q0 278 -61 436l-2 4h192l-2 -4
q-27 -57 -41.5 -142t-17 -144.5t-2.5 -149.5v-248h10q100 0 219.5 23.5t216.5 60.5l4 2v-194l-4 4q-85 41 -204 61.5t-232 20.5h-10v-408h10q100 0 219.5 23.5t216.5 60.5l4 2v-194l-4 4q-85 41 -204 61.5t-232 20.5h-10v-246q0 -90 2.5 -150t17 -145t41.5 -141z" />
    <glyph glyph-name="bullet" unicode="&#x2022;" horiz-adv-x="595" 
d="M131 750q0 107 63 171t168 64q106 0 170 -64t64 -171q0 -104 -64 -168t-170 -64q-104 0 -167.5 64t-63.5 168z" />
    <glyph glyph-name="ellipsis" unicode="&#x2026;" horiz-adv-x="1658" 
d="M1296 141q0 76 48 121t135 45q84 0 132 -45t48 -119t-48 -118.5t-132 -44.5q-86 0 -134.5 44t-48.5 117zM709 141q0 76 47 121t133 45q85 0 132.5 -44.5t47.5 -119.5t-47.5 -119t-132.5 -44q-86 0 -133 43.5t-47 117.5zM119 141q0 76 47 121t133 45q85 0 132.5 -44.5
t47.5 -119.5t-47.5 -119t-132.5 -44q-86 0 -133 43.5t-47 117.5z" />
    <glyph glyph-name="perthousand" unicode="&#x2030;" horiz-adv-x="2260" 
d="M1776 432q0 -180 36.5 -293.5t102.5 -113.5t106.5 115t40.5 296q0 187 -42 305.5t-103 118.5q-62 0 -101.5 -118t-39.5 -310zM1067 432q0 -180 36.5 -293.5t102.5 -113.5t106 115t40 296q0 187 -41.5 305.5t-102.5 118.5q-62 0 -101.5 -118t-39.5 -310zM1579 444
q0 196 95 319.5t243 123.5q149 0 244.5 -124t95.5 -325q0 -197 -92 -317.5t-242 -120.5t-247 123.5t-97 320.5zM870 444q0 196 94.5 319.5t243.5 123.5q148 0 244 -124.5t96 -324.5q0 -197 -92 -317.5t-242 -120.5q-151 0 -247.5 123.5t-96.5 320.5zM336 1075
q0 -181 36.5 -295t102.5 -114t106 115t40 298q0 187 -41.5 305.5t-102.5 118.5q-62 0 -101.5 -118t-39.5 -310zM479 0l645 1505h74l-645 -1505h-74zM139 1087q0 196 94.5 319.5t243.5 123.5q148 0 244 -124.5t96 -324.5q0 -197 -92 -317.5t-242 -120.5q-151 0 -247.5 123.5
t-96.5 320.5z" />
    <glyph glyph-name="guilsinglleft" unicode="&#x2039;" horiz-adv-x="561" 
d="M526 252l-415 418l415 411l29 -30l-385 -385l385 -383z" />
    <glyph glyph-name="guilsinglright" unicode="&#x203a;" horiz-adv-x="561" 
d="M563 670l-413 -418l-31 31l385 383l-385 385l31 30z" />
    <glyph glyph-name="fraction" unicode="&#x2044;" horiz-adv-x="899" 
d="M180 0l645 1505h74l-645 -1505h-74z" />
    <glyph glyph-name="euro" unicode="&#x20ac;" horiz-adv-x="1527" 
d="M94 795v43h172q23 313 209.5 500.5t474.5 187.5q180 0 314 -78t188 -231q50 -145 -9 -234q-43 -65 -121 -64q-87 0 -151 85q-49 65 -69 165q-4 20 -10 64t-11 72t-16 65.5t-26 59t-41 37.5t-60 16q-86 0 -162 -86t-122 -234t-46 -319v-6h289v-43h-289q4 -56 8 -86h281
v-43h-274q35 -196 143.5 -311t275.5 -115q218 0 457 215q-53 -156 -152.5 -265.5t-214.5 -159.5t-239 -50q-245 0 -422 189.5t-203 496.5h-174v43h170v49v37h-170z" />
    <glyph glyph-name="trademark" unicode="&#x2122;" horiz-adv-x="1871" 
d="M979 664l16 -21h-149l20 21q43 53 43 120v580q0 70 -43 119l-20 22h270l230 -594l239 594h262l-20 -22q-43 -53 -43 -119v-580q0 -63 43 -120l20 -21h-321l18 21q43 57 43 120v660l-323 -801h-27l-301 787v-646q0 -67 43 -120zM623 664l20 -21h-321l18 21q43 57 43 120
v693q-58 -7 -115 -35.5t-96 -67.5l-53 -53h-25l37 184h703l36 -184h-26l-51 53q-41 39 -98.5 67.5t-114.5 35.5v-693q0 -63 43 -120z" />
    <glyph glyph-name="minus" unicode="&#x2212;" horiz-adv-x="1196" 
d="M1194 647h-1133v43h1133v-43z" />
    <glyph glyph-name="glyph176" unicode="&#xf000;" horiz-adv-x="1822" 
d="M254 20q55 0 107.5 25.5t92 63.5t75.5 90.5t59.5 97t42.5 92.5l145 340q-77 23 -164 23q-153 0 -278 -61t-198 -172.5t-73 -252.5q0 -115 51 -180.5t140 -65.5zM1266 100q15 52 12 113.5t-23 112.5l-294 731l-125 -295q137 -52 217 -156t80 -237q0 -104 -45 -180.5
t-115 -125.5q-98 -66 -169 -36q-53 23 -56 86q-5 83 84 166q17 17 38 32q6 4 25.5 18.5t27 21t22.5 21t21 27t11.5 31.5t5.5 41q0 65 -40 133.5t-128 110.5l-137 -326q-23 -55 -45 -99.5t-63 -106t-84 -102.5t-106 -71t-132 -30q-109 0 -168.5 70.5t-59.5 207.5
q0 160 78.5 284.5t212 190.5t299.5 66q85 0 183 -25l309 731h47l477 -1179q48 -112 125 -199l115 -127h-631z" />
    <glyph glyph-name="glyph177" unicode="&#xf001;" horiz-adv-x="1875" 
d="M1008 795h39q165 0 267.5 97.5t102.5 244.5q0 146 -101 235.5t-269 89.5h-39v-667zM856 -266q294 0 469.5 161.5t175.5 440.5q0 207 -98.5 311.5t-272.5 104.5h-122v-752h-453l33 39q34 40 55 97.5t21 111.5v1214q-62 0 -100 -16.5t-52.5 -42t-19 -65.5t-1 -78t2.5 -91
t-9 -94q-25 -125 -114 -171q-75 -38 -148 -1q-76 38 -91 134q-12 75 20 167q107 298 512 301h641q204 0 330 -97.5t126 -262.5q0 -126 -78 -221.5t-217 -139.5q186 -32 282.5 -149t96.5 -305q0 -204 -109 -359t-307.5 -239t-459.5 -84q-269 0 -472 89t-318.5 264.5
t-115.5 416.5q0 331 265 426q141 48 221 -3q63 -41 52 -119q-13 -96 -132 -182q-65 -47 -154 -83q-89 -35 -132.5 -84.5t-43.5 -139.5q0 -135 98 -250.5t263 -182t356 -66.5z" />
    <glyph glyph-name="glyph178" unicode="&#xf002;" horiz-adv-x="2467" 
d="M901 1350q-91 -30 -145 -87t-54 -133q0 -59 32.5 -87.5t72.5 -28.5q51 0 84 53.5t33 146.5q0 72 -23 136zM1126 1255q0 -124 -79 -204t-201 -80q-84 0 -135.5 40.5t-51.5 121.5q0 89 60 157t162 101q-26 45 -65 68.5t-83 23.5q-82 0 -151.5 -79t-110.5 -221t-41 -315
q0 -288 114 -458t320 -170q218 0 457 215q-53 -156 -152.5 -265.5t-214.5 -159.5t-239 -50q-128 0 -243 56.5t-200.5 156t-135.5 246.5t-50 319q0 229 86 403.5t241.5 269.5t356.5 95q216 0 303 -107q97 -1 219.5 -29t220 -61.5t213.5 -61.5t201 -28q35 0 67 5t55.5 11
t50 19.5t41 21.5t37.5 27.5t31.5 27t30.5 29.5l27 27q118 114 202 118q54 2 62 -42q9 -52 -53 -129q-73 -90 -194 -141.5t-277 -51.5q-95 0 -197 21t-191 51t-174 61t-175.5 54.5t-167.5 27.5q24 -52 24 -121z" />
    <glyph glyph-name="glyph179" unicode="&#xf003;" horiz-adv-x="1882" 
d="M791 -266q212 0 373.5 125t250 355.5t88.5 535.5q0 344 -110 528t-303 184h-80v-1462h-453l33 39q34 40 55 97.5t21 111.5v1214q-63 0 -101 -16.5t-53 -41.5t-19.5 -64.5t-1 -78t2.5 -91.5t-9 -95q-25 -125 -114 -171q-75 -38 -148 -1q-76 38 -91 134q-12 75 20 167
q107 301 514 301h487q142 0 269 -64t221 -177t149 -277.5t55 -355.5q0 -215 -69.5 -398t-193.5 -311.5t-300.5 -201t-384.5 -72.5q-175 0 -327 52t-265.5 148t-178.5 243t-65 327q0 331 265 426q141 48 221 -3q63 -41 52 -119q-13 -96 -132 -182q-65 -47 -154 -83
q-89 -35 -132.5 -84.5t-43.5 -139.5q0 -100 57 -193.5t148 -160t209.5 -106t237.5 -39.5z" />
    <glyph glyph-name="glyph180" unicode="&#xf004;" horiz-adv-x="1628" 
d="M909 731h-116v-706q73 -16 168 -49.5t182 -66.5t183.5 -65t206.5 -51.5t218 -19.5t177.5 21t133.5 71q101 72 168 72q43 0 63.5 -27t11 -69t-49.5 -83q-104 -106 -338 -106q-137 0 -289 36t-283.5 87t-254.5 102t-241 87t-204 36h-303l33 39q34 39 54 97t20 112v483h-3
v43h3v688q-63 0 -101 -16.5t-53 -41.5t-19.5 -64.5t-1 -78t2.5 -91.5t-9 -95q-24 -124 -112 -170q-75 -39 -148 -2q-77 38 -93 133q-13 75 19 168q107 298 512 301h1033l65 -323h-43l-92 94q-85 84 -209 135t-244 51h-163v-688h116q63 0 122 32.5t91 86.5l35 53h43v-387h-43
l-35 53q-32 54 -91 86.5t-122 32.5z" />
    <glyph glyph-name="glyph181" unicode="&#xf005;" horiz-adv-x="1312" 
d="M909 731h-118v-483q0 -54 20.5 -111.5t54.5 -97.5l33 -39h-559l33 39q33 39 53 96.5t20 112.5v1214q-62 0 -100 -16.5t-52.5 -42t-18.5 -65.5t-1 -78.5t2.5 -91t-8.5 -93.5q-24 -124 -112 -170q-75 -39 -148 -2q-77 38 -93 133q-13 75 19 168q107 298 512 301h199
q86 0 204 36t241 87t254.5 102t283.5 87t289 36q234 0 338 -106q40 -41 49.5 -83t-11 -68.5t-63.5 -26.5q-69 0 -168 71q-64 50 -134 71.5t-177 21.5q-132 0 -273.5 -31t-244 -70.5t-230 -85.5t-212.5 -65v-707h118q63 0 122 32.5t91 86.5l35 53h43v-387h-43l-35 53
q-32 54 -91 86.5t-122 32.5z" />
    <glyph glyph-name="glyph182" unicode="&#xf006;" horiz-adv-x="2467" 
d="M905 1352q-92 -27 -147.5 -85.5t-55.5 -136.5q0 -59 32.5 -87.5t72.5 -28.5q51 0 84 53.5t33 144.5q0 71 -19 140zM1126 1264q0 -124 -85.5 -208.5t-204.5 -84.5q-77 0 -127 41t-50 121q0 91 62 159t168 101q-44 90 -127 90q-87 0 -163.5 -86t-122.5 -234t-46 -319
q0 -268 110.5 -436t295.5 -168q50 0 100 12v274q0 54 -21 111.5t-55 97.5l-33 39h559l-32 -39q-34 -39 -54 -97t-20 -112v-526l-231 117q-165 -137 -363 -137q-118 0 -226.5 56.5t-191.5 156t-132.5 247t-49.5 318.5q0 229 86 403.5t241.5 269.5t356.5 95q221 0 305 -107
q97 -1 219 -29.5t219.5 -62t213 -61t200.5 -27.5q35 0 67 5t55.5 11t50 19.5t41 21.5t37.5 27.5t31.5 27t30.5 29.5l27 27q118 114 202 118q54 2 62 -42q9 -52 -53 -129q-73 -90 -194 -141.5t-277 -51.5q-95 0 -197 21t-190.5 51t-173.5 61t-175 54.5t-167 27.5
q22 -52 22 -112z" />
    <glyph glyph-name="glyph183" unicode="&#xf007;" horiz-adv-x="1945" 
d="M1870 39l31 -39h-560l33 39q34 40 55 97.5t21 111.5v127q-80 115 -211 204t-285 140v-471q0 -54 21 -111.5t55 -97.5l33 -39h-559l33 39q33 39 53 96.5t20 112.5v516q-237 -21 -381.5 -180t-144.5 -412q0 -116 33.5 -213t89.5 -162.5t129.5 -111t152 -66t158.5 -20.5
q99 0 171 34t149 109q151 154 278 171q82 11 111 -39q31 -52 -19 -128q-71 -108 -259 -182t-382 -74q-105 0 -200 23.5t-179.5 75t-146 126.5t-97.5 185.5t-36 244.5q0 187 65 331t195.5 232t312.5 99v655q-63 0 -101 -16.5t-52.5 -41.5t-19 -64.5t-1.5 -78t2.5 -91.5
t-8.5 -95q-24 -124 -112 -170q-75 -39 -148 -2q-77 38 -93 133q-13 75 19 168q107 301 514 301h453l-33 -39q-34 -40 -55 -97.5t-21 -111.5v-493q151 -46 280 -127t216 -191v811q0 54 -21 111.5t-55 97.5l-33 39h560l-31 -39q-35 -39 -55.5 -96.5t-20.5 -112.5v-1009
q0 -55 20.5 -112.5t55.5 -96.5z" />
    <glyph glyph-name="glyph184" unicode="&#xf008;" horiz-adv-x="1024" 
d="M866 39l33 -39h-559l33 39q33 39 53 96.5t20 112.5v1214q-62 0 -100 -16.5t-52.5 -42t-18.5 -65.5t-1 -78.5t2.5 -91t-8.5 -93.5q-24 -124 -112 -170q-75 -39 -148 -2q-77 38 -93 133q-13 75 19 168q107 298 512 301h453l-33 -39q-34 -40 -54.5 -97.5t-20.5 -111.5v-1009
q0 -54 20.5 -111.5t54.5 -97.5z" />
    <glyph glyph-name="glyph185" unicode="&#xf009;" horiz-adv-x="2504" 
d="M1409 27q92 29 146.5 86t54.5 133q0 59 -31.5 87.5t-71.5 28.5q-51 0 -84.5 -53.5t-33.5 -144.5q0 -80 20 -137zM2228 1257v-725q0 -170 -49.5 -301.5t-138 -214t-207.5 -124.5t-262 -42q-240 0 -330 107q-97 1 -219.5 29.5t-220 62t-213.5 61t-201 27.5q-35 0 -67 -5
t-55.5 -11t-50 -19.5t-41 -21.5t-37.5 -27.5t-31.5 -27t-30.5 -29.5l-27 -27q-118 -113 -202 -118q-54 -2 -62 41q-9 52 53 128q71 91 192.5 143t278.5 52q95 0 197 -21t190.5 -51t173.5 -61t175 -54.5t167 -27.5q-22 45 -22 113q0 123 86 208t203 85q78 0 127 -40.5
t49 -121.5q0 -91 -60.5 -159t-165.5 -101q46 -90 140 -90q129 0 223 150.5t94 401.5v1016q-63 0 -101 -16.5t-52.5 -41.5t-19 -64.5t-1.5 -78t2.5 -91.5t-8.5 -95q-25 -124 -114 -170q-75 -39 -148 -2q-76 38 -92 133q-13 75 20 168q107 301 514 301h451l-31 -39
q-35 -39 -55.5 -96.5t-20.5 -112.5z" />
    <glyph glyph-name="glyph186" unicode="&#xf00a;" horiz-adv-x="1677" 
d="M899 -305q0 -85 63 -147t150 -62q48 0 84 22.5t54 58.5t26 72t8 72q0 78 -43 228q-87 0 -164.5 -29t-127.5 -86t-50 -129zM1180 1204l-291 -313h147q86 0 159 -49t105 -127l164 -389q97 -232 131 -412q68 -24 181 -71.5t189 -78.5t180 -56t196 -25q235 0 407 139
q135 109 256 94q86 -10 120 -76q39 -75 -18 -167q-36 -58 -106 -109q-165 -119 -397 -119q-115 0 -227.5 24.5t-219 71t-189 89.5t-191 105t-170.5 93v-29q0 -159 -113 -257.5t-299 -98.5q-152 0 -245 65.5t-93 180.5q0 122 102.5 201t268.5 90q-21 66 -49 126l-322 750
l-63 -68v-540q0 -54 20.5 -111.5t54.5 -97.5l33 -39h-559l33 39q34 39 54 97t20 112v1214q-63 0 -101 -16.5t-53 -41.5t-19.5 -64.5t-1 -78t2.5 -91.5t-9 -95q-24 -124 -112 -170q-75 -39 -148 -2q-77 38 -93 133q-13 75 19 168q107 301 515 301h452l-33 -39
q-34 -40 -54.5 -97.5t-20.5 -111.5v-403l327 350q37 39 64 95.5t33 109.5l10 96h362l-227 -151q-91 -55 -182 -150z" />
    <glyph glyph-name="glyph187" unicode="&#xf00b;" horiz-adv-x="1024" 
d="M901 1505l-33 -39q-34 -40 -54.5 -97.5t-20.5 -111.5v-1232q73 -16 168 -49.5t182 -66.5t183.5 -65t206.5 -51.5t218 -19.5t177.5 21t133.5 71q101 72 168 72q43 0 63.5 -27t11 -69t-49.5 -83q-104 -106 -338 -106q-137 0 -289 36t-283.5 87t-254.5 102t-241 87t-204 36
h-303l33 39q34 39 54 97t20 112v1214q-63 0 -101 -16.5t-53 -41.5t-19.5 -64.5t-1 -78t2.5 -91.5t-9 -95q-24 -124 -112 -170q-75 -39 -148 -2q-77 38 -93 133q-13 75 19 168q107 301 515 301h452z" />
    <glyph glyph-name="glyph188" unicode="&#xf00c;" horiz-adv-x="2365" 
d="M836 39l30 -39h-258l33 39q34 40 55 97.5t21 111.5v1214q-64 0 -102.5 -16t-53.5 -41t-19.5 -65t-1 -78.5t3 -91.5t-8.5 -95q-25 -124 -114 -170q-75 -39 -148 -2q-76 38 -92 133q-13 75 20 168q107 298 508 301h368l402 -1036l415 1036h457l-33 -39q-34 -40 -54.5 -97.5
t-20.5 -111.5v-1009q0 -54 20.5 -111.5t54.5 -97.5l33 -39h-559l33 39q33 39 53 96.5t20 112.5v1149l-563 -1397q-101 -253 -293.5 -399t-425.5 -146q-167 0 -300 76t-208 211t-75 305q0 185 85 339.5t214 229.5q123 72 221 39q65 -22 82 -78q20 -67 -42 -125
q-32 -30 -81 -51q-20 -8 -36 -15t-57 -29t-73.5 -45.5t-73 -62t-68 -80t-46.5 -99t-19 -119.5q0 -90 37 -173t100.5 -144.5t154.5 -98.5t194 -37q204 0 388 139t275 363l-528 1372v-1124q0 -54 21 -111.5t55 -97.5z" />
    <glyph glyph-name="glyph189" unicode="&#xf00d;" horiz-adv-x="1738" 
d="M1581 0h-43l-903 1325v-1096q0 -177 -83 -281t-216 -104q-131 0 -218 102t-87 279q0 86 19.5 172.5t69.5 173t124 136.5q98 67 170 39q53 -21 56 -81q5 -80 -83 -158q-17 -16 -37 -30q-36 -25 -73.5 -62.5t-75.5 -87t-62 -109t-24 -116.5q0 -92 61.5 -153.5t155.5 -61.5
q117 0 188.5 94.5t71.5 247.5v1233q-63 0 -101 -16.5t-52.5 -41.5t-19 -64.5t-1.5 -78t2.5 -91.5t-8.5 -95q-25 -124 -114 -170q-75 -39 -148 -2q-76 38 -92 133q-13 75 20 168q107 301 514 301h336l610 -901v653q0 54 -21 111.5t-55 97.5l-30 39h256l-31 -39
q-34 -40 -55 -97.5t-21 -111.5v-1257z" />
    <glyph glyph-name="glyph190" unicode="&#xf00e;" horiz-adv-x="1632" 
d="M715 756q56 42 85 85t56 120q29 -79 58.5 -122.5t86.5 -86.5q-58 -44 -87 -86.5t-56 -118.5q-26 76 -56 120t-87 89zM426 752q0 -330 118.5 -531t313.5 -201q128 0 225.5 91t151 257t53.5 384t-53.5 384t-151 256.5t-225.5 90.5q-195 0 -313.5 -200.5t-118.5 -530.5z
M82 752q0 349 213 561.5t563 212.5q230 0 406 -96t272 -272t96 -406t-96 -405.5t-272 -271t-406 -95.5q-231 0 -407.5 95.5t-272.5 271t-96 405.5z" />
    <glyph glyph-name="glyph191" unicode="&#xf00f;" horiz-adv-x="1738" 
d="M791 709h124q168 0 270.5 104.5t102.5 280.5q0 174 -101 271t-272 97h-124v-753zM866 39l33 -39h-559l33 39q33 39 53 96.5t20 112.5v1214q-62 0 -100 -16.5t-52.5 -42t-18.5 -65.5t-1 -78.5t2.5 -91t-8.5 -93.5q-24 -124 -112 -170q-75 -39 -148 -2q-77 38 -93 133
q-13 75 19 168q107 298 512 301h684q137 0 249 -44t182.5 -137.5t70.5 -221.5q0 -133 -74.5 -233t-201.5 -151.5t-289 -51.5h-276v-418q0 -54 20.5 -111.5t54.5 -97.5z" />
    <glyph glyph-name="glyph192" unicode="&#xf010;" horiz-adv-x="1632" 
d="M715 756q56 42 85 85t56 120q29 -79 58.5 -122.5t86.5 -86.5q-58 -44 -87 -86.5t-56 -118.5q-26 76 -56 120t-87 89zM426 752q0 -330 118.5 -531t313.5 -201q128 0 225.5 91t151 257t53.5 384t-53.5 384t-151 256.5t-225.5 90.5q-195 0 -313.5 -200.5t-118.5 -530.5z
M82 752q0 349 213 561.5t563 212.5q230 0 406 -96t272 -272t96 -406q0 -278 -139 -474t-379 -266q79 -12 177.5 -44t192.5 -68t196 -70.5t220.5 -57t233.5 -22.5q106 0 176 21.5t135 70.5q96 72 168 72q43 0 63.5 -26t11 -67.5t-49.5 -82.5q-107 -109 -336 -109
q-116 0 -244.5 26t-236 65t-223 84.5t-209.5 84.5t-191 65t-170 26h-168q-174 0 -319 55.5t-246 156t-157 244t-56 316.5z" />
    <glyph glyph-name="glyph193" unicode="&#xf011;" horiz-adv-x="1769" 
d="M1327 -260q0 87 -33 199h-10q-87 0 -164.5 -29t-127.5 -86t-50 -129q0 -85 63 -147t150 -62q49 0 84.5 23t53.5 61.5t26 80.5t8 89zM793 709h122q167 0 270 102.5t103 269.5q0 172 -103 276.5t-270 104.5h-122v-753zM1384 516l99 -190q136 -256 172 -418
q54 -20 219.5 -90.5t279.5 -102.5t230 -32q235 0 407 139q135 109 256 94q86 -10 120 -76q39 -75 -18 -167q-36 -58 -106 -109q-165 -119 -397 -119q-112 0 -221 22.5t-217.5 69t-182.5 84.5t-189 104.5t-165 92.5v-27q0 -152 -123 -250t-311 -98q-152 0 -245 65.5
t-93 180.5q0 124 105.5 203.5t275.5 87.5q-22 58 -59 126l-281 560h-147v-418q0 -54 20.5 -111.5t54.5 -97.5l33 -39h-559l33 39q34 39 54 97t20 112v1214q-63 0 -101 -16.5t-53 -41.5t-19.5 -64.5t-1 -78t2.5 -91.5t-9 -95q-24 -124 -112 -170q-75 -39 -148 -2
q-77 38 -93 133q-13 75 19 168q107 301 515 301h768q187 0 301 -113.5t114 -301.5t-109 -303t-290 -121q97 -45 151 -150z" />
    <glyph glyph-name="glyph194" unicode="&#xf012;" horiz-adv-x="2414" 
d="M750 1348q-89 -30 -141 -86.5t-52 -131.5q0 -59 31 -87.5t71 -28.5q55 0 87 52.5t32 139.5q0 78 -28 142zM539 1526q238 0 354 -107h25q97 0 221 -28t222.5 -62t215.5 -62t203 -28q35 0 67 5t55.5 11t50 19.5t41 21.5t37.5 27.5t31.5 27t30.5 29.5l27 27q118 114 202 118
q54 2 62 -42q9 -52 -53 -129q-71 -89 -192.5 -141t-278.5 -52q-97 0 -202 22t-195.5 53t-178.5 62.5t-180.5 54t-171.5 23.5q47 -62 47 -147q0 -113 -78 -185.5t-199 -72.5q-87 0 -137.5 40t-50.5 122q0 88 56.5 155t154.5 101q-62 94 -182 94q-88 0 -147.5 -53.5
t-59.5 -145.5q0 -60 28 -114.5t75.5 -97.5t109 -83.5t129.5 -78.5t135.5 -77t129 -84t109 -94.5t75.5 -114t28 -137.5q0 -182 -162 -292.5t-426 -110.5q-439 0 -547 309q-51 143 6 231q42 64 118 62q87 -1 154 -89q54 -73 77 -187q1 -6 5.5 -29.5t7 -35t8.5 -36t12 -38.5
t16.5 -36t22 -35t29 -28.5t36.5 -24t45 -14.5t55 -6q98 0 163 56.5t65 152.5q0 59 -28 112t-75.5 95t-109 82t-129.5 78t-136 77t-129.5 85t-109 96.5t-75.5 116t-28 139.5q0 178 143.5 285.5t375.5 107.5z" />
    <glyph glyph-name="glyph195" unicode="&#xf013;" horiz-adv-x="1519" 
d="M874 39l33 -39h-559l33 39q34 40 55 97.5t21 111.5v1214h-4q-64 0 -103 -16t-54.5 -41t-20 -65t-1.5 -78.5t2.5 -91.5t-8.5 -95q-24 -124 -112 -170q-75 -39 -148 -2q-77 38 -93 133q-13 75 19 168q107 301 515 301h792q67 0 117.5 -33.5t66 -80.5t8.5 -94.5t-56 -81
t-126 -33.5q-62 0 -114.5 22t-91.5 56.5t-74.5 71t-79.5 70t-90 48.5v-1202q0 -55 20 -112.5t53 -96.5z" />
    <glyph glyph-name="glyph196" unicode="&#xf014;" horiz-adv-x="1779" 
d="M1014 -20q-253 0 -408 157t-155 416v909q-64 0 -102.5 -16t-53.5 -41t-19.5 -65t-1.5 -78.5t2.5 -91.5t-8.5 -95q-24 -124 -112 -170q-75 -39 -148 -2q-77 38 -93 133q-13 75 19 168q107 301 517 301h452l-33 -39q-34 -40 -54.5 -97.5t-20.5 -111.5v-745
q0 -208 100.5 -328.5t251.5 -120.5q71 0 136.5 30t118.5 87t84.5 148t31.5 204v725q0 54 -21 111.5t-55 97.5l-31 39h258l-33 -39q-34 -40 -54.5 -97.5t-20.5 -111.5v-704q0 -259 -147 -416t-400 -157z" />
    <glyph glyph-name="glyph197" unicode="&#xf015;" horiz-adv-x="2123" 
d="M1516 1180l-498 -1180h-49l-588 1456q-48 -10 -73.5 -36.5t-29.5 -63t-4 -83t3 -96t-9 -102.5q-24 -124 -112 -170q-75 -39 -148 -2q-77 38 -93 133q-13 75 19 168q107 298 512 301h437l-29 -100q-17 -53 -14.5 -113.5t24.5 -111.5l295 -731l309 731q111 262 248.5 412.5
t282.5 150.5q99 0 132 -63q31 -57 -13 -123q-57 -87 -198 -116q-26 -6 -54 -9q-89 -9 -130 -23q-146 -49 -220 -229z" />
    <glyph glyph-name="glyph198" unicode="&#xf016;" horiz-adv-x="2660" 
d="M860 1178l197 -633l192 563l-24 70q-14 49 -44.5 105t-64.5 99l-98 123h602l-31 -100q-17 -53 -16 -114t18 -113l197 -633l215 635q89 261 218.5 412t289.5 151q111 0 149 -65q33 -57 -10 -123q-53 -84 -187 -114q-27 -6 -57 -9q-95 -9 -136 -22q-160 -49 -220 -230
l-399 -1180h-47l-334 1038l-350 -1038h-48l-469 1460q-57 -7 -87.5 -32.5t-36 -62t-5.5 -84t3 -99.5t-9 -107q-24 -124 -112 -170q-75 -39 -148 -2q-77 38 -93 133q-13 75 19 168q108 301 515 301h440l-31 -100q-17 -53 -16 -114t18 -113z" />
    <glyph glyph-name="glyph199" unicode="&#xf017;" horiz-adv-x="1824" 
d="M1278 -63q-7 0 -19 1t-18 1q-126 0 -203 -61t-77 -152q0 -85 60.5 -141t147.5 -56q80 0 129.5 48t49.5 126q0 82 -70 234zM1415 1190l-241 -381l292 -494q81 -137 128.5 -237t64.5 -189q42 -16 161.5 -66.5t180 -72.5t158.5 -44.5t182 -22.5q235 0 407 139
q135 109 256 94q86 -10 120 -76q39 -75 -18 -167q-36 -58 -106 -109q-165 -119 -397 -119q-90 0 -183 17.5t-163 39t-163 64.5t-143.5 70.5t-146.5 82t-133 74.5q0 -170 -114.5 -260t-290.5 -90q-160 0 -254 69.5t-94 196.5q0 118 86.5 193t252.5 78q-53 104 -190 335
l-201 338l-213 -338q-59 -90 -63 -219l-2 -96h-332l188 143q88 67 158 172l242 381l-453 762q-52 -9 -79.5 -35t-32.5 -62.5t-5 -83.5t3 -97.5t-9 -104.5q-24 -124 -112 -170q-75 -39 -148 -2q-77 38 -93 133q-13 75 19 168q108 301 515 301h464l-10 -96q-6 -54 6.5 -114.5
t40.5 -104.5l201 -338l213 338q27 44 44 104t19 115l3 96h331l-190 -143q-40 -32 -83 -79.5t-73 -92.5z" />
    <glyph glyph-name="glyph200" unicode="&#xf018;" horiz-adv-x="1988" 
d="M922 1190l208 -354l205 344q157 264 223 354q121 162 232 197q37 12 76 12q98 0 131 -62q30 -57 -14 -123q-58 -88 -201 -119q-28 -6 -58 -9q-28 -2 -35 -3t-39 -7t-48.5 -14.5t-48.5 -27.5t-56 -44t-54.5 -64.5t-58.5 -89.5l-227 -387l-2 -5v-540q0 -54 20 -112t54 -97
l33 -39h-560l33 39q34 40 55 97.5t21 111.5v452l-444 754q-43 -12 -65 -38t-26 -65.5t-1.5 -80t2.5 -96.5t-9 -99q-24 -124 -112 -170q-75 -39 -148 -2q-77 38 -93 133q-13 75 19 168q107 301 517 301h436l-13 -96q-6 -53 7.5 -113.5t40.5 -105.5z" />
    <glyph glyph-name="glyph201" unicode="&#xf019;" horiz-adv-x="1259" 
d="M326 0h-334l864 1462h-190q-120 0 -244 -51t-209 -135l-92 -94h-43l63 323h1141l-868 -1470q79 -12 177.5 -44t192 -68t194.5 -70.5t219 -57t233 -22.5q109 0 179 21t134 71q101 72 168 72q43 0 63.5 -27t10.5 -69t-50 -83q-104 -106 -338 -106q-137 0 -289 36t-283 87
t-254 102t-241 87t-204 36z" />
    <glyph glyph-name="glyph202" unicode="&#xf01a;" horiz-adv-x="1120" 
d="M737 541h-47q-123 0 -197.5 -78.5t-74.5 -200.5q0 -87 38 -143t97 -56q76 0 130 97.5t54 277.5v103zM1081 623v-623q84 -19 210.5 -65t228 -84.5t242 -69.5t270.5 -31q107 0 177.5 21.5t135.5 70.5q96 72 168 72q43 0 63.5 -26t10.5 -67.5t-50 -82.5q-107 -109 -337 -109
q-137 0 -289 36t-283.5 87.5t-254.5 103.5t-241 88t-204 36h-191v198q-81 -198 -315 -198q-156 0 -252 79.5t-96 200.5q0 79 45 142.5t118.5 102t161 59t179.5 20.5h159v123q0 173 -42 259.5t-107 86.5q-97 0 -133 -179q-39 -181 -129 -231q-61 -34 -114 8q-55 43 -55 130
q0 24 5 48q24 118 137.5 192.5t292.5 74.5q103 0 189.5 -27.5t154.5 -82.5t106.5 -148t38.5 -215z" />
    <glyph glyph-name="glyph203" unicode="&#xf01b;" horiz-adv-x="1148" 
d="M-1016 135q21 -6 47 -6q126 0 200.5 133t74.5 369q0 179 -43 279t-109 100q-67 0 -118.5 -97.5t-51.5 -275.5v-502zM-1016 1505v-602q37 95 106 144t165 49q173 0 284 -150.5t111 -382.5q0 -131 -39.5 -242t-106 -185t-154 -115t-184.5 -41q-151 0 -272 100l-254 -80
v1444q-79 -19 -190.5 -59t-216.5 -80t-221 -79t-243.5 -63t-244.5 -24q-232 0 -340 108q-40 41 -49 82.5t12 67.5t64 26q73 0 168 -71q65 -49 136 -70.5t181 -21.5q125 0 256 25t240 61t212.5 72.5t209.5 61.5t194 25h176z" />
    <glyph glyph-name="glyph204" unicode="&#xf01c;" horiz-adv-x="2324" 
d="M752 924q-92 -27 -149.5 -87t-57.5 -137q0 -59 31 -87.5t71 -28.5q52 0 85.5 57.5t33.5 163.5q0 73 -14 119zM612 1096q97 0 174 -28t121 -79q97 0 220.5 -28t222 -62t215 -62t202.5 -28q35 0 67 5t55.5 11t50 19.5t41 21.5t37.5 27.5t31.5 27t30.5 29.5l27 27
q118 114 202 118q54 2 62 -42q9 -52 -53 -129q-71 -89 -192.5 -141t-278.5 -52q-96 0 -198.5 21t-192 51.5t-175 61.5t-176 54.5t-167.5 26.5q29 -56 29 -112q0 -124 -85.5 -208.5t-203.5 -84.5q-78 0 -127 40t-49 121q0 92 63.5 162t171.5 101q-40 88 -112 88
q-87 0 -139 -122t-52 -310q0 -214 70 -331.5t198 -117.5q65 0 156 35t195 129q-30 -68 -70.5 -126.5t-97.5 -112.5t-135.5 -85.5t-167.5 -31.5q-100 0 -190 40.5t-156.5 112t-106 177t-39.5 227.5q0 249 147.5 404t374.5 155z" />
    <glyph glyph-name="glyph205" unicode="&#xf01d;" horiz-adv-x="1185" 
d="M-281 63q67 0 118.5 98.5t51.5 276.5v172q0 381 -131 381q-83 0 -135.5 -145.5t-52.5 -372.5q0 -199 41.5 -304.5t107.5 -105.5zM309 39l33 -39h-453v172q-74 -192 -270 -192q-172 0 -282.5 152t-110.5 394q0 253 119.5 411.5t304.5 158.5q171 0 239 -160v508
q-79 -19 -190.5 -59t-216.5 -80t-221 -79t-243.5 -63t-244.5 -24q-232 0 -340 108q-40 41 -49 82.5t12 67.5t64 26q73 0 168 -71q65 -49 136 -70.5t181 -21.5q125 0 256 25t240 61t212.5 72.5t209.5 61.5t194 25h176v-1257q0 -54 21 -111.5t55 -97.5z" />
    <glyph glyph-name="glyph206" unicode="&#xf01e;" horiz-adv-x="759" 
d="M-1389 1032v43h107q9 226 124 338.5t327 112.5q157 0 257.5 -69t120.5 -165q21 -88 -36 -139q-49 -45 -117 -29q-81 19 -121 113q-22 52 -27 121q-10 125 -77 125q-23 0 -41 -13.5t-29.5 -41.5t-19 -61.5t-11 -83.5t-5 -97t-1.5 -111h297v-43h-297v-1052h-188
q-87 0 -205 -36t-241 -87.5t-254.5 -103.5t-284 -88t-289.5 -36q-229 0 -338 109q-40 41 -49.5 82.5t11.5 67.5t64 26q72 0 168 -72q65 -49 135.5 -70.5t176.5 -21.5q131 0 272 31t242 69.5t226.5 84.5t209.5 65v1032h-107z" />
    <glyph glyph-name="glyph207" unicode="&#xf01f;" horiz-adv-x="1243" 
d="M-821 694q0 -159 64 -265.5t163 -106.5q100 0 163.5 104.5t63.5 265.5q0 162 -64.5 261.5t-164.5 99.5q-99 0 -162 -100t-63 -259zM-1165 696q0 182 165.5 291t460.5 109q133 0 186.5 25t53.5 75q0 33 -18.5 49.5t-55.5 26.5q-93 20 -107 75q-11 44 34 79q60 46 154 23
q7 -1 13 -3q70 -22 110 -71.5t40 -112.5q0 -155 -244 -193q160 -42 255 -141.5t95 -233.5q0 -180 -160.5 -297.5t-412.5 -117.5h-8q-195 0 -195 -54q0 -20 34 -27t90 -3t127.5 7t146 5.5t146 -10.5t127.5 -38t90 -79t34 -133q0 -168 -147.5 -272.5t-415.5 -104.5
q-124 0 -258 25.5t-251.5 61.5t-234.5 72t-247.5 61.5t-249.5 25.5q-224 0 -353 -103q-80 -61 -149 -61q-44 0 -65.5 26t-13 65.5t45.5 76.5q53 53 153.5 85t239.5 32q136 0 280 -33.5t268.5 -81t247 -95t257 -81t256.5 -33.5q159 0 240.5 50.5t81.5 135.5q0 62 -44 92.5
t-114 35.5t-155.5 1t-170.5 -4.5t-155 12t-114 58t-44 125.5q0 98 66 141.5t210 54.5q-152 50 -238.5 150.5t-86.5 230.5z" />
    <glyph glyph-name="glyph208" unicode="&#xf020;" horiz-adv-x="1345" 
d="M-193 756v-508q0 -54 20 -112t54 -97l33 -39h-559l33 39q34 40 54.5 97.5t20.5 111.5v399q0 303 -170 303q-105 0 -172 -111t-67 -290v-301q0 -54 21 -111.5t55 -97.5l32 -39h-559l31 39q34 40 55 97.5t21 111.5v1196q-79 -19 -190.5 -59t-216.5 -80t-221 -79t-243.5 -63
t-244.5 -24q-232 0 -340 108q-40 41 -49.5 82.5t11.5 67.5t64 26q73 0 168 -71q65 -49 136 -70.5t182 -21.5q125 0 256 25t240 61t212.5 72.5t209.5 61.5t194 25h176v-706q54 140 164.5 218.5t257.5 78.5q161 0 246 -92.5t85 -247.5z" />
    <glyph glyph-name="glyph209" unicode="&#xf021;" horiz-adv-x="565" 
d="M-1761 1036l-31 39h451v-1032q0 -251 -121 -372.5t-369 -121.5q-113 0 -237 25t-236 61t-224.5 72t-241 61t-247.5 25q-226 0 -352 -100q-84 -64 -149 -64q-44 0 -65.5 26.5t-13 66t45.5 75.5q52 54 152 85.5t241 31.5q136 0 284.5 -33t274.5 -80.5t244 -95t230.5 -80.5
t195.5 -33q39 0 71 7.5t55.5 18.5t42 32.5t31 41t20.5 53t12.5 59t7 69t3 73t0.5 79.5v802q0 54 -20.5 111.5t-54.5 97.5zM-1745 1319q0 95 60.5 151t168.5 56t169 -56t61 -151t-61.5 -152t-168.5 -57t-168 57t-61 152z" />
    <glyph glyph-name="glyph210" unicode="&#xf022;" horiz-adv-x="1290" 
d="M-870 39l32 -39h-559l31 39q34 40 55 97.5t21 111.5v1196q-79 -19 -190.5 -59t-216.5 -80t-221 -79t-243.5 -63t-244.5 -24q-232 0 -340 108q-40 41 -49.5 82.5t11.5 67.5t64 26q73 0 168 -71q65 -49 136 -70.5t182 -21.5q125 0 256 25t240 61t212.5 72.5t209.5 61.5
t194 25h176v-905l309 264q44 37 64.5 93.5t9.5 113.5v4h325l-122 -69q-109 -56 -209 -142l-277 -233h158q88 0 158.5 -49t99.5 -131l49 -125q19 -50 54 -103t73 -90l145 -133h-397q-53 0 -97.5 30t-64.5 81l-204 495l-74 -61v-297q0 -54 21 -111.5t55 -97.5z" />
    <glyph glyph-name="glyph211" unicode="&#xf023;" horiz-adv-x="595" 
d="M-870 39l32 -39h-559l31 39q34 40 55 97.5t21 111.5v1196q-79 -19 -190.5 -59t-216.5 -80t-221 -79t-243.5 -63t-244.5 -24q-232 0 -340 108q-40 41 -49.5 82.5t11.5 67.5t64 26q73 0 168 -71q65 -49 136 -70.5t182 -21.5q125 0 256 25t240 61t212.5 72.5t209.5 61.5
t194 25h176v-1257q0 -54 21 -111.5t55 -97.5z" />
    <glyph glyph-name="glyph212" unicode="&#xf024;" horiz-adv-x="1775" 
d="M1718 756v-756q83 -19 209 -65t227.5 -84.5t242.5 -69.5t272 -31q106 0 176 21.5t135 70.5q96 72 168 72q43 0 63.5 -26t10.5 -67.5t-50 -82.5q-107 -109 -336 -109q-137 0 -289.5 36t-284 87.5t-254.5 103.5t-241 88t-204 36h-189v667q0 151 -19.5 227t-72.5 76
q-72 0 -121 -115t-49 -286v-301q0 -54 20 -112t54 -97l33 -39h-560l33 39q34 40 55 97.5t21 111.5v399q0 151 -19.5 227t-74.5 76q-71 0 -120.5 -115.5t-49.5 -285.5v-301q0 -54 21 -111.5t55 -97.5l32 -39h-559l33 39q34 39 54 97t20 112v579q0 54 -20 112t-54 97l-33 39
h451v-254q46 129 135.5 202t206.5 73q116 0 184 -72.5t80 -210.5q45 133 134.5 208t209.5 75q126 0 195 -87t69 -253z" />
    <glyph glyph-name="glyph213" unicode="&#xf025;" horiz-adv-x="1314" 
d="M1257 756v-756q83 -19 209 -65t227.5 -84.5t242.5 -69.5t272 -31q106 0 176 21.5t135 70.5q96 72 168 72q43 0 64 -26t12 -67.5t-49 -82.5q-107 -109 -338 -109q-137 0 -289.5 36t-284 87.5t-254.5 103.5t-241 88t-205 36h-189v667q0 303 -170 303q-104 0 -171.5 -111.5
t-67.5 -289.5v-301q0 -54 21 -111.5t55 -97.5l32 -39h-559l33 39q34 39 54 97t20 112v579q0 54 -20 112t-54 97l-33 39h451v-276q54 140 165 218.5t257 78.5q161 0 246 -92.5t85 -247.5z" />
    <glyph glyph-name="glyph214" unicode="&#xf026;" horiz-adv-x="1314" 
d="M555 541q57 42 85.5 84t55.5 120q28 -78 58.5 -121.5t89.5 -86.5q-59 -44 -89 -86.5t-57 -118.5q-27 77 -56.5 120.5t-86.5 88.5zM430 537q0 -235 71.5 -376t198.5 -141q126 0 198.5 141t72.5 376q0 236 -72.5 376t-198.5 140q-127 0 -198.5 -140t-71.5 -376zM86 537
q0 256 162.5 407.5t451.5 151.5q288 0 451.5 -152t163.5 -407q0 -254 -163.5 -405.5t-451.5 -151.5q-289 0 -451.5 151.5t-162.5 405.5z" />
    <glyph glyph-name="glyph215" unicode="&#xf027;" horiz-adv-x="1073" 
d="M-938 537v-557h-188q-87 0 -205 -36t-241 -87.5t-254.5 -103.5t-284 -88t-289.5 -36q-229 0 -338 109q-40 41 -49.5 82.5t11.5 67.5t64 26q72 0 168 -72q65 -49 135.5 -70.5t176.5 -21.5q131 0 272 31t242 69.5t226.5 84.5t209.5 65v827q0 54 -21 111.5t-55 97.5l-31 39
h451v-231q39 120 113 186t174 66q104 0 187 -68t104 -178q20 -110 -34 -178q-44 -56 -106 -44q-72 15 -117 119q-18 42 -30 95q-16 74 -43 110.5t-74 36.5q-80 0 -127 -116t-47 -336z" />
    <glyph glyph-name="glyph216" unicode="&#xf028;" horiz-adv-x="972" 
d="M29 1032v43h106q141 0 221 81.5t80 229.5h43v-309q85 8 201.5 47t235 88t245.5 97t272 81t277 33q234 0 338 -106q40 -41 49 -83t-12 -68.5t-64 -26.5q-69 0 -180 73q-71 49 -141.5 70t-173.5 21q-116 0 -237 -25t-224.5 -62t-201 -74.5t-199.5 -68.5t-185 -39v-579
q0 -69 1 -117.5t4.5 -102.5t11 -89.5t19 -66t29.5 -45t42 -14.5q70 0 80 127q11 156 100 214q63 41 129 13q62 -26 74 -93q6 -32 -2 -68q-22 -96 -123 -164.5t-258 -68.5q-451 0 -451 493v559h-106z" />
    <glyph glyph-name="glyph217" unicode="&#xf029;" horiz-adv-x="1267" 
d="M139 319v508q0 55 -20 112.5t-53 96.5l-33 39h450v-647q0 -147 40.5 -225t109.5 -78q89 0 152 112.5t63 288.5v301q0 54 -21 111.5t-55 97.5l-33 39h453v-1075q84 -19 209.5 -65t226.5 -84.5t242 -69.5t272 -31q106 0 176.5 21.5t135.5 70.5q96 72 167 72q43 0 64 -26
t12 -67.5t-49 -82.5q-109 -109 -338 -109q-137 0 -289.5 36t-284 87.5t-254.5 103.5t-241 88t-205 36h-188v294q-54 -138 -159 -216t-238 -78q-148 0 -230 93t-82 246z" />
    <glyph glyph-name="glyph218" unicode="&#xf02a;" horiz-adv-x="1181" 
d="M557 827l213 -442l131 260q31 62 46.5 138.5t17 135t3 130t7.5 110.5q20 131 104 187q62 42 116.5 19t53.5 -93q-1 -50 -32 -111q-43 -86 -111 -215l-483 -946h-48l-397 827q-61 121 -151 199l-56 49h594l-8 -18q-26 -53 -26 -115t26 -115z" />
    <glyph glyph-name="glyph219" unicode="&#xf02b;" horiz-adv-x="1630" 
d="M537 823l143 -368l133 313l-22 55q-20 53 -59 109.5t-81 93.5l-57 49h586l-9 -18q-26 -53 -29 -116.5t19 -117.5l144 -368l79 190q27 64 36.5 140.5t6 138.5t-3.5 132t7 120q19 129 100 182q59 39 110 15q53 -25 49 -99q-3 -37 -22 -82l-506 -1192h-47l-278 709
l-299 -709h-48l-321 823q-20 54 -59 110t-82 93l-56 49h586l-10 -18q-25 -53 -28 -116t18 -118z" />
    <glyph glyph-name="glyph220" unicode="&#xf02c;" horiz-adv-x="1265" 
d="M297 8l4 -8h-313l104 63q104 62 184 166l187 256l-234 357q-31 46 -78.5 96t-91.5 84l-71 53h665l-14 -24q-32 -46 -32.5 -104.5t30.5 -104.5l139 -211l80 108q127 174 150 416q14 171 104 226q60 37 120 6q52 -26 57 -83q4 -47 -32 -96l-452 -618l233 -357
q30 -45 77.5 -95.5t92.5 -86.5l70 -51h-668l19 25q32 47 32.5 104.5t-30.5 103.5l-140 213l-157 -215q-34 -46 -44 -107.5t9 -115.5z" />
    <glyph glyph-name="glyph221" unicode="&#xf02d;" horiz-adv-x="1257" 
d="M-492 834l-426 -834q-128 -249 -248.5 -350t-301.5 -101q-94 0 -194.5 25t-192.5 61t-188.5 72t-215 61t-238.5 25q-125 0 -250.5 -25.5t-203.5 -86.5q-18 -14 -27 -26t-9 -16.5t-1.5 -7t-9.5 -2.5q-44 0 -65.5 26.5t-13 66t45.5 75.5q52 54 152 85.5t241 31.5
q136 0 285.5 -33t275 -80.5t241.5 -95t222 -80.5t180 -33q128 0 243.5 97.5t225.5 310.5l-397 827q-26 52 -68 107t-83 92l-56 49h594l-10 -18q-25 -53 -25 -115t25 -115l215 -444l231 451q25 51 22 110.5t-34 106.5l-14 24h284l-57 -47q-43 -37 -85.5 -90.5t-68.5 -103.5z
" />
    <glyph glyph-name="glyph222" unicode="&#xf02e;" horiz-adv-x="1118" 
d="M700 1032h-28q-120 0 -244 -51.5t-207 -134.5l-94 -94h-43l66 323h987l-688 -1044q76 -15 173.5 -48t188 -67t190.5 -67.5t214.5 -54.5t226.5 -21q108 0 177.5 21t133.5 71q101 72 168 72q43 0 64 -27t12 -69t-49 -83q-106 -106 -338 -106q-137 0 -289.5 36t-284 87
t-254.5 102t-241 87t-205 36h-316z" />
    <glyph glyph-name="glyph223" unicode="&#xf02f;" horiz-adv-x="1150" 
d="M596 63q67 0 118.5 98.5t51.5 276.5v172q0 381 -131 381q-83 0 -136 -146t-53 -372q0 -198 42.5 -304t107.5 -106zM1110 0q84 -19 210 -65t227.5 -84.5t242 -69.5t270.5 -31q107 0 178 21.5t136 70.5q96 72 168 72q43 0 63.5 -26t10.5 -67.5t-50 -82.5
q-107 -109 -338 -109q-137 0 -289 36t-283.5 87.5t-254.5 103.5t-241 88t-204 36h-190v192q-74 -192 -270 -192q-173 0 -283.5 152t-110.5 394q0 253 119.5 411.5t304.5 158.5q176 0 240 -160v321q0 54 -20 112t-54 97l-33 39h451v-1505z" />
    <glyph glyph-name="glyph224" unicode="&#xf030;" horiz-adv-x="1306" 
d="M1241 756v-756q84 -19 209.5 -65t226.5 -84.5t242 -69.5t272 -31q106 0 176.5 21.5t135.5 70.5q96 72 168 72q43 0 64 -26t11.5 -67.5t-49.5 -82.5q-107 -109 -338 -109q-137 0 -289.5 36t-284 87.5t-254.5 103.5t-241 88t-205 36h-188v667q0 303 -170 303
q-104 0 -172 -111.5t-68 -289.5v-301q0 -54 21 -111.5t55 -97.5l33 -39h-559l33 39q33 39 53 96.5t20 112.5v1009q0 55 -20 112.5t-53 96.5l-33 39h450v-706q54 140 165 218.5t257 78.5q161 0 246.5 -93t85.5 -247z" />
    <glyph glyph-name="glyph225" unicode="&#xf031;" horiz-adv-x="2576" 
d="M903 1348q-93 -30 -147 -86.5t-54 -131.5q0 -59 32.5 -87.5t72.5 -28.5q51 0 84 53.5t33 146.5q0 76 -21 134zM1126 1255q0 -124 -79 -204t-201 -80q-84 0 -135.5 40.5t-51.5 121.5q0 88 59.5 155t166.5 101q-57 94 -152 94q-82 0 -151.5 -79t-110.5 -221t-41 -315
q0 -288 114 -458t320 -170q218 0 457 215q-53 -156 -152.5 -265.5t-214.5 -159.5t-239 -50q-128 0 -243 56.5t-200.5 156t-135.5 246.5t-50 319q0 229 86 403.5t241.5 269.5t356.5 95q216 0 303 -107h21q109 0 262.5 -29t302 -58t244.5 -29q45 0 83 4.5t71.5 17.5t55 21.5
t50 30.5t37.5 29t36.5 34t30.5 30q118 115 202 119q53 3 61 -41q10 -51 -52 -129q-156 -194 -496 -194q-107 0 -241 24v-450q54 140 165 218.5t257 78.5q161 0 246 -92.5t85 -247.5v-508q0 -54 21 -111.5t55 -97.5l31 -39h-559l33 39q34 40 54.5 97.5t20.5 111.5v399
q0 303 -170 303q-104 0 -171.5 -111.5t-67.5 -289.5v-301q0 -54 21 -111.5t55 -97.5l32 -39h-559l33 39q34 39 54 97t20 112v1083q-159 42 -295 45q24 -52 24 -121z" />
    <glyph glyph-name="glyph226" unicode="&#xf032;" horiz-adv-x="2580" 
d="M911 1348q-93 -30 -146.5 -86.5t-53.5 -131.5q0 -59 32 -87.5t72 -28.5q51 0 84 53.5t33 146.5q0 76 -21 134zM1135 1255q0 -124 -79.5 -204t-201.5 -80q-84 0 -135 40.5t-51 121.5q0 89 59 155.5t166 100.5q-57 94 -152 94q-82 0 -151.5 -79t-110.5 -221t-41 -315
q0 -280 104 -454t267 -174q41 0 72 8v278q0 54 -20 112t-54 97l-33 39h559l-33 -39q-34 -40 -54.5 -97.5t-20.5 -111.5v-526l-230 117q-168 -137 -360 -137q-157 0 -280.5 95.5t-192 266t-68.5 387.5q0 366 188.5 581.5t495.5 215.5q216 0 303 -107h21q109 0 262.5 -29
t302 -58t244.5 -29q45 0 83 4.5t71.5 17.5t55 21.5t50 30.5t37.5 29t36.5 34t30.5 30q118 115 202 119q53 3 61 -41q10 -51 -52 -129q-156 -194 -495 -194q-108 0 -242 24v-450q54 140 165 218.5t257 78.5q161 0 246.5 -93t85.5 -247v-508q0 -54 20.5 -111.5t54.5 -97.5
l31 -39h-559l33 39q34 40 55 97.5t21 111.5v399q0 303 -170 303q-104 0 -172 -111.5t-68 -289.5v-301q0 -54 21 -111.5t55 -97.5l33 -39h-560l33 39q34 39 54 97t20 112v1083q-159 42 -295 45q25 -55 25 -121z" />
    <glyph glyph-name="glyph227" unicode="&#xf033;" horiz-adv-x="2707" 
d="M793 514q55 119 234 188.5t400 71.5v483q0 54 -20.5 111.5t-54.5 97.5l-31 39h559l-33 -39q-34 -40 -54.5 -97.5t-20.5 -111.5v-483h495v483q0 54 -21 111.5t-55 97.5l-32 39h559l-33 -39q-34 -39 -54 -97t-20 -112v-1009q0 -54 20 -112t54 -97l33 -39h-559l32 39
q34 40 55 97.5t21 111.5v483h-495v-483q0 -54 20.5 -111.5t54.5 -97.5l33 -39h-559l31 39q34 40 54.5 97.5t20.5 111.5v485q-55 -1 -100.5 -8t-79.5 -22t-57.5 -28.5t-46 -38.5t-34 -39.5t-31 -44.5t-27.5 -42q-84 -129 -173 -148q-62 -13 -90 32q-29 47 5 120zM1321 455
q-53 -156 -152.5 -265.5t-214.5 -159.5t-239 -50q-128 0 -243 56.5t-200.5 156t-135.5 246.5t-50 319q0 346 189.5 557t496.5 211q180 0 314 -78t188 -231q50 -145 -9 -234q-43 -65 -121 -64q-87 0 -151 85q-49 65 -69 165q-4 20 -10 64t-11 72t-16 65.5t-26 59t-41 37.5
t-60 16q-86 0 -162 -86t-122 -234t-46 -319q0 -177 49.5 -312.5t149 -213.5t235.5 -78q218 0 457 215z" />
    <glyph glyph-name="glyph228" unicode="&#xf034;" horiz-adv-x="2355" 
d="M903 39l33 -39h-559l33 39q34 40 54.5 97.5t20.5 111.5v1208q-102 -15 -202 -63.5t-168 -116.5l-92 -94h-43l63 323h1438v-706q53 140 164 218.5t258 78.5q161 0 245 -92.5t84 -247.5v-508q0 -54 21 -111.5t55 -97.5l33 -39h-559l33 39q33 39 53 96.5t20 112.5v399
q0 303 -170 303q-104 0 -170.5 -111t-66.5 -290v-301q0 -54 20.5 -111.5t54.5 -97.5l31 -39h-559l33 39q34 40 55 97.5t21 111.5v1214h-308v-1214q0 -54 20 -112t54 -97z" />
    <glyph glyph-name="glyph229" unicode="&#xf035;" horiz-adv-x="1832" 
d="M1767 39l31 -39h-559l33 39q34 40 55 97.5t21 111.5v579q0 54 -21 111.5t-55 97.5l-33 39h453v-827q0 -54 20.5 -111.5t54.5 -97.5zM557 827l213 -438l59 123q48 94 98.5 197t85 176.5t72.5 151.5t65.5 132t58.5 108.5t56.5 89.5t55.5 66.5t59 49t63 27.5t73 10
q99 0 161 -55t62 -150q0 -92 -61.5 -148.5t-168.5 -56.5q-103 0 -154.5 53t-54.5 146q-24 -10 -93.5 -143t-178.5 -359.5t-143 -294.5l-262 -512h-48l-397 827q-61 121 -151 199l-56 49h594l-8 -18q-26 -53 -26 -115t26 -115z" />
    <glyph glyph-name="glyph230" unicode="&#xf036;" horiz-adv-x="2322" 
d="M2257 39l33 -39h-559l32 39q34 39 54 97t20 112v579q0 54 -20 112t-54 97l-32 39h450v-827q0 -54 21 -111.5t55 -97.5zM537 823l143 -368l133 313l-22 55q-20 53 -59 109.5t-81 93.5l-57 49h586l-9 -18q-26 -53 -29 -116.5t19 -117.5l144 -368l24 57q40 86 90 197t80 177
t69 150.5t64 133t58.5 107t58.5 90.5t56.5 66t61.5 50t64.5 26.5t73.5 10.5q99 0 161 -55t62 -150q0 -92 -61 -148.5t-168 -56.5q-102 0 -154 53t-55 146q-22 -7 -59 -62.5t-89 -161t-90 -186t-99 -216t-77 -171.5l-215 -512h-47l-278 709l-299 -709h-48l-321 823
q-20 54 -59 110t-82 93l-56 49h586l-10 -18q-25 -53 -28 -116t18 -118z" />
    <glyph glyph-name="glyph231" unicode="&#xf037;" horiz-adv-x="1902" 
d="M1845 39l33 -39h-559l33 39q33 39 53 96.5t20 112.5v579q0 55 -20 112.5t-53 96.5l-33 39h450v-827q0 -54 21 -111.5t55 -97.5zM297 8l4 -8h-313l104 63q104 62 184 166l187 256l-234 357q-31 46 -78.5 96t-91.5 84l-71 53h665l-14 -24q-32 -46 -32.5 -104.5t30.5 -104.5
l137 -209q39 58 113 165q101 149 149 218t124 172t120.5 148t103.5 96.5t109.5 69.5t105.5 18q95 0 156.5 -55.5t61.5 -149.5q0 -93 -61 -149t-169 -56q-102 0 -154 53t-55 146q-32 0 -102 -71.5t-158.5 -190.5t-163.5 -226.5t-153 -226.5l235 -361q30 -45 77.5 -95.5
t92.5 -86.5l70 -51h-668l19 25q32 47 32.5 104.5t-30.5 103.5l-140 213l-157 -215q-34 -46 -43 -107t8 -116z" />
    <glyph glyph-name="glyph232" unicode="&#xf038;" horiz-adv-x="1832" 
d="M1642 39l33 -39h-559l31 39q34 40 55 97.5t21 111.5v579q0 54 -21 111.5t-55 97.5l-31 39h451v-827q0 -54 20.5 -111.5t54.5 -97.5zM498 0q-120 -235 -155 -290q-67 -108 -135 -140q-45 -21 -106 -21q-121 0 -214 68.5t-115 155.5q-21 83 38 131q52 43 122 28
q82 -17 119 -103q18 -42 22 -97q3 -23 7 -38t13 -36.5t27 -33t43 -11.5q22 0 42 9t43.5 35t41 49.5t48 78.5t50.5 94t62 121l-398 827q-25 52 -66.5 107t-84.5 92l-56 49h594l-8 -18q-25 -53 -25 -115t25 -115l213 -438l60 123q53 103 108.5 217.5t92.5 192t77.5 161
t69.5 137.5t62.5 108.5t62.5 86t63 57.5t70.5 37t79.5 11q99 0 161 -55t62 -150q0 -92 -61.5 -148.5t-168.5 -56.5q-102 0 -153.5 53t-54.5 146q-24 -10 -93.5 -142.5t-179.5 -361t-143 -293.5z" />
    <glyph glyph-name="glyph233" unicode="&#xf039;" horiz-adv-x="1746" 
d="M1059 135q24 -6 47 -6q126 0 200 132.5t74 369.5q0 180 -42.5 279.5t-108.5 99.5q-67 0 -118.5 -97.5t-51.5 -275.5v-502zM580 39l32 -39h-559l33 39q34 39 54 97t20 112v579q0 54 -20 112t-54 97l-33 39h451v-827q0 -54 21 -111.5t55 -97.5zM100 1319q0 100 69 153.5
t198 53.5q27 0 119.5 -10.5t228.5 -10.5h344v-602q78 193 272 193q172 0 282.5 -150.5t110.5 -382.5q0 -131 -39 -242t-105 -185t-153 -115t-184 -41q-153 0 -274 100l-254 -80v1257q0 48 -7 78.5t-29 60t-66.5 48.5t-116.5 33q65 -62 65 -162q0 -92 -61.5 -148.5
t-169.5 -56.5q-107 0 -168.5 57t-61.5 152z" />
    <glyph glyph-name="glyph234" unicode="&#xf03a;" horiz-adv-x="1935" 
d="M580 39l32 -39h-559l33 39q34 39 54 97t20 112v579q0 54 -20 112t-54 97l-33 39h451v-827q0 -54 21 -111.5t55 -97.5zM100 1319q0 100 69 153.5t198 53.5q27 0 133.5 -10.5t242.5 -10.5h344v-706q54 140 164.5 218.5t257.5 78.5q161 0 245.5 -92.5t84.5 -247.5v-508
q0 -54 21 -111.5t55 -97.5l33 -39h-559l32 39q34 40 55 97.5t21 111.5v399q0 303 -170 303q-105 0 -172.5 -111t-67.5 -290v-301q0 -54 21 -111.5t55 -97.5l33 -39h-559l31 39q34 40 54.5 97.5t20.5 111.5v1009q0 45 -14 80.5t-35 57.5t-56 39t-66.5 25.5t-75.5 17.5
q65 -62 65 -162q0 -92 -61.5 -148.5t-169.5 -56.5q-107 0 -168.5 57t-61.5 152z" />
    <glyph glyph-name="glyph235" unicode="&#xf03b;" horiz-adv-x="1882" 
d="M580 39l32 -39h-559l33 39q34 39 54 97t20 112v579q0 54 -20 112t-54 97l-33 39h451v-827q0 -54 21 -111.5t55 -97.5zM1464 864l-276 -233h158q88 0 158.5 -49t99.5 -131l49 -125q19 -50 54 -103t73 -90l143 -133h-395q-53 0 -97.5 30t-66.5 81l-203 495l-74 -61v-297
q0 -54 21 -111.5t55 -97.5l33 -39h-559l31 39q34 40 54.5 97.5t20.5 111.5v1009q0 45 -14 80.5t-35 57.5t-56 39t-66.5 25.5t-75.5 17.5q65 -62 65 -162q0 -92 -61.5 -148.5t-169.5 -56.5q-107 0 -168.5 57t-61.5 152q0 100 69 153.5t198 53.5q27 0 133.5 -10.5t242.5 -10.5
h344v-905l310 264q44 37 64 93.5t9 113.5v4h324l-121 -69q-109 -56 -209 -142z" />
    <glyph glyph-name="glyph236" unicode="&#xf03c;" horiz-adv-x="1187" 
d="M580 39l32 -39h-559l33 39q34 39 54 97t20 112v579q0 54 -20 112t-54 97l-33 39h451v-827q0 -54 21 -111.5t55 -97.5zM100 1319q0 100 69 153.5t198 53.5q27 0 133.5 -10.5t242.5 -10.5h344v-1257q0 -54 21 -111.5t55 -97.5l33 -39h-559l31 39q34 40 54.5 97.5
t20.5 111.5v1009q0 45 -14 80.5t-35 57.5t-56 39t-66.5 25.5t-75.5 17.5q65 -62 65 -162q0 -92 -61.5 -148.5t-169.5 -56.5q-107 0 -168.5 57t-61.5 152z" />
    <glyph glyph-name="fi" unicode="&#xfb01;" horiz-adv-x="1218" 
d="M57 1032v43h107q21 451 450 451q157 0 258 -68.5t123 -165.5q20 -88 -37 -139q-50 -45 -118 -29q-80 20 -119 113q-22 52 -27 121q-10 125 -80 125q-34 0 -56 -29.5t-32.5 -90t-14 -125.5t-3.5 -163h608v-827q0 -54 20 -112t54 -97l33 -39h-559l32 39q34 40 55 97.5
t21 111.5v579q0 52 -20 108.5t-52 96.5h-192v-784q0 -54 21 -111.5t55 -97.5l32 -39h-559l33 39q34 39 54 97t20 112v784h-107z" />
    <glyph glyph-name="fl" unicode="&#xfb02;" horiz-adv-x="1208" 
d="M508 1075h254v182q0 38 -4 54q-1 3 -2 8t-2 8q-9 44 -53.5 100t-86.5 56q-34 0 -56 -29.5t-32.5 -90t-14 -125.5t-3.5 -163zM57 1032v43h107q21 451 450 451q74 0 156 -21h336v-1257q0 -54 21 -111.5t55 -97.5l32 -39h-559l33 39q34 39 54 97t20 112v784h-254v-784
q0 -54 21 -111.5t55 -97.5l32 -39h-559l33 39q34 39 54 97t20 112v784h-107z" />
    </font>
</defs>
</svg>
